<?xml version="1.0" encoding="UTF-8"?>
<svg width="124px" height="17px" viewBox="0 0 124 17" version="1.1" xmlns="http://www.w3.org/2000/svg" xmlns:xlink="http://www.w3.org/1999/xlink">
    <!-- Generator: Sketch 46.2 (44496) - http://www.bohemiancoding.com/sketch -->
    <title>reader copy 2</title>
    <desc>Created with Sketch.</desc>
    <defs></defs>
    <g id="Page-1" stroke="none" stroke-width="1" fill="none" fill-rule="evenodd">
        <g id="Лого-цвета-шрифты" transform="translate(-1142.000000, -172.000000)">
            <g id="reader-copy-3" transform="translate(1142.000000, 172.000000)">
                <g id="Group-3" transform="translate(0.460967, 0.000000)">
                    <g id="LR_logo_eng" fill-rule="nonzero">
                        <path d="M10.0483969,16.32 L0.199279382,16.32 L0.199279382,0.612 L3.245169,0.612 L3.245169,13.58232 L10.0483969,13.58232 L10.0483969,16.32 Z M11.1532983,5.1 L14.0435585,5.1 L14.0435585,16.32 L11.1532983,16.32 L11.1532983,5.1 Z M12.6105392,3.69852 C11.7088028,3.69852 10.9788047,2.95278666 10.9788047,2.03206666 C10.9788047,1.11134666 11.7088028,0.36516 12.6105392,0.36516 C13.5109442,0.36516 14.2418299,1.11134666 14.2418299,2.03206666 C14.2418299,2.95278666 13.5109442,3.69852 12.6105392,3.69852 Z M15.7110163,5.1 L17.2450775,5.1 L17.2450775,2.99064 L20.1353377,2.16036 L20.1353377,5.1 L22.8477358,5.1 L22.8477358,7.5684 L20.1353377,7.5684 L20.1353377,11.87688 C20.1353377,12.6548039 20.2131516,13.2120583 20.3687818,13.54866 C20.524412,13.8852617 20.8171405,14.05356 21.2469763,14.05356 C21.5434147,14.05356 21.799089,14.0236403 22.0140069,13.9638 C22.2289247,13.9039597 22.4697773,13.8142006 22.7365719,13.69452 L23.2479257,15.93852 C22.8477338,16.133001 22.3808503,16.2975593 21.8472611,16.4322 C21.3136719,16.5668407 20.7726799,16.63416 20.2242688,16.63416 C19.2015562,16.63416 18.449355,16.3686227 17.9676426,15.83754 C17.4859301,15.3064573 17.2450775,14.4350461 17.2450775,13.22328 L17.2450775,7.5684 L15.7110163,7.5684 L15.7110163,5.1 Z" id="LitRes:-Copy" fill="#FFFFFF"></path>
                        <path d="M58.9549136,8.12418664 C58.0531772,8.12418664 57.3231791,7.37845336 57.3231791,6.45773334 C57.3231791,5.53701334 58.0531772,4.79082666 58.9549136,4.79082666 C59.8553186,4.79082666 60.5862043,5.53701334 60.5862043,6.45773334 C60.5862043,7.37845336 59.8553186,8.12418664 58.9549136,8.12418664 Z" id="Fill-7" fill="#FF4C00"></path>
                        <path d="M60.5862043,14.6997866 C60.5862043,15.6200534 59.8553186,16.36624 58.9549136,16.36624 C58.0531772,16.36624 57.3231791,15.6200534 57.3231791,14.6997866 C57.3231791,13.7786134 58.0531772,13.0324266 58.9549136,13.0324266 C59.8553186,13.0324266 60.5862043,13.7790666 60.5862043,14.6997866" id="Fill-8" fill="#FF4C00"></path>
                        <path d="M24.6930558,0.76908 C25.0367779,0.76908 25.400797,0.653140262 25.7935779,0.60078 C26.1863588,0.548419738 26.5791339,0.50728015 26.9719148,0.47736 C27.3646957,0.44743985 27.7463544,0.425000075 28.1169025,0.41004 C28.4874505,0.395079925 28.8283496,0.3876 29.13961,0.3876 C29.8658841,0.3876 30.5810311,0.454919327 31.2850723,0.58956 C31.9891136,0.724200673 32.6190358,0.956078354 33.1748579,1.2852 C33.7306799,1.61432165 34.1753309,2.06685712 34.5088241,2.64282 C34.8423174,3.21878288 35.0090615,3.94059566 35.0090615,4.80828 C35.0090615,6.09484643 34.7126275,7.14203599 34.1197506,7.94988 C33.5268738,8.75772401 32.7339129,9.31871844 31.7408442,9.63288 C32.2247504,9.79744 32.6315697,10.1534364 32.9613023,10.7008692 C34.2102161,12.7743562 35.3522797,14.6473999 36.3874933,16.32 L32.8747155,16.32 C31.1373487,13.2999784 30.0804894,11.4715929 29.7041376,10.8348437 C29.3277858,10.1980946 28.6727218,9.87972 27.7389454,9.87972 L27.7389454,16.32 L24.6930558,16.32 C24.6930558,5.95272 24.6930558,0.76908 24.6930558,0.76908 Z M29.3619377,3.12528 C29.0506773,3.12528 28.7431271,3.13275993 28.4392777,3.14772 C28.1354282,3.16268007 27.9019865,3.19259978 27.7389454,3.23748 L27.7389454,7.7928 L29.0284461,7.7928 C29.8732956,7.7928 30.547683,7.59832197 31.0516283,7.20936 C31.5555736,6.82039803 31.8075425,6.17712449 31.8075425,5.27952 C31.8075425,4.60631663 31.6000387,4.0789819 31.1850249,3.6975 C30.7700111,3.31601809 30.1623214,3.12528 29.3619377,3.12528 Z M45.8364209,15.35508 C45.3917633,15.7141218 44.7877791,16.0170588 44.0244501,16.2639 C43.2611211,16.5107412 42.4496331,16.63416 41.5899617,16.63416 C39.7965092,16.63416 38.4847888,16.1068253 37.6547612,15.05214 C36.8247336,13.9974547 36.4097261,12.5500892 36.4097261,10.71 C36.4097261,8.73527014 36.8766096,7.25424496 37.8103906,6.26688 C38.7441716,5.27951506 40.0558921,4.78584 41.7455911,4.78584 C42.3088241,4.78584 42.8572269,4.86063925 43.3908161,5.01024 C43.9244053,5.15984075 44.3986997,5.40667828 44.8137135,5.75076 C45.2287273,6.09484172 45.5622155,6.55859708 45.8141882,7.14204 C46.0661608,7.72548292 46.1921453,8.45103565 46.1921453,9.31872 C46.1921453,9.63288156 46.1736182,9.96947823 46.1365633,10.32852 C46.0995085,10.6875618 46.0439271,11.061558 45.9698176,11.45052 L39.2999863,11.45052 C39.344452,12.3930047 39.5853047,13.1035976 40.0225513,13.58232 C40.459798,14.0610424 41.1675341,14.3004 42.145781,14.3004 C42.7534797,14.3004 43.2981772,14.206901 43.7798896,14.0199 C44.2616021,13.832899 44.6284391,13.642161 44.8804118,13.44768 L45.8364209,15.35508 Z M41.7011255,7.1196 C40.9452076,7.1196 40.3856884,7.34773769 40.0225513,7.80402 C39.6594143,8.26030231 39.4407942,8.86991619 39.3666846,9.63288 L43.50198,9.63288 C43.5612676,8.82503599 43.4389887,8.20420218 43.1351393,7.77036 C42.8312898,7.33651782 42.3532901,7.1196 41.7011255,7.1196 Z M52.8397438,13.22328 C52.8397438,12.9240785 52.7137594,12.6847209 52.4617867,12.5052 C52.209814,12.3256791 51.8985583,12.1611207 51.5280103,12.01152 C51.1574622,11.8619193 50.7498655,11.7085808 50.3052079,11.5515 C49.8605503,11.3944192 49.4529535,11.1775014 49.0824055,10.90074 C48.7118574,10.6239786 48.4006018,10.2724221 48.1486291,9.84606 C47.8966564,9.41969789 47.770672,8.86992333 47.770672,8.19672 C47.770672,7.08967449 48.0967494,6.24444292 48.7489139,5.661 C49.4010784,5.07755708 50.3422564,4.78584 51.5724758,4.78584 C52.4173254,4.78584 53.1806428,4.8755991 53.8624512,5.05512 C54.5442597,5.2346409 55.0778408,5.43659888 55.4632108,5.661 L54.8184604,7.77036 C54.4775562,7.63571932 54.0477269,7.49360075 53.5289597,7.344 C53.0101924,7.19439925 52.4840221,7.1196 51.9504329,7.1196 C51.0907615,7.1196 50.6609322,7.4561966 50.6609322,8.1294 C50.6609322,8.39868136 50.7869166,8.61559918 51.0388893,8.78016 C51.290862,8.94472082 51.6021176,9.09805932 51.9726657,9.24018 C52.3432137,9.38230068 52.7508105,9.53563918 53.1954681,9.7002 C53.6401258,9.86476082 54.0477224,10.0779387 54.4182705,10.33974 C54.7888185,10.6015413 55.1000742,10.9418779 55.3520469,11.36076 C55.6040196,11.7796421 55.730004,12.3181967 55.730004,12.97644 C55.730004,14.1134057 55.3705778,15.0072567 54.6517146,15.65802 C53.9328514,16.3087833 52.8545728,16.63416 51.4168464,16.63416 C50.6312846,16.63416 49.8939051,16.533181 49.2046857,16.33122 C48.5154664,16.129259 47.9559473,15.8936414 47.5261115,15.62436 L48.3264913,13.44768 C48.6673955,13.642161 49.1194573,13.832899 49.6826903,14.0199 C50.2459233,14.206901 50.8239696,14.3004 51.4168464,14.3004 C51.8466822,14.3004 52.1912867,14.2181208 52.4506703,14.05356 C52.7100539,13.8889992 52.8397438,13.612242 52.8397438,13.22328 Z" id="LitRes:-Copy" fill="#FF4C00"></path>
                    </g>
                    <path d="M69.6891524,7.1145 C69.2420126,6.9659407 68.8172362,6.89166216 68.4148104,6.89166216 C67.7739101,6.89166216 67.2671592,7.06621672 66.8945428,7.41533108 C66.5219263,7.76444544 66.2909075,8.20640273 66.2014796,8.74121622 L66.2014796,16.5405405 L64.4129294,16.5405405 L64.4129294,5.39864865 L65.6649145,5.39864865 L66.0002677,6.75795946 L66.0896952,6.75795946 C66.3728837,6.25285783 66.7119596,5.86289552 67.1069331,5.58806081 C67.5019066,5.3132261 68.0049313,5.17581081 68.6160223,5.17581081 C69.0482574,5.17581081 69.5326516,5.25008935 70.0692193,5.39864865 L69.6891524,7.1145 Z M80.1745279,15.6491892 C79.7273881,16.0057315 79.1647456,16.28799 78.4865836,16.495973 C77.8084216,16.703956 77.0892826,16.8079459 76.329145,16.8079459 C75.4795794,16.8079459 74.7418098,16.6705307 74.1158141,16.3956959 C73.4898184,16.1208612 72.9756154,15.727185 72.5731896,15.2146554 C72.1707638,14.7021258 71.8726751,14.0893279 71.6789145,13.3762432 C71.4851539,12.6631586 71.3882751,11.8609504 71.3882751,10.9695946 C71.3882751,9.06803554 71.8130515,7.61960408 72.6626171,6.62425676 C73.5121827,5.62890944 74.7268942,5.13124324 76.3067881,5.13124324 C76.8135465,5.13124324 77.3202973,5.18695215 77.8270558,5.29837162 C78.3338142,5.4097911 78.7883995,5.62148493 79.1908253,5.93345946 C79.5932511,6.24543399 79.9211487,6.68739128 80.1745279,7.25934459 C80.4279071,7.8312979 80.5545948,8.58522505 80.5545948,9.52114865 C80.5545948,10.0113943 80.5098815,10.5536277 80.4204535,11.1478649 L73.2438959,11.1478649 C73.2438959,11.8015258 73.3109659,12.3808984 73.4451078,12.886 C73.5792497,13.3911016 73.7879118,13.8182032 74.0711004,14.1673176 C74.3542889,14.5164319 74.7231737,14.7838347 75.1777658,14.9695338 C75.6323579,15.1552329 76.1875481,15.2480811 76.8433532,15.2480811 C77.3501116,15.2480811 77.8568624,15.1589468 78.3636208,14.9806757 C78.8703792,14.8024045 79.2504424,14.5944246 79.5038216,14.3567297 L80.1745279,15.6491892 Z M76.329145,6.69110811 C75.4497701,6.69110811 74.7455355,6.92137157 74.2164201,7.38190541 C73.6873047,7.84243924 73.3705854,8.62979173 73.2662528,9.74398649 L78.8107584,9.74398649 C78.8107584,8.6149358 78.594644,7.82386938 78.1624089,7.37076351 C77.7301738,6.91765764 77.1190919,6.69110811 76.329145,6.69110811 Z M83.1927063,6.22314865 C83.7590834,5.88146226 84.4186047,5.62891523 85.17129,5.4655 C85.9239753,5.30208477 86.7101843,5.22037838 87.5299405,5.22037838 C88.3049828,5.22037838 88.927243,5.32436833 89.3967398,5.53235135 C89.8662365,5.74033437 90.223943,6.01145103 90.4698699,6.34570946 C90.7157968,6.67996789 90.8797456,7.04764664 90.9617212,7.44875676 C91.0436968,7.84986687 91.084684,8.25097097 91.084684,8.65208108 C91.084684,9.54343689 91.0623274,10.4124958 91.0176134,11.2592838 C90.9728994,12.1060718 90.9505428,12.90828 90.9505428,13.6659324 C90.9505428,14.2156018 90.9728994,14.7355516 91.0176134,15.2257973 C91.0623274,15.716043 91.1443018,16.1691421 91.263539,16.5851081 L89.9444833,16.5851081 L89.4749888,15.0252432 L89.3632045,15.0252432 C89.2290625,15.2332263 89.0613876,15.4374922 88.8601747,15.6380473 C88.6589618,15.8386024 88.4167647,16.0168708 88.1335762,16.1728581 C87.8503877,16.3288454 87.5224901,16.4588328 87.1498736,16.5628243 C86.7772571,16.6668158 86.3524807,16.7188108 85.8755316,16.7188108 C85.3985825,16.7188108 84.9551755,16.6445323 84.5452974,16.495973 C84.1354193,16.3474137 83.7814389,16.1357198 83.4833457,15.8608851 C83.1852525,15.5860504 82.9505077,15.2555109 82.7791041,14.8692568 C82.6077005,14.4830026 82.522,14.0447592 82.522,13.5545135 C82.522,12.9008526 82.6561399,12.3549053 82.9244238,11.9166554 C83.1927077,11.4784055 83.5690447,11.1292963 84.0534461,10.8693176 C84.5378475,10.6093388 85.1191205,10.4236424 85.7972825,10.312223 C86.4754445,10.2008035 87.2243924,10.1450946 88.0441487,10.1450946 L88.6589628,10.1450946 C88.8601757,10.1450946 89.0651117,10.1599503 89.273777,10.1896622 C89.3184909,9.74398426 89.3408476,9.34288016 89.3408476,8.98633784 C89.3408476,8.16926168 89.1768988,7.59731695 88.8489963,7.27048649 C88.5210938,6.94365602 87.9249163,6.78024324 87.0604461,6.78024324 C86.8070669,6.78024324 86.5350609,6.79881288 86.2444201,6.8359527 C85.9537792,6.87309253 85.6556905,6.9250875 85.350145,6.99193919 C85.0445995,7.05879087 84.753963,7.14049726 84.4782268,7.23706081 C84.2024906,7.33362436 83.9602935,7.44132823 83.7516283,7.56017568 L83.1927063,6.22314865 Z M86.3673829,15.1589459 C86.7847134,15.1589459 87.1573243,15.103237 87.4852268,14.9918176 C87.8131293,14.8803981 88.0963136,14.7392689 88.3347881,14.5684257 C88.5732627,14.3975825 88.7707464,14.2081722 88.9272454,14.0001892 C89.0837443,13.7922062 89.1992537,13.5916541 89.273777,13.398527 L89.273777,11.548973 C89.0651117,11.534117 88.8527235,11.5229753 88.6366059,11.5155473 C88.4204884,11.5081193 88.2081002,11.5044054 87.9994349,11.5044054 C87.5373905,11.5044054 87.0865313,11.5304029 86.6468439,11.5823986 C86.2071564,11.6343944 85.8196411,11.7309565 85.4842862,11.8720878 C85.1489314,12.0132192 84.8806516,12.2063434 84.6794387,12.4514662 C84.4782258,12.6965891 84.3776208,13.004845 84.3776208,13.3762432 C84.3776208,13.8962008 84.5639263,14.3233024 84.9365428,14.6575608 C85.3091592,14.9918192 85.7861012,15.1589459 86.3673829,15.1589459 Z M103.045613,12.7077297 C103.045613,13.4653822 103.053066,14.1524586 103.06797,14.7689797 C103.082875,15.3855008 103.149945,15.9908709 103.269182,16.5851081 L102.061911,16.5851081 L101.614773,15.0029595 L101.525346,15.0029595 C101.227253,15.522917 100.795024,15.9537325 100.228647,16.2954189 C99.6622698,16.6371053 98.9990224,16.8079459 98.2388848,16.8079459 C96.7484188,16.8079459 95.6417645,16.3399912 94.9188885,15.4040676 C94.1960125,14.468144 93.8345799,13.0048568 93.8345799,11.0141622 C93.8345799,9.1126031 94.2854391,7.66788557 95.187171,6.67996622 C96.0889029,5.69204686 97.3296972,5.19809459 98.9095911,5.19809459 C99.4610635,5.19809459 99.8970182,5.22780601 100.217468,5.28722973 C100.537919,5.34665345 100.884447,5.44321555 101.257063,5.57691892 L101.257063,0.941891892 L103.045613,0.941891892 L103.045613,12.7077297 Z M98.5295242,15.2480811 C99.2896618,15.2480811 99.8932914,15.051243 100.340431,14.6575608 C100.787571,14.2638787 101.093112,13.6659364 101.257063,12.8637162 L101.257063,7.33733784 C100.988779,7.12935482 100.683238,6.98079774 100.340431,6.89166216 C99.9976241,6.80252658 99.5430388,6.75795946 98.9766617,6.75795946 C97.9482402,6.75795946 97.1434007,7.0959268 96.562119,7.77187162 C95.9808372,8.44781644 95.6902007,9.52856915 95.6902007,11.0141622 C95.6902007,11.6232553 95.7386402,12.1877722 95.8355204,12.7077297 C95.9324007,13.2276873 96.0926234,13.6733585 96.3161933,14.0447568 C96.5397632,14.416155 96.8341258,14.7095552 97.19929,14.9249662 C97.5644541,15.1403772 98.0078611,15.2480811 98.5295242,15.2480811 Z M114.648833,15.6491892 C114.201693,16.0057315 113.63905,16.28799 112.960888,16.495973 C112.282726,16.703956 111.563587,16.8079459 110.80345,16.8079459 C109.953884,16.8079459 109.216115,16.6705307 108.590119,16.3956959 C107.964123,16.1208612 107.44992,15.727185 107.047494,15.2146554 C106.645069,14.7021258 106.34698,14.0893279 106.153219,13.3762432 C105.959459,12.6631586 105.86258,11.8609504 105.86258,10.9695946 C105.86258,9.06803554 106.287356,7.61960408 107.136922,6.62425676 C107.986488,5.62890944 109.201199,5.13124324 110.781093,5.13124324 C111.287851,5.13124324 111.794602,5.18695215 112.301361,5.29837162 C112.808119,5.4097911 113.262704,5.62148493 113.66513,5.93345946 C114.067556,6.24543399 114.395454,6.68739128 114.648833,7.25934459 C114.902212,7.8312979 115.0289,8.58522505 115.0289,9.52114865 C115.0289,10.0113943 114.984186,10.5536277 114.894758,11.1478649 L107.718201,11.1478649 C107.718201,11.8015258 107.785271,12.3808984 107.919413,12.886 C108.053555,13.3911016 108.262217,13.8182032 108.545405,14.1673176 C108.828594,14.5164319 109.197479,14.7838347 109.652071,14.9695338 C110.106663,15.1552329 110.661853,15.2480811 111.317658,15.2480811 C111.824416,15.2480811 112.331167,15.1589468 112.837926,14.9806757 C113.344684,14.8024045 113.724747,14.5944246 113.978126,14.3567297 L114.648833,15.6491892 Z M110.80345,6.69110811 C109.924075,6.69110811 109.21984,6.92137157 108.690725,7.38190541 C108.161609,7.84243924 107.84489,8.62979173 107.740558,9.74398649 L113.285063,9.74398649 C113.285063,8.6149358 113.068949,7.82386938 112.636714,7.37076351 C112.204479,6.91765764 111.593397,6.69110811 110.80345,6.69110811 Z M123.122089,7.1145 C122.674949,6.9659407 122.250173,6.89166216 121.847747,6.89166216 C121.206847,6.89166216 120.700096,7.06621672 120.32748,7.41533108 C119.954863,7.76444544 119.723844,8.20640273 119.634416,8.74121622 L119.634416,16.5405405 L117.845866,16.5405405 L117.845866,5.39864865 L119.097851,5.39864865 L119.433204,6.75795946 L119.522632,6.75795946 C119.80582,6.25285783 120.144896,5.86289552 120.53987,5.58806081 C120.934843,5.3132261 121.437868,5.17581081 122.048959,5.17581081 C122.481194,5.17581081 122.965588,5.25008935 123.502156,5.39864865 L123.122089,7.1145 Z" id="reader" fill="#FFFFFF"></path>
                </g>
            </g>
        </g>
    </g>
</svg>