<?xml version="1.0" encoding="utf-8"?>
<!-- Generator: Adobe Illustrator 16.0.0, SVG Export Plug-In . SVG Version: 6.00 Build 0)  -->
<!DOCTYPE svg PUBLIC "-//W3C//DTD SVG 1.1//EN" "http://www.w3.org/Graphics/SVG/1.1/DTD/svg11.dtd">
<svg version="1.1" id="Layer_1" xmlns="http://www.w3.org/2000/svg" xmlns:xlink="http://www.w3.org/1999/xlink" x="0px" y="0px"
	 width="24px" height="24px" viewBox="0 0 24 24" enable-background="new 0 0 24 24" xml:space="preserve">
<rect x="-3.1" y="3.5" display="none" fill="#444444" width="31.7" height="16.1"/>
<path fill="#FFFFFF" d="M0,12v11h12V12H0z M10,21H2v-1h8V21z M10,19H2v-1h8V19z M10,17H2v-1h8V17z M10,15H2v-1h8V15z"/>
<path fill="#FF1A74" d="M12,12v11h12V12H12z M22,21h-8v-1h8V21z M22,19h-8v-1h8V19z M22,17h-8v-1h8V17z M22,15h-8v-1h8V15z"/>
<polyline fill="#FFFFFF" stroke="#FFFFFF" stroke-miterlimit="10" points="0,11 4.5,8.5 9,11 "/>
<polygon fill="#FFFFFF" points="0,0 0,11 4.5,7.5 9,11 9,0 "/>
<polyline fill="none" stroke="#FFFFFF" stroke-miterlimit="10" points="12,11 16.5,8.5 21,11 "/>
<polygon fill="#FF1A74" points="12,0 12,11 16.5,7.5 21,11 21,0 "/>
</svg>
