<?xml version="1.0" encoding="utf-8"?>
<!-- Generator: Adobe Illustrator 18.0.0, SVG Export Plug-In . SVG Version: 6.00 Build 0)  -->
<!DOCTYPE svg PUBLIC "-//W3C//DTD SVG 1.1//EN" "http://www.w3.org/Graphics/SVG/1.1/DTD/svg11.dtd">
<svg version="1.1" id="Layer_1" xmlns="http://www.w3.org/2000/svg" xmlns:xlink="http://www.w3.org/1999/xlink" x="0px" y="0px"
	 viewBox="0 0 155 18" enable-background="new 0 0 155 18" xml:space="preserve">
<g>
	<path d="M10.3,4.2H6.8C6.7,5.7,6.6,7,6.6,8.2c-0.1,1.2-0.2,2.3-0.3,3.3c-0.1,1-0.3,1.8-0.5,2.6c-0.2,0.7-0.5,1.4-0.8,1.9
		c-0.2,0.4-0.5,0.7-0.7,0.9c-0.3,0.2-0.6,0.4-0.9,0.6c-0.3,0.1-0.6,0.2-0.9,0.3c-0.3,0.1-0.6,0.1-0.8,0.1c-0.4,0-0.7,0-0.9-0.1
		c-0.2-0.1-0.5-0.1-0.7-0.2l0.4-2.8c0.1,0,0.2,0.1,0.3,0.1c0.1,0,0.2,0,0.3,0c0.2,0,0.5-0.1,0.7-0.2c0.2-0.1,0.4-0.3,0.6-0.6
		c0.2-0.3,0.4-0.8,0.6-1.5C3,11.9,3.2,11,3.3,10c0.1-1,0.2-2.3,0.3-3.7c0.1-1.4,0.1-3.1,0.2-5h9.6v16.3h-3.2V4.2z"/>
	<polygon points="22.9,12.3 23,10.7 23,10.7 22,12.4 17.8,17.7 15.9,17.7 15.9,6 18.9,6 18.9,11.6 18.8,13.1 18.9,13.1 19.8,11.5 
		24,6 26,6 26,17.7 22.9,17.7 	"/>
	<polygon points="37.5,8.7 34.2,8.7 34.2,17.7 31.1,17.7 31.1,8.7 27.7,8.7 27.7,6 37.5,6 	"/>
	<path fill="#FF4C00" d="M39.4,1.5c0.7-0.1,1.4-0.2,2.2-0.3c0.8-0.1,1.6-0.1,2.3-0.1c0.8,0,1.6,0.1,2.4,0.2c0.8,0.1,1.6,0.4,2.2,0.8
		c0.7,0.4,1.2,0.9,1.6,1.7c0.4,0.7,0.6,1.6,0.6,2.8c0,1-0.2,1.9-0.5,2.6c-0.4,0.7-0.8,1.3-1.4,1.7c-0.6,0.5-1.3,0.8-2,1
		c-0.8,0.2-1.5,0.3-2.3,0.3h-0.4c-0.2,0-0.4,0-0.5,0c-0.2,0-0.4,0-0.5,0c-0.2,0-0.3,0-0.4,0v5.6h-3.2L39.4,1.5L39.4,1.5z M44.2,3.8
		c-0.3,0-0.6,0-0.9,0c-0.3,0-0.5,0.1-0.7,0.1v5.3c0.1,0,0.2,0,0.3,0c0.1,0,0.3,0,0.4,0c0.1,0,0.3,0,0.4,0H44c0.4,0,0.8,0,1.3-0.1
		c0.4-0.1,0.8-0.2,1.1-0.4c0.3-0.2,0.6-0.5,0.8-0.9c0.2-0.4,0.3-0.9,0.3-1.5c0-0.5-0.1-0.9-0.3-1.3c-0.2-0.3-0.4-0.6-0.7-0.8
		c-0.3-0.2-0.7-0.3-1-0.4C45,3.9,44.6,3.8,44.2,3.8"/>
	<path fill="#FF4C00" d="M61.2,16.7c-0.5,0.4-1.1,0.7-1.9,0.9c-0.8,0.3-1.7,0.4-2.6,0.4c-1.9,0-3.3-0.5-4.1-1.6
		c-0.9-1.1-1.3-2.6-1.3-4.5c0-2.1,0.5-3.6,1.5-4.6c1-1,2.4-1.5,4.1-1.5c0.6,0,1.2,0.1,1.7,0.2c0.6,0.2,1.1,0.4,1.5,0.8
		c0.4,0.4,0.8,0.8,1.1,1.4c0.3,0.6,0.4,1.4,0.4,2.3c0,0.3,0,0.7-0.1,1.1c0,0.4-0.1,0.8-0.2,1.2h-7c0,1,0.4,1.7,0.8,2.2
		c0.5,0.5,1.2,0.7,2.2,0.7c0.6,0,1.2-0.1,1.7-0.3c0.6-0.2,1.2-0.5,1.2-0.5L61.2,16.7z M56.9,8c-0.9,0-1.4,0.3-1.8,0.7
		c-0.4,0.5-0.6,1.1-0.7,1.9l4.4,0c0.1-0.8,0-1.5-0.3-1.9C58.1,8.3,57.6,8,56.9,8"/>
	<path fill="#FF4C00" d="M71.5,8.3c0,0-0.9-0.2-1.7-0.2c-2.1,0-3.4,1.2-3.4,3.8c0,2.5,1,3.7,3.2,3.7c0.7,0,2.1-0.2,2.1-0.2l0.4,2.1
		c-0.6,0.2-1.7,0.5-3,0.5c-4.2,0-5.8-3.1-5.8-6.2c0-3.2,1.8-6,6-6c0.8,0,1.7,0.1,2.6,0.3L71.5,8.3z"/>
	<path fill="#FF4C00" d="M78,7.6c0,1-0.8,1.7-1.7,1.7c-1,0-1.7-0.8-1.7-1.7c0-1,0.8-1.7,1.7-1.7C77.2,5.9,78,6.6,78,7.6"/>
	<path fill="#FF4C00" d="M78,16.1c0,1-0.8,1.7-1.7,1.7c-1,0-1.7-0.8-1.7-1.7c0-1,0.8-1.7,1.7-1.7C77.2,14.4,78,15.2,78,16.1"/>
</g>
<g>
	<path d="M84.3,5.9v3.5c0,1.3,0.5,2.3,2.2,2.3c0.8,0,1.7-0.3,2.3-0.7v-5h1.9v10.6h-1.9v-4.3h0C88,12.7,86.8,13,85.8,13
		c-2,0-3.5-1-3.5-3.5V5.9H84.3z"/>
	<path d="M95.6,5.9v4.5c0,1.7,0,2.8-0.1,4.3l0.1,0c0.6-1.3,1-2,1.7-3.3l3.3-5.5h2.3v10.6H101V12c0-1.7,0-2.6,0.1-4.4h-0.1
		c-0.7,1.4-1.1,2.2-1.8,3.3c-1,1.7-2.2,3.7-3.3,5.6h-2.2V5.9H95.6z"/>
	<path d="M113.2,5.9v1.5h-3.3v9.1h-1.9V7.4h-3.3V5.9H113.2z"/>
	<path d="M120.6,16.5l-0.2-1.3h-0.1c-0.6,0.8-1.7,1.6-3.3,1.6c-2.2,0-3.3-1.5-3.3-3.1c0-2.6,2.3-4,6.4-4V9.5c0-0.9-0.2-2.5-2.4-2.5
		c-1,0-2,0.3-2.8,0.8l-0.4-1.3c0.9-0.6,2.2-0.9,3.5-0.9c3.3,0,4,2.2,4,4.4v4c0,0.9,0,1.8,0.2,2.6H120.6z M120.3,11.1
		c-2.1,0-4.5,0.3-4.5,2.4c0,1.3,0.8,1.8,1.8,1.8c1.4,0,2.3-0.9,2.6-1.8c0.1-0.2,0.1-0.4,0.1-0.6V11.1z"/>
	<path d="M133.4,5.9v10.6h-1.9V7.4h-3.7v2.8c0,3-0.3,5-1.7,5.9c-0.5,0.4-1.1,0.7-2.1,0.7l-0.2-1.5c0.4-0.1,0.8-0.2,1.1-0.4
		c1-0.7,1.1-2.2,1.1-4.6V5.9H133.4z"/>
	<path d="M138.5,5.9v4.6h0.5l4-4.6h2.4l-4.6,4.8c1.7,0.2,2.8,1.3,3.6,3.2c0.3,0.7,0.7,1.7,1.1,2.6h-2c-0.3-0.5-0.7-1.3-1-2.2
		c-0.7-1.7-1.7-2.5-3.5-2.5h-0.4v4.7h-1.9V5.9H138.5z"/>
	<path d="M153.2,16.5l-0.2-1.3H153c-0.6,0.8-1.7,1.6-3.3,1.6c-2.2,0-3.3-1.5-3.3-3.1c0-2.6,2.3-4,6.4-4V9.5c0-0.9-0.2-2.5-2.4-2.5
		c-1,0-2,0.3-2.8,0.8l-0.4-1.3c0.9-0.6,2.2-0.9,3.5-0.9c3.3,0,4,2.2,4,4.4v4c0,0.9,0,1.8,0.2,2.6H153.2z M153,11.1
		c-2.1,0-4.5,0.3-4.5,2.4c0,1.3,0.8,1.8,1.8,1.8c1.4,0,2.3-0.9,2.6-1.8c0.1-0.2,0.1-0.4,0.1-0.6V11.1z"/>
</g>
</svg>
