<?xml version="1.0" encoding="UTF-8"?>
<svg width="124px" height="17px" viewBox="0 0 124 17" version="1.1" xmlns="http://www.w3.org/2000/svg" xmlns:xlink="http://www.w3.org/1999/xlink">
    <!-- Generator: Sketch 46.2 (44496) - http://www.bohemiancoding.com/sketch -->
    <title>reader</title>
    <desc>Created with Sketch.</desc>
    <defs></defs>
    <g id="Page-1" stroke="none" stroke-width="1" fill="none" fill-rule="evenodd">
        <g id="Лого-цвета-шрифты" transform="translate(-1142.000000, -136.000000)">
            <g id="reader" transform="translate(1142.000000, 136.000000)">
                <g id="Group-3">
                    <g id="LR_logo_eng">
                        <g>
                            <path d="M10.4564725,16.32 L0.656923077,16.32 L0.656923077,0.612 L3.68748352,0.612 L3.68748352,13.58232 L10.4564725,13.58232 L10.4564725,16.32 Z M11.5558132,5.1 L14.4315275,5.1 L14.4315275,16.32 L11.5558132,16.32 L11.5558132,5.1 Z M13.0057202,3.69852 C12.1085221,3.69852 11.3821978,2.95278666 11.3821978,2.03206666 C11.3821978,1.11134666 12.1085221,0.36516 13.0057202,0.36516 C13.9015937,0.36516 14.6288011,1.11134666 14.6288011,2.03206666 C14.6288011,2.95278666 13.9015937,3.69852 13.0057202,3.69852 Z M16.0905934,5.1 L17.6169341,5.1 L17.6169341,2.99064 L20.4926484,2.16036 L20.4926484,5.1 L23.1913956,5.1 L23.1913956,7.5684 L20.4926484,7.5684 L20.4926484,11.87688 C20.4926484,12.6548039 20.5700706,13.2120583 20.7249176,13.54866 C20.8797645,13.8852617 21.1710198,14.05356 21.5986923,14.05356 C21.8936388,14.05356 22.1480264,14.0236403 22.3618626,13.9638 C22.5756989,13.9039597 22.8153393,13.8142006 23.0807912,13.69452 L23.5895714,15.93852 C23.1913936,16.133001 22.7268598,16.2975593 22.195956,16.4322 C21.6650523,16.5668407 21.126783,16.63416 20.5811319,16.63416 C19.5635663,16.63416 18.8151508,16.3686227 18.3358626,15.83754 C17.8565745,15.3064573 17.6169341,14.4350461 17.6169341,13.22328 L17.6169341,7.5684 L16.0905934,7.5684 L16.0905934,5.1 Z" id="LitRes:-Copy" fill="#000000" fill-rule="nonzero"></path>
                            <path d="M59.1168553,8.12418664 C58.2196571,8.12418664 57.4933329,7.37845336 57.4933329,6.45773334 C57.4933329,5.53701334 58.2196571,4.79082666 59.1168553,4.79082666 C60.0127288,4.79082666 60.7399362,5.53701334 60.7399362,6.45773334 C60.7399362,7.37845336 60.0127288,8.12418664 59.1168553,8.12418664 Z" id="Fill-7" fill="#FF4C00" fill-rule="nonzero"></path>
                            <path d="M60.7399362,14.6997866 C60.7399362,15.6200534 60.0127288,16.36624 59.1168553,16.36624 C58.2196571,16.36624 57.4933329,15.6200534 57.4933329,14.6997866 C57.4933329,13.7786134 58.2196571,13.0324266 59.1168553,13.0324266 C60.0127288,13.0324266 60.7399362,13.7790666 60.7399362,14.6997866" id="Fill-8" fill="#FF4C00" fill-rule="nonzero"></path>
                            <path d="M25.0274286,0.76908 C25.3694208,0.76908 25.7316079,0.653140262 26.1224121,0.60078 C26.5132162,0.548419738 26.9040145,0.50728015 27.2948187,0.47736 C27.6856228,0.44743985 28.0653608,0.425000075 28.434044,0.41004 C28.8027271,0.395079925 29.1419105,0.3876 29.4516044,0.3876 C30.1742234,0.3876 30.8857712,0.454919327 31.5862692,0.58956 C32.2867672,0.724200673 32.9135192,0.956078354 33.466544,1.2852 C34.0195687,1.61432165 34.4619818,2.06685712 34.7937967,2.64282 C35.1256116,3.21878288 35.2915165,3.94059566 35.2915165,4.80828 C35.2915165,6.09484643 34.9965744,7.14203599 34.4066813,7.94988 C33.8167883,8.75772401 33.0278181,9.31871844 32.0397473,9.63288 C32.5212181,9.79744 32.92599,10.1534364 33.2540632,10.7008692 C34.4966914,12.7743562 35.6330074,14.6473999 36.663011,16.32 L33.1679121,16.32 C31.439289,13.2999784 30.3877486,11.4715929 30.0132909,10.8348437 C29.6388332,10.1980946 28.9870659,9.87972 28.057989,9.87972 L28.057989,16.32 L25.0274286,16.32 C25.0274286,5.95272 25.0274286,0.76908 25.0274286,0.76908 Z M29.6728132,3.12528 C29.3631193,3.12528 29.0571169,3.13275993 28.7547967,3.14772 C28.4524765,3.16268007 28.2202096,3.19259978 28.057989,3.23748 L28.057989,7.7928 L29.341,7.7928 C30.1815976,7.7928 30.8525909,7.59832197 31.354,7.20936 C31.8554091,6.82039803 32.1061099,6.17712449 32.1061099,5.27952 C32.1061099,4.60631663 31.8996504,4.0789819 31.4867253,3.6975 C31.0738001,3.31601809 30.4691688,3.12528 29.6728132,3.12528 Z M46.0643846,15.35508 C45.6219648,15.7141218 45.0210203,16.0170588 44.261533,16.2639 C43.5020456,16.5107412 42.6946417,16.63416 41.8392967,16.63416 C40.0548702,16.63416 38.7497514,16.1068253 37.9239011,15.05214 C37.0980508,13.9974547 36.6851319,12.5500892 36.6851319,10.71 C36.6851319,8.73527014 37.1496657,7.25424496 38.0787473,6.26688 C39.0078288,5.27951506 40.3129477,4.78584 41.9941429,4.78584 C42.5545413,4.78584 43.1001841,4.86063925 43.6310879,5.01024 C44.1619917,5.15984075 44.633899,5.40667828 45.0468242,5.75076 C45.4597493,6.09484172 45.7915592,6.55859708 46.0422637,7.14204 C46.2929683,7.72548292 46.4183187,8.45103565 46.4183187,9.31872 C46.4183187,9.63288156 46.3998848,9.96947823 46.3630165,10.32852 C46.3261482,10.6875618 46.2708465,11.061558 46.1971099,11.45052 L39.5608462,11.45052 C39.6050881,12.3930047 39.8447286,13.1035976 40.2797747,13.58232 C40.7148208,14.0610424 41.4189951,14.3004 42.3923187,14.3004 C42.9969591,14.3004 43.5389152,14.206901 44.0182033,14.0199 C44.4974914,13.832899 44.8624822,13.642161 45.1131868,13.44768 L46.0643846,15.35508 Z M41.9499011,7.1196 C41.1977875,7.1196 40.6410842,7.34773769 40.2797747,7.80402 C39.9184652,8.26030231 39.7009455,8.86991619 39.6272088,9.63288 L43.7416923,9.63288 C43.8006816,8.82503599 43.679018,8.20420218 43.3766978,7.77036 C43.0743776,7.33651782 42.5987834,7.1196 41.9499011,7.1196 Z M53.0324615,13.22328 C53.0324615,12.9240785 52.9071112,12.6847209 52.6564066,12.5052 C52.405702,12.3256791 52.0960128,12.1611207 51.7273297,12.01152 C51.3586465,11.8619193 50.9531011,11.7085808 50.5106813,11.5515 C50.0682615,11.3944192 49.6627161,11.1775014 49.294033,10.90074 C48.9253498,10.6239786 48.6156606,10.2724221 48.364956,9.84606 C48.1142515,9.41969789 47.9889011,8.86992333 47.9889011,8.19672 C47.9889011,7.08967449 48.3133374,6.24444292 48.9622198,5.661 C49.6111021,5.07755708 50.5475434,4.78584 51.7715714,4.78584 C52.6121691,4.78584 53.3716449,4.8755991 54.050022,5.05512 C54.728399,5.2346409 55.2592948,5.43659888 55.6427253,5.661 L55.0012198,7.77036 C54.6620313,7.63571932 54.2343652,7.49360075 53.7182088,7.344 C53.2020523,7.19439925 52.6785302,7.1196 52.1476264,7.1196 C51.2922814,7.1196 50.8646154,7.4561966 50.8646154,8.1294 C50.8646154,8.39868136 50.9899658,8.61559918 51.2406703,8.78016 C51.4913749,8.94472082 51.8010641,9.09805932 52.1697473,9.24018 C52.5384304,9.38230068 52.9439758,9.53563918 53.3863956,9.7002 C53.8288154,9.86476082 54.2343608,10.0779387 54.603044,10.33974 C54.9717271,10.6015413 55.2814163,10.9418779 55.5321209,11.36076 C55.7828254,11.7796421 55.9081758,12.3181967 55.9081758,12.97644 C55.9081758,14.1134057 55.5505585,15.0072567 54.8353132,15.65802 C54.1200679,16.3087833 53.047216,16.63416 51.6167253,16.63416 C50.835117,16.63416 50.1014485,16.533181 49.4156978,16.33122 C48.7299471,16.129259 48.1732439,15.8936414 47.7455714,15.62436 L48.5419231,13.44768 C48.8811116,13.642161 49.3308983,13.832899 49.8912967,14.0199 C50.4516951,14.206901 51.0268322,14.3004 51.6167253,14.3004 C52.0443977,14.3004 52.387268,14.2181208 52.6453462,14.05356 C52.9034244,13.8889992 53.0324615,13.612242 53.0324615,13.22328 Z" id="LitRes:-Copy" fill="#FF4C00" fill-rule="nonzero"></path>
                        </g>
                    </g>
                    <path d="M70.150119,7.1145 C69.7029792,6.9659407 69.2782028,6.89166216 68.875777,6.89166216 C68.2348766,6.89166216 67.7281258,7.06621672 67.3555093,7.41533108 C66.9828928,7.76444544 66.7518741,8.20640273 66.6624461,8.74121622 L66.6624461,16.5405405 L64.8738959,16.5405405 L64.8738959,5.39864865 L66.125881,5.39864865 L66.4612342,6.75795946 L66.5506617,6.75795946 C66.8338502,6.25285783 67.1729262,5.86289552 67.5678996,5.58806081 C67.9628731,5.3132261 68.4658978,5.17581081 69.0769888,5.17581081 C69.509224,5.17581081 69.9936181,5.25008935 70.5301859,5.39864865 L70.150119,7.1145 Z M80.6354944,15.6491892 C80.1883546,16.0057315 79.6257122,16.28799 78.9475502,16.495973 C78.2693882,16.703956 77.5502492,16.8079459 76.7901115,16.8079459 C75.9405459,16.8079459 75.2027764,16.6705307 74.5767807,16.3956959 C73.950785,16.1208612 73.4365819,15.727185 73.0341561,15.2146554 C72.6317303,14.7021258 72.3336416,14.0893279 72.139881,13.3762432 C71.9461205,12.6631586 71.8492416,11.8609504 71.8492416,10.9695946 C71.8492416,9.06803554 72.2740181,7.61960408 73.1235836,6.62425676 C73.9731492,5.62890944 75.1878607,5.13124324 76.7677546,5.13124324 C77.2745131,5.13124324 77.7812639,5.18695215 78.2880223,5.29837162 C78.7947807,5.4097911 79.249366,5.62148493 79.6517918,5.93345946 C80.0542176,6.24543399 80.3821152,6.68739128 80.6354944,7.25934459 C80.8888736,7.8312979 81.0155613,8.58522505 81.0155613,9.52114865 C81.0155613,10.0113943 80.970848,10.5536277 80.8814201,11.1478649 L73.7048625,11.1478649 C73.7048625,11.8015258 73.7719324,12.3808984 73.9060743,12.886 C74.0402163,13.3911016 74.2488784,13.8182032 74.5320669,14.1673176 C74.8152554,14.5164319 75.1841402,14.7838347 75.6387323,14.9695338 C76.0933245,15.1552329 76.6485147,15.2480811 77.3043197,15.2480811 C77.8110781,15.2480811 78.3178289,15.1589468 78.8245874,14.9806757 C79.3313458,14.8024045 79.7114089,14.5944246 79.9647881,14.3567297 L80.6354944,15.6491892 Z M76.7901115,6.69110811 C75.9107366,6.69110811 75.206502,6.92137157 74.6773866,7.38190541 C74.1482712,7.84243924 73.8315519,8.62979173 73.7272193,9.74398649 L79.2717249,9.74398649 C79.2717249,8.6149358 79.0556106,7.82386938 78.6233755,7.37076351 C78.1911403,6.91765764 77.5800585,6.69110811 76.7901115,6.69110811 Z M83.6536729,6.22314865 C84.2200499,5.88146226 84.8795712,5.62891523 85.6322565,5.4655 C86.3849418,5.30208477 87.1711508,5.22037838 87.9909071,5.22037838 C88.7659494,5.22037838 89.3882095,5.32436833 89.8577063,5.53235135 C90.3272031,5.74033437 90.6849096,6.01145103 90.9308364,6.34570946 C91.1767633,6.67996789 91.3407121,7.04764664 91.4226877,7.44875676 C91.5046634,7.84986687 91.5456506,8.25097097 91.5456506,8.65208108 C91.5456506,9.54343689 91.5232939,10.4124958 91.4785799,11.2592838 C91.4338659,12.1060718 91.4115093,12.90828 91.4115093,13.6659324 C91.4115093,14.2156018 91.4338659,14.7355516 91.4785799,15.2257973 C91.5232939,15.716043 91.6052683,16.1691421 91.7245056,16.5851081 L90.4054498,16.5851081 L89.9359554,15.0252432 L89.824171,15.0252432 C89.6900291,15.2332263 89.5223542,15.4374922 89.3211413,15.6380473 C89.1199284,15.8386024 88.8777313,16.0168708 88.5945428,16.1728581 C88.3113542,16.3288454 87.9834566,16.4588328 87.6108401,16.5628243 C87.2382237,16.6668158 86.8134472,16.7188108 86.3364981,16.7188108 C85.859549,16.7188108 85.4161421,16.6445323 85.0062639,16.495973 C84.5963858,16.3474137 84.2424055,16.1357198 83.9443123,15.8608851 C83.6462191,15.5860504 83.4114742,15.2555109 83.2400706,14.8692568 C83.068667,14.4830026 82.9829665,14.0447592 82.9829665,13.5545135 C82.9829665,12.9008526 83.1171065,12.3549053 83.3853903,11.9166554 C83.6536742,11.4784055 84.0300112,11.1292963 84.5144126,10.8693176 C84.9988141,10.6093388 85.5800871,10.4236424 86.2582491,10.312223 C86.9364111,10.2008035 87.685359,10.1450946 88.5051152,10.1450946 L89.1199294,10.1450946 C89.3211423,10.1450946 89.5260783,10.1599503 89.7347435,10.1896622 C89.7794575,9.74398426 89.8018141,9.34288016 89.8018141,8.98633784 C89.8018141,8.16926168 89.6378653,7.59731695 89.3099628,7.27048649 C88.9820603,6.94365602 88.3858829,6.78024324 87.5214126,6.78024324 C87.2680334,6.78024324 86.9960275,6.79881288 86.7053866,6.8359527 C86.4147458,6.87309253 86.116657,6.9250875 85.8111115,6.99193919 C85.505566,7.05879087 85.2149295,7.14049726 84.9391933,7.23706081 C84.6634571,7.33362436 84.42126,7.44132823 84.2125948,7.56017568 L83.6536729,6.22314865 Z M86.8283494,15.1589459 C87.2456799,15.1589459 87.6182908,15.103237 87.9461933,14.9918176 C88.2740958,14.8803981 88.5572801,14.7392689 88.7957546,14.5684257 C89.0342292,14.3975825 89.231713,14.2081722 89.3882119,14.0001892 C89.5447108,13.7922062 89.6602202,13.5916541 89.7347435,13.398527 L89.7347435,11.548973 C89.5260783,11.534117 89.3136901,11.5229753 89.0975725,11.5155473 C88.8814549,11.5081193 88.6690667,11.5044054 88.4604015,11.5044054 C87.998357,11.5044054 87.5474979,11.5304029 87.1078104,11.5823986 C86.668123,11.6343944 86.2806076,11.7309565 85.9452528,11.8720878 C85.609898,12.0132192 85.3416181,12.2063434 85.1404052,12.4514662 C84.9391923,12.6965891 84.8385874,13.004845 84.8385874,13.3762432 C84.8385874,13.8962008 85.0248928,14.3233024 85.3975093,14.6575608 C85.7701258,14.9918192 86.2470677,15.1589459 86.8283494,15.1589459 Z M103.50658,12.7077297 C103.50658,13.4653822 103.514032,14.1524586 103.528937,14.7689797 C103.543841,15.3855008 103.610911,15.9908709 103.730149,16.5851081 L102.522877,16.5851081 L102.07574,15.0029595 L101.986312,15.0029595 C101.688219,15.522917 101.25599,15.9537325 100.689613,16.2954189 C100.123236,16.6371053 99.4599889,16.8079459 98.6998513,16.8079459 C97.2093854,16.8079459 96.102731,16.3399912 95.379855,15.4040676 C94.656979,14.468144 94.2955465,13.0048568 94.2955465,11.0141622 C94.2955465,9.1126031 94.7464057,7.66788557 95.6481375,6.67996622 C96.5498694,5.69204686 97.7906637,5.19809459 99.3705576,5.19809459 C99.92203,5.19809459 100.357985,5.22780601 100.678435,5.28722973 C100.998885,5.34665345 101.345413,5.44321555 101.71803,5.57691892 L101.71803,0.941891892 L103.50658,0.941891892 L103.50658,12.7077297 Z M98.9904907,15.2480811 C99.7506283,15.2480811 100.354258,15.051243 100.801398,14.6575608 C101.248538,14.2638787 101.554078,13.6659364 101.71803,12.8637162 L101.71803,7.33733784 C101.449746,7.12935482 101.144205,6.98079774 100.801398,6.89166216 C100.458591,6.80252658 100.004005,6.75795946 99.4376283,6.75795946 C98.4092068,6.75795946 97.6043672,7.0959268 97.0230855,7.77187162 C96.4418038,8.44781644 96.1511673,9.52856915 96.1511673,11.0141622 C96.1511673,11.6232553 96.1996067,12.1877722 96.296487,12.7077297 C96.3933673,13.2276873 96.55359,13.6733585 96.7771599,14.0447568 C97.0007297,14.416155 97.2950924,14.7095552 97.6602565,14.9249662 C98.0254207,15.1403772 98.4688276,15.2480811 98.9904907,15.2480811 Z M115.109799,15.6491892 C114.662659,16.0057315 114.100017,16.28799 113.421855,16.495973 C112.743693,16.703956 112.024554,16.8079459 111.264416,16.8079459 C110.414851,16.8079459 109.677081,16.6705307 109.051086,16.3956959 C108.42509,16.1208612 107.910887,15.727185 107.508461,15.2146554 C107.106035,14.7021258 106.807946,14.0893279 106.614186,13.3762432 C106.420425,12.6631586 106.323546,11.8609504 106.323546,10.9695946 C106.323546,9.06803554 106.748323,7.61960408 107.597888,6.62425676 C108.447454,5.62890944 109.662166,5.13124324 111.242059,5.13124324 C111.748818,5.13124324 112.255569,5.18695215 112.762327,5.29837162 C113.269086,5.4097911 113.723671,5.62148493 114.126097,5.93345946 C114.528522,6.24543399 114.85642,6.68739128 115.109799,7.25934459 C115.363178,7.8312979 115.489866,8.58522505 115.489866,9.52114865 C115.489866,10.0113943 115.445153,10.5536277 115.355725,11.1478649 L108.179167,11.1478649 C108.179167,11.8015258 108.246237,12.3808984 108.380379,12.886 C108.514521,13.3911016 108.723183,13.8182032 109.006372,14.1673176 C109.28956,14.5164319 109.658445,14.7838347 110.113037,14.9695338 C110.567629,15.1552329 111.12282,15.2480811 111.778625,15.2480811 C112.285383,15.2480811 112.792134,15.1589468 113.298892,14.9806757 C113.805651,14.8024045 114.185714,14.5944246 114.439093,14.3567297 L115.109799,15.6491892 Z M111.264416,6.69110811 C110.385041,6.69110811 109.680807,6.92137157 109.151691,7.38190541 C108.622576,7.84243924 108.305857,8.62979173 108.201524,9.74398649 L113.74603,9.74398649 C113.74603,8.6149358 113.529915,7.82386938 113.09768,7.37076351 C112.665445,6.91765764 112.054363,6.69110811 111.264416,6.69110811 Z M123.583056,7.1145 C123.135916,6.9659407 122.71114,6.89166216 122.308714,6.89166216 C121.667813,6.89166216 121.161063,7.06621672 120.788446,7.41533108 C120.41583,7.76444544 120.184811,8.20640273 120.095383,8.74121622 L120.095383,16.5405405 L118.306833,16.5405405 L118.306833,5.39864865 L119.558818,5.39864865 L119.894171,6.75795946 L119.983599,6.75795946 C120.266787,6.25285783 120.605863,5.86289552 121.000836,5.58806081 C121.39581,5.3132261 121.898835,5.17581081 122.509926,5.17581081 C122.942161,5.17581081 123.426555,5.25008935 123.963123,5.39864865 L123.583056,7.1145 Z" id="reader" fill="#000000"></path>
                </g>
            </g>
        </g>
    </g>
</svg>