<?xml version="1.0" encoding="UTF-8" standalone="no"?>
<svg width="306px" height="204px" viewBox="0 0 306 204" version="1.1" xmlns="http://www.w3.org/2000/svg" xmlns:xlink="http://www.w3.org/1999/xlink" xmlns:sketch="http://www.bohemiancoding.com/sketch/ns">
    <!-- Generator: Sketch 3.3 (11970) - http://www.bohemiancoding.com/sketch -->
    <title>aldebaran_topmenu</title>
    <desc>Created with Sketch.</desc>
    <defs></defs>
    <g id="Page-1" stroke="none" stroke-width="1" fill="none" fill-rule="evenodd" sketch:type="MSPage">
        <g id="aldebaran_topmenu" sketch:type="MSArtboardGroup">
            <path d="M297,8 L292,8 L292,9 L297,9 L297,13 L298,13 L298,8 L297,8 Z M297,25 L292,25 L292,26 L298,26 L298,21 L297,21 L297,25 Z M281,21 L280,21 L280,26 L286,26 L286,25 L281,25 L281,21 Z M281,9 L286,9 L286,8 L280,8 L280,13 L281,13 L281,9 Z M282,24 L296,24 L296,10 L282,10 L282,24 Z M283,11 L295,11 L295,23 L283,23 L283,11 Z" id="Fill-1" fill="#3B393F" sketch:type="MSShapeGroup"></path>
            <path d="M263,8 L258,8 L258,9 L263,9 L263,13 L264,13 L264,8 L263,8 Z M258,25 L258,26 L264,26 L264,21 L263,21 L263,25 L258,25 Z M247,21 L246,21 L246,26 L252,26 L252,25 L247,25 L247,21 Z M252,9 L252,8 L246,8 L246,13 L247,13 L247,9 L252,9 Z M249,20 L261,20 L261,14 L249,14 L249,20 Z M250,15 L260,15 L260,19 L250,19 L250,15 Z" id="Fill-1" fill="#3B393F" sketch:type="MSShapeGroup"></path>
            <path d="M117.66,24.8815 L117.32,24.745 C115.581,24.083 112.742,23.739 110.832,23.739 C110.256,23.739 109.697,23.774 108.681,23.836 L108,23.877 L108,10 L109,10 L109,22.814 C109.783,22.766 110.307,22.738 110.833,22.738 C112.834,22.738 115.825,23.105 117.667,23.806 L117.917,23.895 L121.152,23.895 L121.41,23.802 C123.33,23.072 126.261,22.738 128.168,22.738 C128.694,22.738 129.218,22.766 130,22.814 L130,10 L131,10 L131,23.878 L130.316,23.836 C129.302,23.774 128.743,23.739 128.168,23.739 C126.292,23.739 123.488,24.083 121.757,24.741 L121.326,24.896 L117.66,24.8815 Z M119.584,22.864 L119.342,22.73 C117.411,21.662 114.794,21.023 112.342,21.023 C111.792,21.023 111.246,21.059 110.542,21.117 L110,21.163 L110,8.136 L110.458,8.098 C111.22,8.035 111.78,8 112,8 C114.802,8 117.481,8.603 119.583,9.701 C121.704,8.587 124.262,8 127,8 C127.22,8 127.78,8.035 128.542,8.098 L129,8.136 L129,21.162 L128.459,21.118 C127.754,21.06 127.208,21.024 126.659,21.024 C124.242,21.024 121.815,21.63 119.826,22.731 L119.584,22.864 L119.584,22.864 Z M112.341,20.024 C114.654,20.024 117.112,20.56 119.084,21.479 L119.084,10.569 C117.129,9.556 114.627,9.001 112,9.001 C111.839,9.001 111.485,9.022 111,9.059 L111,20.08 C111.486,20.044 111.91,20.024 112.341,20.024 L112.341,20.024 Z M120.084,10.567 L120.084,21.475 C122.065,20.536 124.368,20.024 126.659,20.024 C127.09,20.024 127.514,20.045 128,20.079 L128,9.058 C127.515,9.021 127.161,9 127,9 C124.439,9 122.055,9.541 120.084,10.567 L120.084,10.567 Z" id="Imported-Layers" fill="#3B393F" sketch:type="MSShapeGroup"></path>
            <path d="M191.025126,21.232233 L191.732233,20.5251263 L195.974874,24.767767 L195.267767,25.4748737 L191.025126,21.232233 L191.025126,21.232233 Z M186,23 L186,23 C189.865993,23 193,19.8659932 193,16 C193,12.1340068 189.865993,9 186,9 C182.134007,9 179,12.1340068 179,16 C179,19.8659932 182.134007,23 186,23 L186,23 L186,23 Z M186,24 L186,24 C181.581722,24 178,20.418278 178,16 C178,11.581722 181.581722,8 186,8 C190.418278,8 194,11.581722 194,16 C194,20.418278 190.418278,24 186,24 L186,24 L186,24 Z M185.647949,18.8828125 L186.716797,18.8828125 L186.716797,20 L185.647949,20 L185.647949,18.8828125 Z M184.493164,12.7141113 C184.930015,12.2432431 185.529781,12.0078125 186.29248,12.0078125 C186.997888,12.0078125 187.562742,12.2092265 187.987061,12.6120605 C188.411379,13.0148946 188.623535,13.5296193 188.623535,14.15625 C188.623535,14.5358092 188.545655,14.8437488 188.389893,15.0800781 C188.23413,15.3164074 187.919924,15.6637347 187.447266,16.1220703 C187.103514,16.4550798 186.880616,16.7370594 186.778564,16.9680176 C186.676513,17.1989758 186.625488,17.5400368 186.625488,17.9912109 L185.669434,17.9912109 C185.669434,17.4791641 185.730305,17.0664892 185.852051,16.7531738 C185.973796,16.4398585 186.240558,16.080894 186.652344,15.6762695 L187.082031,15.2519531 C187.210938,15.1302077 187.314778,15.0030931 187.393555,14.8706055 C187.536785,14.6378569 187.608398,14.3961601 187.608398,14.1455078 C187.608398,13.7945946 187.503663,13.4902357 187.294189,13.2324219 C187.084716,12.9746081 186.738284,12.8457031 186.254883,12.8457031 C185.656898,12.8457031 185.243328,13.0677061 185.01416,13.5117188 C184.885253,13.7587903 184.811849,14.1150693 184.793945,14.5805664 L183.837891,14.5805664 C183.837891,13.807125 184.056313,13.1849796 184.493164,12.7141113 L184.493164,12.7141113 Z" id="Shape" fill="#3B393F" sketch:type="MSShapeGroup"></path>
            <path d="M58.5805009,13.9214822 L57.5086328,12.0651857 L54.974631,12.7860761 L52.6776699,11.4620813 L52.0414078,8.99685016 L49.8580009,8.98778417 L49.1222865,11.4709744 L46.8557148,12.7774523 L44.3391577,12.1246097 L43.2641596,13.9650526 L45.1230769,15.7074068 L45.1230769,18.3633276 L43.3435279,20.1548989 L44.4102318,22.0220882 L46.9330613,21.3043762 L49.2100546,22.6168612 L49.9500008,25 L52.1569248,24.9860239 L52.8822531,22.6168612 L55.1442852,21.313 L57.6680998,21.9626211 L58.7419556,20.1871281 L56.7846154,18.3890062 L56.7846154,15.7335441 L58.5805009,13.9214822 Z M57.7846154,16.1407035 L57.7846154,17.9497487 L60,19.9849246 L58.1538462,23.1055276 L55.2923077,22.3819095 L53.7230769,23.2864322 L52.8923077,26 L49.2,26 L48.3692308,23.2864322 L46.8,22.3819095 L43.9384615,23.1959799 L42.0923077,19.9849246 L44.1230769,17.9497487 L44.1230769,16.1407035 L42,14.1507538 L43.8461538,10.9849246 L46.7076923,11.7085427 L48.2769231,10.8040201 L49.1076923,8 L52.8,8 L53.5384615,10.8040201 L55.1076923,11.7085427 L57.9692308,10.8944724 L59.8153846,14.0603015 L57.7846154,16.1407035 Z M51.01221,21 C48.8237892,21 46.9960691,19.1820609 46.9960691,17 C46.9960691,14.8179391 48.8237892,13 51.01221,13 C53.2006307,13 55.0283509,14.8179391 55.0283509,17 C55.0283509,19.1820609 53.2006307,21 51.01221,21 Z M51.01221,20 C52.6495436,20 54.0283509,18.6285714 54.0283509,17 C54.0283509,15.3714286 52.6495436,14 51.01221,14 C49.3748763,14 47.9960691,15.3714286 47.9960691,17 C47.9960691,18.6285714 49.3748763,20 51.01221,20 Z" id="Shape" fill="#3B393F" sketch:type="MSShapeGroup"></path>
            <path d="M297,42 L292,42 L292,43 L297,43 L297,47 L298,47 L298,42 L297,42 Z M297,59 L292,59 L292,60 L298,60 L298,55 L297,55 L297,59 Z M281,55 L280,55 L280,60 L286,60 L286,59 L281,59 L281,55 Z M281,43 L286,43 L286,42 L280,42 L280,47 L281,47 L281,43 Z M282,58 L296,58 L296,44 L282,44 L282,58 Z M283,45 L295,45 L295,57 L283,57 L283,45 Z" id="Fill-1-Copy" fill="#FF1A74" sketch:type="MSShapeGroup"></path>
            <path d="M263,42 L258,42 L258,43 L263,43 L263,47 L264,47 L264,42 L263,42 Z M258,59 L258,60 L264,60 L264,55 L263,55 L263,59 L258,59 Z M247,55 L246,55 L246,60 L252,60 L252,59 L247,59 L247,55 Z M252,43 L252,42 L246,42 L246,47 L247,47 L247,43 L252,43 Z M249,54 L261,54 L261,48 L249,48 L249,54 Z M250,49 L260,49 L260,53 L250,53 L250,49 Z" id="Fill-1-Copy-2" fill="#FF1A74" sketch:type="MSShapeGroup"></path>
            <path d="M117.66,58.8815 L117.32,58.745 C115.581,58.083 112.742,57.739 110.832,57.739 C110.256,57.739 109.697,57.774 108.681,57.836 L108,57.877 L108,44 L109,44 L109,56.814 C109.783,56.766 110.307,56.738 110.833,56.738 C112.834,56.738 115.825,57.105 117.667,57.806 L117.917,57.895 L121.152,57.895 L121.41,57.802 C123.33,57.072 126.261,56.738 128.168,56.738 C128.694,56.738 129.218,56.766 130,56.814 L130,44 L131,44 L131,57.878 L130.316,57.836 C129.302,57.774 128.743,57.739 128.168,57.739 C126.292,57.739 123.488,58.083 121.757,58.741 L121.326,58.896 L117.66,58.8815 Z M119.584,56.864 L119.342,56.73 C117.411,55.662 114.794,55.023 112.342,55.023 C111.792,55.023 111.246,55.059 110.542,55.117 L110,55.163 L110,42.136 L110.458,42.098 C111.22,42.035 111.78,42 112,42 C114.802,42 117.481,42.603 119.583,43.701 C121.704,42.587 124.262,42 127,42 C127.22,42 127.78,42.035 128.542,42.098 L129,42.136 L129,55.162 L128.459,55.118 C127.754,55.06 127.208,55.024 126.659,55.024 C124.242,55.024 121.815,55.63 119.826,56.731 L119.584,56.864 L119.584,56.864 Z M112.341,54.024 C114.654,54.024 117.112,54.56 119.084,55.479 L119.084,44.569 C117.129,43.556 114.627,43.001 112,43.001 C111.839,43.001 111.485,43.022 111,43.059 L111,54.08 C111.486,54.044 111.91,54.024 112.341,54.024 L112.341,54.024 Z M120.084,44.567 L120.084,55.475 C122.065,54.536 124.368,54.024 126.659,54.024 C127.09,54.024 127.514,54.045 128,54.079 L128,43.058 C127.515,43.021 127.161,43 127,43 C124.439,43 122.055,43.541 120.084,44.567 L120.084,44.567 Z" id="Imported-Layers-Copy" fill="#FF1A74" sketch:type="MSShapeGroup"></path>
            <path d="M191.025126,55.232233 L191.732233,54.5251263 L195.974874,58.767767 L195.267767,59.4748737 L191.025126,55.232233 L191.025126,55.232233 Z M186,57 L186,57 C189.865993,57 193,53.8659932 193,50 C193,46.1340068 189.865993,43 186,43 C182.134007,43 179,46.1340068 179,50 C179,53.8659932 182.134007,57 186,57 L186,57 L186,57 Z M186,58 L186,58 C181.581722,58 178,54.418278 178,50 C178,45.581722 181.581722,42 186,42 C190.418278,42 194,45.581722 194,50 C194,54.418278 190.418278,58 186,58 L186,58 L186,58 Z M185.647949,52.8828125 L186.716797,52.8828125 L186.716797,54 L185.647949,54 L185.647949,52.8828125 Z M184.493164,46.7141113 C184.930015,46.2432431 185.529781,46.0078125 186.29248,46.0078125 C186.997888,46.0078125 187.562742,46.2092265 187.987061,46.6120605 C188.411379,47.0148946 188.623535,47.5296193 188.623535,48.15625 C188.623535,48.5358092 188.545655,48.8437488 188.389893,49.0800781 C188.23413,49.3164074 187.919924,49.6637347 187.447266,50.1220703 C187.103514,50.4550798 186.880616,50.7370594 186.778564,50.9680176 C186.676513,51.1989758 186.625488,51.5400368 186.625488,51.9912109 L185.669434,51.9912109 C185.669434,51.4791641 185.730305,51.0664892 185.852051,50.7531738 C185.973796,50.4398585 186.240558,50.080894 186.652344,49.6762695 L187.082031,49.2519531 C187.210938,49.1302077 187.314778,49.0030931 187.393555,48.8706055 C187.536785,48.6378569 187.608398,48.3961601 187.608398,48.1455078 C187.608398,47.7945946 187.503663,47.4902357 187.294189,47.2324219 C187.084716,46.9746081 186.738284,46.8457031 186.254883,46.8457031 C185.656898,46.8457031 185.243328,47.0677061 185.01416,47.5117188 C184.885253,47.7587903 184.811849,48.1150693 184.793945,48.5805664 L183.837891,48.5805664 C183.837891,47.807125 184.056313,47.1849796 184.493164,46.7141113 L184.493164,46.7141113 Z" id="Shape-Copy" fill="#FF1A74" sketch:type="MSShapeGroup"></path>
            <path d="M58.5805009,47.9214822 L57.5086328,46.0651857 L54.974631,46.7860761 L52.6776699,45.4620813 L52.0414078,42.9968502 L49.8580009,42.9877842 L49.1222865,45.4709744 L46.8557148,46.7774523 L44.3391577,46.1246097 L43.2641596,47.9650526 L45.1230769,49.7074068 L45.1230769,52.3633276 L43.3435279,54.1548989 L44.4102318,56.0220882 L46.9330613,55.3043762 L49.2100546,56.6168612 L49.9500008,59 L52.1569248,58.9860239 L52.8822531,56.6168612 L55.1442852,55.313 L57.6680998,55.9626211 L58.7419556,54.1871281 L56.7846154,52.3890062 L56.7846154,49.7335441 L58.5805009,47.9214822 Z M57.7846154,50.1407035 L57.7846154,51.9497487 L60,53.9849246 L58.1538462,57.1055276 L55.2923077,56.3819095 L53.7230769,57.2864322 L52.8923077,60 L49.2,60 L48.3692308,57.2864322 L46.8,56.3819095 L43.9384615,57.1959799 L42.0923077,53.9849246 L44.1230769,51.9497487 L44.1230769,50.1407035 L42,48.1507538 L43.8461538,44.9849246 L46.7076923,45.7085427 L48.2769231,44.8040201 L49.1076923,42 L52.8,42 L53.5384615,44.8040201 L55.1076923,45.7085427 L57.9692308,44.8944724 L59.8153846,48.0603015 L57.7846154,50.1407035 Z M51.01221,55 C48.8237892,55 46.9960691,53.1820609 46.9960691,51 C46.9960691,48.8179391 48.8237892,47 51.01221,47 C53.2006307,47 55.0283509,48.8179391 55.0283509,51 C55.0283509,53.1820609 53.2006307,55 51.01221,55 Z M51.01221,54 C52.6495436,54 54.0283509,52.6285714 54.0283509,51 C54.0283509,49.3714286 52.6495436,48 51.01221,48 C49.3748763,48 47.9960691,49.3714286 47.9960691,51 C47.9960691,52.6285714 49.3748763,54 51.01221,54 Z" id="Shape-Copy-2" fill="#FF1A74" sketch:type="MSShapeGroup"></path>
            <path d="M297,76 L292,76 L292,77 L297,77 L297,81 L298,81 L298,76 L297,76 Z M297,93 L292,93 L292,94 L298,94 L298,89 L297,89 L297,93 Z M281,89 L280,89 L280,94 L286,94 L286,93 L281,93 L281,89 Z M281,77 L286,77 L286,76 L280,76 L280,81 L281,81 L281,77 Z M282,92 L296,92 L296,78 L282,78 L282,92 Z M283,79 L295,79 L295,91 L283,91 L283,79 Z" id="Fill-1-Copy-5" opacity="0.7" fill="#3B393F" sketch:type="MSShapeGroup"></path>
            <path d="M263,76 L258,76 L258,77 L263,77 L263,81 L264,81 L264,76 L263,76 Z M258,93 L258,94 L264,94 L264,89 L263,89 L263,93 L258,93 Z M247,89 L246,89 L246,94 L252,94 L252,93 L247,93 L247,89 Z M252,77 L252,76 L246,76 L246,81 L247,81 L247,77 L252,77 Z M249,88 L261,88 L261,82 L249,82 L249,88 Z M250,83 L260,83 L260,87 L250,87 L250,83 Z" id="Fill-1-Copy-6" opacity="0.7" fill="#3B393F" sketch:type="MSShapeGroup"></path>
            <path d="M117.66,92.8815 L117.32,92.745 C115.581,92.083 112.742,91.739 110.832,91.739 C110.256,91.739 109.697,91.774 108.681,91.836 L108,91.877 L108,78 L109,78 L109,90.814 C109.783,90.766 110.307,90.738 110.833,90.738 C112.834,90.738 115.825,91.105 117.667,91.806 L117.917,91.895 L121.152,91.895 L121.41,91.802 C123.33,91.072 126.261,90.738 128.168,90.738 C128.694,90.738 129.218,90.766 130,90.814 L130,78 L131,78 L131,91.878 L130.316,91.836 C129.302,91.774 128.743,91.739 128.168,91.739 C126.292,91.739 123.488,92.083 121.757,92.741 L121.326,92.896 L117.66,92.8815 Z M119.584,90.864 L119.342,90.73 C117.411,89.662 114.794,89.023 112.342,89.023 C111.792,89.023 111.246,89.059 110.542,89.117 L110,89.163 L110,76.136 L110.458,76.098 C111.22,76.035 111.78,76 112,76 C114.802,76 117.481,76.603 119.583,77.701 C121.704,76.587 124.262,76 127,76 C127.22,76 127.78,76.035 128.542,76.098 L129,76.136 L129,89.162 L128.459,89.118 C127.754,89.06 127.208,89.024 126.659,89.024 C124.242,89.024 121.815,89.63 119.826,90.731 L119.584,90.864 L119.584,90.864 Z M112.341,88.024 C114.654,88.024 117.112,88.56 119.084,89.479 L119.084,78.569 C117.129,77.556 114.627,77.001 112,77.001 C111.839,77.001 111.485,77.022 111,77.059 L111,88.08 C111.486,88.044 111.91,88.024 112.341,88.024 L112.341,88.024 Z M120.084,78.567 L120.084,89.475 C122.065,88.536 124.368,88.024 126.659,88.024 C127.09,88.024 127.514,88.045 128,88.079 L128,77.058 C127.515,77.021 127.161,77 127,77 C124.439,77 122.055,77.541 120.084,78.567 L120.084,78.567 Z" id="Imported-Layers-Copy-2" opacity="0.7" fill="#3B393F" sketch:type="MSShapeGroup"></path>
            <path d="M191.025126,89.232233 L191.732233,88.5251263 L195.974874,92.767767 L195.267767,93.4748737 L191.025126,89.232233 L191.025126,89.232233 Z M186,91 L186,91 C189.865993,91 193,87.8659932 193,84 C193,80.1340068 189.865993,77 186,77 C182.134007,77 179,80.1340068 179,84 C179,87.8659932 182.134007,91 186,91 L186,91 L186,91 Z M186,92 L186,92 C181.581722,92 178,88.418278 178,84 C178,79.581722 181.581722,76 186,76 C190.418278,76 194,79.581722 194,84 C194,88.418278 190.418278,92 186,92 L186,92 L186,92 Z M185.647949,86.8828125 L186.716797,86.8828125 L186.716797,88 L185.647949,88 L185.647949,86.8828125 Z M184.493164,80.7141113 C184.930015,80.2432431 185.529781,80.0078125 186.29248,80.0078125 C186.997888,80.0078125 187.562742,80.2092265 187.987061,80.6120605 C188.411379,81.0148946 188.623535,81.5296193 188.623535,82.15625 C188.623535,82.5358092 188.545655,82.8437488 188.389893,83.0800781 C188.23413,83.3164074 187.919924,83.6637347 187.447266,84.1220703 C187.103514,84.4550798 186.880616,84.7370594 186.778564,84.9680176 C186.676513,85.1989758 186.625488,85.5400368 186.625488,85.9912109 L185.669434,85.9912109 C185.669434,85.4791641 185.730305,85.0664892 185.852051,84.7531738 C185.973796,84.4398585 186.240558,84.080894 186.652344,83.6762695 L187.082031,83.2519531 C187.210938,83.1302077 187.314778,83.0030931 187.393555,82.8706055 C187.536785,82.6378569 187.608398,82.3961601 187.608398,82.1455078 C187.608398,81.7945946 187.503663,81.4902357 187.294189,81.2324219 C187.084716,80.9746081 186.738284,80.8457031 186.254883,80.8457031 C185.656898,80.8457031 185.243328,81.0677061 185.01416,81.5117188 C184.885253,81.7587903 184.811849,82.1150693 184.793945,82.5805664 L183.837891,82.5805664 C183.837891,81.807125 184.056313,81.1849796 184.493164,80.7141113 L184.493164,80.7141113 Z" id="Shape-Copy-4" opacity="0.7" fill="#3B393F" sketch:type="MSShapeGroup"></path>
            <path d="M58.5805009,81.9214822 L57.5086328,80.0651857 L54.974631,80.7860761 L52.6776699,79.4620813 L52.0414078,76.9968502 L49.8580009,76.9877842 L49.1222865,79.4709744 L46.8557148,80.7774523 L44.3391577,80.1246097 L43.2641596,81.9650526 L45.1230769,83.7074068 L45.1230769,86.3633276 L43.3435279,88.1548989 L44.4102318,90.0220882 L46.9330613,89.3043762 L49.2100546,90.6168612 L49.9500008,93 L52.1569248,92.9860239 L52.8822531,90.6168612 L55.1442852,89.313 L57.6680998,89.9626211 L58.7419556,88.1871281 L56.7846154,86.3890062 L56.7846154,83.7335441 L58.5805009,81.9214822 Z M57.7846154,84.1407035 L57.7846154,85.9497487 L60,87.9849246 L58.1538462,91.1055276 L55.2923077,90.3819095 L53.7230769,91.2864322 L52.8923077,94 L49.2,94 L48.3692308,91.2864322 L46.8,90.3819095 L43.9384615,91.1959799 L42.0923077,87.9849246 L44.1230769,85.9497487 L44.1230769,84.1407035 L42,82.1507538 L43.8461538,78.9849246 L46.7076923,79.7085427 L48.2769231,78.8040201 L49.1076923,76 L52.8,76 L53.5384615,78.8040201 L55.1076923,79.7085427 L57.9692308,78.8944724 L59.8153846,82.0603015 L57.7846154,84.1407035 Z M51.01221,89 C48.8237892,89 46.9960691,87.1820609 46.9960691,85 C46.9960691,82.8179391 48.8237892,81 51.01221,81 C53.2006307,81 55.0283509,82.8179391 55.0283509,85 C55.0283509,87.1820609 53.2006307,89 51.01221,89 Z M51.01221,88 C52.6495436,88 54.0283509,86.6285714 54.0283509,85 C54.0283509,83.3714286 52.6495436,82 51.01221,82 C49.3748763,82 47.9960691,83.3714286 47.9960691,85 C47.9960691,86.6285714 49.3748763,88 51.01221,88 Z" id="Shape-Copy-5" opacity="0.7" fill="#3B393F" sketch:type="MSShapeGroup"></path>
            <path d="M297,110 L292,110 L292,111 L297,111 L297,115 L298,115 L298,110 L297,110 Z M297,127 L292,127 L292,128 L298,128 L298,123 L297,123 L297,127 Z M281,123 L280,123 L280,128 L286,128 L286,127 L281,127 L281,123 Z M281,111 L286,111 L286,110 L280,110 L280,115 L281,115 L281,111 Z M282,126 L296,126 L296,112 L282,112 L282,126 Z M283,113 L295,113 L295,125 L283,125 L283,113 Z" id="Fill-1-Copy-9" opacity="0.7" fill="#FF1A74" sketch:type="MSShapeGroup"></path>
            <path d="M263,110 L258,110 L258,111 L263,111 L263,115 L264,115 L264,110 L263,110 Z M258,127 L258,128 L264,128 L264,123 L263,123 L263,127 L258,127 Z M247,123 L246,123 L246,128 L252,128 L252,127 L247,127 L247,123 Z M252,111 L252,110 L246,110 L246,115 L247,115 L247,111 L252,111 Z M249,122 L261,122 L261,116 L249,116 L249,122 Z M250,117 L260,117 L260,121 L250,121 L250,117 Z" id="Fill-1-Copy-10" opacity="0.7" fill="#FF1A74" sketch:type="MSShapeGroup"></path>
            <path d="M117.66,126.8815 L117.32,126.745 C115.581,126.083 112.742,125.739 110.832,125.739 C110.256,125.739 109.697,125.774 108.681,125.836 L108,125.877 L108,112 L109,112 L109,124.814 C109.783,124.766 110.307,124.738 110.833,124.738 C112.834,124.738 115.825,125.105 117.667,125.806 L117.917,125.895 L121.152,125.895 L121.41,125.802 C123.33,125.072 126.261,124.738 128.168,124.738 C128.694,124.738 129.218,124.766 130,124.814 L130,112 L131,112 L131,125.878 L130.316,125.836 C129.302,125.774 128.743,125.739 128.168,125.739 C126.292,125.739 123.488,126.083 121.757,126.741 L121.326,126.896 L117.66,126.8815 Z M119.584,124.864 L119.342,124.73 C117.411,123.662 114.794,123.023 112.342,123.023 C111.792,123.023 111.246,123.059 110.542,123.117 L110,123.163 L110,110.136 L110.458,110.098 C111.22,110.035 111.78,110 112,110 C114.802,110 117.481,110.603 119.583,111.701 C121.704,110.587 124.262,110 127,110 C127.22,110 127.78,110.035 128.542,110.098 L129,110.136 L129,123.162 L128.459,123.118 C127.754,123.06 127.208,123.024 126.659,123.024 C124.242,123.024 121.815,123.63 119.826,124.731 L119.584,124.864 L119.584,124.864 Z M112.341,122.024 C114.654,122.024 117.112,122.56 119.084,123.479 L119.084,112.569 C117.129,111.556 114.627,111.001 112,111.001 C111.839,111.001 111.485,111.022 111,111.059 L111,122.08 C111.486,122.044 111.91,122.024 112.341,122.024 L112.341,122.024 Z M120.084,112.567 L120.084,123.475 C122.065,122.536 124.368,122.024 126.659,122.024 C127.09,122.024 127.514,122.045 128,122.079 L128,111.058 C127.515,111.021 127.161,111 127,111 C124.439,111 122.055,111.541 120.084,112.567 L120.084,112.567 Z" id="Imported-Layers-Copy-3" opacity="0.7" fill="#FF1A74" sketch:type="MSShapeGroup"></path>
            <path d="M191.025126,123.232233 L191.732233,122.525126 L195.974874,126.767767 L195.267767,127.474874 L191.025126,123.232233 L191.025126,123.232233 Z M186,125 L186,125 C189.865993,125 193,121.865993 193,118 C193,114.134007 189.865993,111 186,111 C182.134007,111 179,114.134007 179,118 C179,121.865993 182.134007,125 186,125 L186,125 L186,125 Z M186,126 L186,126 C181.581722,126 178,122.418278 178,118 C178,113.581722 181.581722,110 186,110 C190.418278,110 194,113.581722 194,118 C194,122.418278 190.418278,126 186,126 L186,126 L186,126 Z M185.647949,120.882812 L186.716797,120.882812 L186.716797,122 L185.647949,122 L185.647949,120.882812 Z M184.493164,114.714111 C184.930015,114.243243 185.529781,114.007812 186.29248,114.007812 C186.997888,114.007812 187.562742,114.209227 187.987061,114.612061 C188.411379,115.014895 188.623535,115.529619 188.623535,116.15625 C188.623535,116.535809 188.545655,116.843749 188.389893,117.080078 C188.23413,117.316407 187.919924,117.663735 187.447266,118.12207 C187.103514,118.45508 186.880616,118.737059 186.778564,118.968018 C186.676513,119.198976 186.625488,119.540037 186.625488,119.991211 L185.669434,119.991211 C185.669434,119.479164 185.730305,119.066489 185.852051,118.753174 C185.973796,118.439858 186.240558,118.080894 186.652344,117.67627 L187.082031,117.251953 C187.210938,117.130208 187.314778,117.003093 187.393555,116.870605 C187.536785,116.637857 187.608398,116.39616 187.608398,116.145508 C187.608398,115.794595 187.503663,115.490236 187.294189,115.232422 C187.084716,114.974608 186.738284,114.845703 186.254883,114.845703 C185.656898,114.845703 185.243328,115.067706 185.01416,115.511719 C184.885253,115.75879 184.811849,116.115069 184.793945,116.580566 L183.837891,116.580566 C183.837891,115.807125 184.056313,115.18498 184.493164,114.714111 L184.493164,114.714111 Z" id="Shape-Copy-7" opacity="0.7" fill="#FF1A74" sketch:type="MSShapeGroup"></path>
            <path d="M58.5805009,115.921482 L57.5086328,114.065186 L54.974631,114.786076 L52.6776699,113.462081 L52.0414078,110.99685 L49.8580009,110.987784 L49.1222865,113.470974 L46.8557148,114.777452 L44.3391577,114.12461 L43.2641596,115.965053 L45.1230769,117.707407 L45.1230769,120.363328 L43.3435279,122.154899 L44.4102318,124.022088 L46.9330613,123.304376 L49.2100546,124.616861 L49.9500008,127 L52.1569248,126.986024 L52.8822531,124.616861 L55.1442852,123.313 L57.6680998,123.962621 L58.7419556,122.187128 L56.7846154,120.389006 L56.7846154,117.733544 L58.5805009,115.921482 Z M57.7846154,118.140704 L57.7846154,119.949749 L60,121.984925 L58.1538462,125.105528 L55.2923077,124.38191 L53.7230769,125.286432 L52.8923077,128 L49.2,128 L48.3692308,125.286432 L46.8,124.38191 L43.9384615,125.19598 L42.0923077,121.984925 L44.1230769,119.949749 L44.1230769,118.140704 L42,116.150754 L43.8461538,112.984925 L46.7076923,113.708543 L48.2769231,112.80402 L49.1076923,110 L52.8,110 L53.5384615,112.80402 L55.1076923,113.708543 L57.9692308,112.894472 L59.8153846,116.060302 L57.7846154,118.140704 Z M51.01221,123 C48.8237892,123 46.9960691,121.182061 46.9960691,119 C46.9960691,116.817939 48.8237892,115 51.01221,115 C53.2006307,115 55.0283509,116.817939 55.0283509,119 C55.0283509,121.182061 53.2006307,123 51.01221,123 Z M51.01221,122 C52.6495436,122 54.0283509,120.628571 54.0283509,119 C54.0283509,117.371429 52.6495436,116 51.01221,116 C49.3748763,116 47.9960691,117.371429 47.9960691,119 C47.9960691,120.628571 49.3748763,122 51.01221,122 Z" id="Shape-Copy-8" opacity="0.7" fill="#FF1A74" sketch:type="MSShapeGroup"></path>
            <path d="M297,144 L292,144 L292,145 L297,145 L297,149 L298,149 L298,144 L297,144 Z M297,161 L292,161 L292,162 L298,162 L298,157 L297,157 L297,161 Z M281,157 L280,157 L280,162 L286,162 L286,161 L281,161 L281,157 Z M281,145 L286,145 L286,144 L280,144 L280,149 L281,149 L281,145 Z M282,160 L296,160 L296,146 L282,146 L282,160 Z M283,147 L295,147 L295,159 L283,159 L283,147 Z" id="Fill-1-Copy-13" fill="#FFFFFF" sketch:type="MSShapeGroup"></path>
            <path d="M263,144 L258,144 L258,145 L263,145 L263,149 L264,149 L264,144 L263,144 Z M258,161 L258,162 L264,162 L264,157 L263,157 L263,161 L258,161 Z M247,157 L246,157 L246,162 L252,162 L252,161 L247,161 L247,157 Z M252,145 L252,144 L246,144 L246,149 L247,149 L247,145 L252,145 Z M249,156 L261,156 L261,150 L249,150 L249,156 Z M250,151 L260,151 L260,155 L250,155 L250,151 Z" id="Fill-1-Copy-14" fill="#FFFFFF" sketch:type="MSShapeGroup"></path>
            <path d="M117.66,160.8815 L117.32,160.745 C115.581,160.083 112.742,159.739 110.832,159.739 C110.256,159.739 109.697,159.774 108.681,159.836 L108,159.877 L108,146 L109,146 L109,158.814 C109.783,158.766 110.307,158.738 110.833,158.738 C112.834,158.738 115.825,159.105 117.667,159.806 L117.917,159.895 L121.152,159.895 L121.41,159.802 C123.33,159.072 126.261,158.738 128.168,158.738 C128.694,158.738 129.218,158.766 130,158.814 L130,146 L131,146 L131,159.878 L130.316,159.836 C129.302,159.774 128.743,159.739 128.168,159.739 C126.292,159.739 123.488,160.083 121.757,160.741 L121.326,160.896 L117.66,160.8815 Z M119.584,158.864 L119.342,158.73 C117.411,157.662 114.794,157.023 112.342,157.023 C111.792,157.023 111.246,157.059 110.542,157.117 L110,157.163 L110,144.136 L110.458,144.098 C111.22,144.035 111.78,144 112,144 C114.802,144 117.481,144.603 119.583,145.701 C121.704,144.587 124.262,144 127,144 C127.22,144 127.78,144.035 128.542,144.098 L129,144.136 L129,157.162 L128.459,157.118 C127.754,157.06 127.208,157.024 126.659,157.024 C124.242,157.024 121.815,157.63 119.826,158.731 L119.584,158.864 L119.584,158.864 Z M112.341,156.024 C114.654,156.024 117.112,156.56 119.084,157.479 L119.084,146.569 C117.129,145.556 114.627,145.001 112,145.001 C111.839,145.001 111.485,145.022 111,145.059 L111,156.08 C111.486,156.044 111.91,156.024 112.341,156.024 L112.341,156.024 Z M120.084,146.567 L120.084,157.475 C122.065,156.536 124.368,156.024 126.659,156.024 C127.09,156.024 127.514,156.045 128,156.079 L128,145.058 C127.515,145.021 127.161,145 127,145 C124.439,145 122.055,145.541 120.084,146.567 L120.084,146.567 Z" id="Imported-Layers-Copy-4" fill="#FFFFFF" sketch:type="MSShapeGroup"></path>
            <path d="M191.025126,157.232233 L191.732233,156.525126 L195.974874,160.767767 L195.267767,161.474874 L191.025126,157.232233 L191.025126,157.232233 Z M186,159 L186,159 C189.865993,159 193,155.865993 193,152 C193,148.134007 189.865993,145 186,145 C182.134007,145 179,148.134007 179,152 C179,155.865993 182.134007,159 186,159 L186,159 L186,159 Z M186,160 L186,160 C181.581722,160 178,156.418278 178,152 C178,147.581722 181.581722,144 186,144 C190.418278,144 194,147.581722 194,152 C194,156.418278 190.418278,160 186,160 L186,160 L186,160 Z M185.647949,154.882812 L186.716797,154.882812 L186.716797,156 L185.647949,156 L185.647949,154.882812 Z M184.493164,148.714111 C184.930015,148.243243 185.529781,148.007812 186.29248,148.007812 C186.997888,148.007812 187.562742,148.209227 187.987061,148.612061 C188.411379,149.014895 188.623535,149.529619 188.623535,150.15625 C188.623535,150.535809 188.545655,150.843749 188.389893,151.080078 C188.23413,151.316407 187.919924,151.663735 187.447266,152.12207 C187.103514,152.45508 186.880616,152.737059 186.778564,152.968018 C186.676513,153.198976 186.625488,153.540037 186.625488,153.991211 L185.669434,153.991211 C185.669434,153.479164 185.730305,153.066489 185.852051,152.753174 C185.973796,152.439858 186.240558,152.080894 186.652344,151.67627 L187.082031,151.251953 C187.210938,151.130208 187.314778,151.003093 187.393555,150.870605 C187.536785,150.637857 187.608398,150.39616 187.608398,150.145508 C187.608398,149.794595 187.503663,149.490236 187.294189,149.232422 C187.084716,148.974608 186.738284,148.845703 186.254883,148.845703 C185.656898,148.845703 185.243328,149.067706 185.01416,149.511719 C184.885253,149.75879 184.811849,150.115069 184.793945,150.580566 L183.837891,150.580566 C183.837891,149.807125 184.056313,149.18498 184.493164,148.714111 L184.493164,148.714111 Z" id="Shape-Copy-10" fill="#FFFFFF" sketch:type="MSShapeGroup"></path>
            <path d="M58.5805009,149.921482 L57.5086328,148.065186 L54.974631,148.786076 L52.6776699,147.462081 L52.0414078,144.99685 L49.8580009,144.987784 L49.1222865,147.470974 L46.8557148,148.777452 L44.3391577,148.12461 L43.2641596,149.965053 L45.1230769,151.707407 L45.1230769,154.363328 L43.3435279,156.154899 L44.4102318,158.022088 L46.9330613,157.304376 L49.2100546,158.616861 L49.9500008,161 L52.1569248,160.986024 L52.8822531,158.616861 L55.1442852,157.313 L57.6680998,157.962621 L58.7419556,156.187128 L56.7846154,154.389006 L56.7846154,151.733544 L58.5805009,149.921482 Z M57.7846154,152.140704 L57.7846154,153.949749 L60,155.984925 L58.1538462,159.105528 L55.2923077,158.38191 L53.7230769,159.286432 L52.8923077,162 L49.2,162 L48.3692308,159.286432 L46.8,158.38191 L43.9384615,159.19598 L42.0923077,155.984925 L44.1230769,153.949749 L44.1230769,152.140704 L42,150.150754 L43.8461538,146.984925 L46.7076923,147.708543 L48.2769231,146.80402 L49.1076923,144 L52.8,144 L53.5384615,146.80402 L55.1076923,147.708543 L57.9692308,146.894472 L59.8153846,150.060302 L57.7846154,152.140704 Z M51.01221,157 C48.8237892,157 46.9960691,155.182061 46.9960691,153 C46.9960691,150.817939 48.8237892,149 51.01221,149 C53.2006307,149 55.0283509,150.817939 55.0283509,153 C55.0283509,155.182061 53.2006307,157 51.01221,157 Z M51.01221,156 C52.6495436,156 54.0283509,154.628571 54.0283509,153 C54.0283509,151.371429 52.6495436,150 51.01221,150 C49.3748763,150 47.9960691,151.371429 47.9960691,153 C47.9960691,154.628571 49.3748763,156 51.01221,156 Z" id="Shape-Copy-11" fill="#FFFFFF" sketch:type="MSShapeGroup"></path>
            <path d="M297,178 L292,178 L292,179 L297,179 L297,183 L298,183 L298,178 L297,178 Z M297,195 L292,195 L292,196 L298,196 L298,191 L297,191 L297,195 Z M281,191 L280,191 L280,196 L286,196 L286,195 L281,195 L281,191 Z M281,179 L286,179 L286,178 L280,178 L280,183 L281,183 L281,179 Z M282,194 L296,194 L296,180 L282,180 L282,194 Z M283,181 L295,181 L295,193 L283,193 L283,181 Z" id="Fill-1-Copy-16" opacity="0.7" fill="#FFFFFF" sketch:type="MSShapeGroup"></path>
            <path d="M263,178 L258,178 L258,179 L263,179 L263,183 L264,183 L264,178 L263,178 Z M258,195 L258,196 L264,196 L264,191 L263,191 L263,195 L258,195 Z M247,191 L246,191 L246,196 L252,196 L252,195 L247,195 L247,191 Z M252,179 L252,178 L246,178 L246,183 L247,183 L247,179 L252,179 Z M249,190 L261,190 L261,184 L249,184 L249,190 Z M250,185 L260,185 L260,189 L250,189 L250,185 Z" id="Fill-1-Copy-17" opacity="0.7" fill="#FFFFFF" sketch:type="MSShapeGroup"></path>
            <path d="M117.66,194.8815 L117.32,194.745 C115.581,194.083 112.742,193.739 110.832,193.739 C110.256,193.739 109.697,193.774 108.681,193.836 L108,193.877 L108,180 L109,180 L109,192.814 C109.783,192.766 110.307,192.738 110.833,192.738 C112.834,192.738 115.825,193.105 117.667,193.806 L117.917,193.895 L121.152,193.895 L121.41,193.802 C123.33,193.072 126.261,192.738 128.168,192.738 C128.694,192.738 129.218,192.766 130,192.814 L130,180 L131,180 L131,193.878 L130.316,193.836 C129.302,193.774 128.743,193.739 128.168,193.739 C126.292,193.739 123.488,194.083 121.757,194.741 L121.326,194.896 L117.66,194.8815 Z M119.584,192.864 L119.342,192.73 C117.411,191.662 114.794,191.023 112.342,191.023 C111.792,191.023 111.246,191.059 110.542,191.117 L110,191.163 L110,178.136 L110.458,178.098 C111.22,178.035 111.78,178 112,178 C114.802,178 117.481,178.603 119.583,179.701 C121.704,178.587 124.262,178 127,178 C127.22,178 127.78,178.035 128.542,178.098 L129,178.136 L129,191.162 L128.459,191.118 C127.754,191.06 127.208,191.024 126.659,191.024 C124.242,191.024 121.815,191.63 119.826,192.731 L119.584,192.864 L119.584,192.864 Z M112.341,190.024 C114.654,190.024 117.112,190.56 119.084,191.479 L119.084,180.569 C117.129,179.556 114.627,179.001 112,179.001 C111.839,179.001 111.485,179.022 111,179.059 L111,190.08 C111.486,190.044 111.91,190.024 112.341,190.024 L112.341,190.024 Z M120.084,180.567 L120.084,191.475 C122.065,190.536 124.368,190.024 126.659,190.024 C127.09,190.024 127.514,190.045 128,190.079 L128,179.058 C127.515,179.021 127.161,179 127,179 C124.439,179 122.055,179.541 120.084,180.567 L120.084,180.567 Z" id="Imported-Layers-Copy-5" opacity="0.7" fill="#FFFFFF" sketch:type="MSShapeGroup"></path>
            <path d="M191.025126,191.232233 L191.732233,190.525126 L195.974874,194.767767 L195.267767,195.474874 L191.025126,191.232233 L191.025126,191.232233 Z M186,193 L186,193 C189.865993,193 193,189.865993 193,186 C193,182.134007 189.865993,179 186,179 C182.134007,179 179,182.134007 179,186 C179,189.865993 182.134007,193 186,193 L186,193 L186,193 Z M186,194 L186,194 C181.581722,194 178,190.418278 178,186 C178,181.581722 181.581722,178 186,178 C190.418278,178 194,181.581722 194,186 C194,190.418278 190.418278,194 186,194 L186,194 L186,194 Z M185.647949,188.882812 L186.716797,188.882812 L186.716797,190 L185.647949,190 L185.647949,188.882812 Z M184.493164,182.714111 C184.930015,182.243243 185.529781,182.007812 186.29248,182.007812 C186.997888,182.007812 187.562742,182.209227 187.987061,182.612061 C188.411379,183.014895 188.623535,183.529619 188.623535,184.15625 C188.623535,184.535809 188.545655,184.843749 188.389893,185.080078 C188.23413,185.316407 187.919924,185.663735 187.447266,186.12207 C187.103514,186.45508 186.880616,186.737059 186.778564,186.968018 C186.676513,187.198976 186.625488,187.540037 186.625488,187.991211 L185.669434,187.991211 C185.669434,187.479164 185.730305,187.066489 185.852051,186.753174 C185.973796,186.439858 186.240558,186.080894 186.652344,185.67627 L187.082031,185.251953 C187.210938,185.130208 187.314778,185.003093 187.393555,184.870605 C187.536785,184.637857 187.608398,184.39616 187.608398,184.145508 C187.608398,183.794595 187.503663,183.490236 187.294189,183.232422 C187.084716,182.974608 186.738284,182.845703 186.254883,182.845703 C185.656898,182.845703 185.243328,183.067706 185.01416,183.511719 C184.885253,183.75879 184.811849,184.115069 184.793945,184.580566 L183.837891,184.580566 C183.837891,183.807125 184.056313,183.18498 184.493164,182.714111 L184.493164,182.714111 Z" id="Shape-Copy-13" opacity="0.7" fill="#FFFFFF" sketch:type="MSShapeGroup"></path>
            <path d="M58.5805009,183.921482 L57.5086328,182.065186 L54.974631,182.786076 L52.6776699,181.462081 L52.0414078,178.99685 L49.8580009,178.987784 L49.1222865,181.470974 L46.8557148,182.777452 L44.3391577,182.12461 L43.2641596,183.965053 L45.1230769,185.707407 L45.1230769,188.363328 L43.3435279,190.154899 L44.4102318,192.022088 L46.9330613,191.304376 L49.2100546,192.616861 L49.9500008,195 L52.1569248,194.986024 L52.8822531,192.616861 L55.1442852,191.313 L57.6680998,191.962621 L58.7419556,190.187128 L56.7846154,188.389006 L56.7846154,185.733544 L58.5805009,183.921482 Z M57.7846154,186.140704 L57.7846154,187.949749 L60,189.984925 L58.1538462,193.105528 L55.2923077,192.38191 L53.7230769,193.286432 L52.8923077,196 L49.2,196 L48.3692308,193.286432 L46.8,192.38191 L43.9384615,193.19598 L42.0923077,189.984925 L44.1230769,187.949749 L44.1230769,186.140704 L42,184.150754 L43.8461538,180.984925 L46.7076923,181.708543 L48.2769231,180.80402 L49.1076923,178 L52.8,178 L53.5384615,180.80402 L55.1076923,181.708543 L57.9692308,180.894472 L59.8153846,184.060302 L57.7846154,186.140704 Z M51.01221,191 C48.8237892,191 46.9960691,189.182061 46.9960691,187 C46.9960691,184.817939 48.8237892,183 51.01221,183 C53.2006307,183 55.0283509,184.817939 55.0283509,187 C55.0283509,189.182061 53.2006307,191 51.01221,191 Z M51.01221,190 C52.6495436,190 54.0283509,188.628571 54.0283509,187 C54.0283509,185.371429 52.6495436,184 51.01221,184 C49.3748763,184 47.9960691,185.371429 47.9960691,187 C47.9960691,188.628571 49.3748763,190 51.01221,190 Z" id="Shape-Copy-14" opacity="0.7" fill="#FFFFFF" sketch:type="MSShapeGroup"></path>
            <path d="M158,7.99477117 C158,8.00216012 148.002473,8 148.002473,8 L148,23.3300759 L153,17.4634093 L158,23.2000002 L158,7.99477117 Z M153,19 L147,26 L147,7.99477117 C147,7.44537422 147.455761,7 148.002473,7 L157.997527,7 C158.551177,7 159,7.45092539 159,7.99477117 L159,26 L153,19 Z" id="Shape" fill="#3B393F" sketch:type="MSShapeGroup"></path>
            <path d="M158,41.9947712 C158,42.0021601 148.002473,42 148.002473,42 L148,57.3300759 L153,51.4634093 L158,57.2000002 L158,41.9947712 Z M153,53 L147,60 L147,41.9947712 C147,41.4453742 147.455761,41 148.002473,41 L157.997527,41 C158.551177,41 159,41.4509254 159,41.9947712 L159,60 L153,53 Z" id="Shape-Copy-3" fill="#FF1A74" sketch:type="MSShapeGroup"></path>
            <path d="M158,75.9947712 C158,76.0021601 148.002473,76 148.002473,76 L148,91.3300759 L153,85.4634093 L158,91.2000002 L158,75.9947712 Z M153,87 L147,94 L147,75.9947712 C147,75.4453742 147.455761,75 148.002473,75 L157.997527,75 C158.551177,75 159,75.4509254 159,75.9947712 L159,94 L153,87 Z" id="Shape-Copy-6" fill-opacity="0.699999988" fill="#3B393F" sketch:type="MSShapeGroup"></path>
            <path d="M158,109.994771 C158,110.00216 148.002473,110 148.002473,110 L148,125.330076 L153,119.463409 L158,125.2 L158,109.994771 Z M153,121 L147,128 L147,109.994771 C147,109.445374 147.455761,109 148.002473,109 L157.997527,109 C158.551177,109 159,109.450925 159,109.994771 L159,128 L153,121 Z" id="Shape-Copy-9" opacity="0.7" fill="#FF1A74" sketch:type="MSShapeGroup"></path>
            <path d="M158,143.994771 C158,144.00216 148.002473,144 148.002473,144 L148,159.330076 L153,153.463409 L158,159.2 L158,143.994771 Z M153,155 L147,162 L147,143.994771 C147,143.445374 147.455761,143 148.002473,143 L157.997527,143 C158.551177,143 159,143.450925 159,143.994771 L159,162 L153,155 Z" id="Shape-Copy-12" fill="#FFFFFF" sketch:type="MSShapeGroup"></path>
            <path d="M158,177.994771 C158,178.00216 148.002473,178 148.002473,178 L148,193.330076 L153,187.463409 L158,193.2 L158,177.994771 Z M153,189 L147,196 L147,177.994771 C147,177.445374 147.455761,177 148.002473,177 L157.997527,177 C158.551177,177 159,177.450925 159,177.994771 L159,196 L153,189 Z" id="Shape-Copy-15" opacity="0.7" fill="#FFFFFF" sketch:type="MSShapeGroup"></path>
            <g id="Group" sketch:type="MSLayerGroup" transform="translate(8.000000, 8.000000)" fill="#3B393F">
                <rect id="Rectangle-1168-Copy-17" sketch:type="MSShapeGroup" x="0" y="0" width="12" height="1"></rect>
                <rect id="Rectangle-1168-Copy-16" sketch:type="MSShapeGroup" x="15" y="0" width="2" height="1"></rect>
                <rect id="Rectangle-1168-Copy-19" sketch:type="MSShapeGroup" x="0" y="4" width="12" height="1"></rect>
                <rect id="Rectangle-1168-Copy-18" sketch:type="MSShapeGroup" x="15" y="4" width="2" height="1"></rect>
                <rect id="Rectangle-1168-Copy-21" sketch:type="MSShapeGroup" x="0" y="8" width="12" height="1"></rect>
                <rect id="Rectangle-1168-Copy-20" sketch:type="MSShapeGroup" x="15" y="8" width="2" height="1"></rect>
                <rect id="Rectangle-1168-Copy-23" sketch:type="MSShapeGroup" x="0" y="12" width="12" height="1"></rect>
                <rect id="Rectangle-1168-Copy-22" sketch:type="MSShapeGroup" x="15" y="12" width="2" height="1"></rect>
                <rect id="Rectangle-1168-Copy-25" sketch:type="MSShapeGroup" x="0" y="16" width="12" height="1"></rect>
                <rect id="Rectangle-1168-Copy-24" sketch:type="MSShapeGroup" x="15" y="16" width="2" height="1"></rect>
            </g>
            <g id="Group" sketch:type="MSLayerGroup" transform="translate(8.000000, 42.000000)" fill="#FF1A74">
                <rect id="Rectangle-1168-Copy-17" sketch:type="MSShapeGroup" x="0" y="0" width="12" height="1"></rect>
                <rect id="Rectangle-1168-Copy-16" sketch:type="MSShapeGroup" x="15" y="0" width="2" height="1"></rect>
                <rect id="Rectangle-1168-Copy-19" sketch:type="MSShapeGroup" x="0" y="4" width="12" height="1"></rect>
                <rect id="Rectangle-1168-Copy-18" sketch:type="MSShapeGroup" x="15" y="4" width="2" height="1"></rect>
                <rect id="Rectangle-1168-Copy-21" sketch:type="MSShapeGroup" x="0" y="8" width="12" height="1"></rect>
                <rect id="Rectangle-1168-Copy-20" sketch:type="MSShapeGroup" x="15" y="8" width="2" height="1"></rect>
                <rect id="Rectangle-1168-Copy-23" sketch:type="MSShapeGroup" x="0" y="12" width="12" height="1"></rect>
                <rect id="Rectangle-1168-Copy-22" sketch:type="MSShapeGroup" x="15" y="12" width="2" height="1"></rect>
                <rect id="Rectangle-1168-Copy-25" sketch:type="MSShapeGroup" x="0" y="16" width="12" height="1"></rect>
                <rect id="Rectangle-1168-Copy-24" sketch:type="MSShapeGroup" x="15" y="16" width="2" height="1"></rect>
            </g>
            <g id="Group-Copy-2" sketch:type="MSLayerGroup" transform="translate(8.000000, 76.000000)" fill="#3B393F">
                <rect id="Rectangle-1168-Copy-17" sketch:type="MSShapeGroup" x="0" y="0" width="12" height="1"></rect>
                <rect id="Rectangle-1168-Copy-16" sketch:type="MSShapeGroup" x="15" y="0" width="2" height="1"></rect>
                <rect id="Rectangle-1168-Copy-19" sketch:type="MSShapeGroup" x="0" y="4" width="12" height="1"></rect>
                <rect id="Rectangle-1168-Copy-18" sketch:type="MSShapeGroup" x="15" y="4" width="2" height="1"></rect>
                <rect id="Rectangle-1168-Copy-21" sketch:type="MSShapeGroup" x="0" y="8" width="12" height="1"></rect>
                <rect id="Rectangle-1168-Copy-20" sketch:type="MSShapeGroup" x="15" y="8" width="2" height="1"></rect>
                <rect id="Rectangle-1168-Copy-23" sketch:type="MSShapeGroup" x="0" y="12" width="12" height="1"></rect>
                <rect id="Rectangle-1168-Copy-22" sketch:type="MSShapeGroup" x="15" y="12" width="2" height="1"></rect>
                <rect id="Rectangle-1168-Copy-25" sketch:type="MSShapeGroup" x="0" y="16" width="12" height="1"></rect>
                <rect id="Rectangle-1168-Copy-24" sketch:type="MSShapeGroup" x="15" y="16" width="2" height="1"></rect>
            </g>
            <g id="Group" sketch:type="MSLayerGroup" transform="translate(8.000000, 110.000000)" fill="#FF1A74">
                <rect id="Rectangle-1168-Copy-17" sketch:type="MSShapeGroup" x="0" y="0" width="12" height="1"></rect>
                <rect id="Rectangle-1168-Copy-16" sketch:type="MSShapeGroup" x="15" y="0" width="2" height="1"></rect>
                <rect id="Rectangle-1168-Copy-19" sketch:type="MSShapeGroup" x="0" y="4" width="12" height="1"></rect>
                <rect id="Rectangle-1168-Copy-18" sketch:type="MSShapeGroup" x="15" y="4" width="2" height="1"></rect>
                <rect id="Rectangle-1168-Copy-21" sketch:type="MSShapeGroup" x="0" y="8" width="12" height="1"></rect>
                <rect id="Rectangle-1168-Copy-20" sketch:type="MSShapeGroup" x="15" y="8" width="2" height="1"></rect>
                <rect id="Rectangle-1168-Copy-23" sketch:type="MSShapeGroup" x="0" y="12" width="12" height="1"></rect>
                <rect id="Rectangle-1168-Copy-22" sketch:type="MSShapeGroup" x="15" y="12" width="2" height="1"></rect>
                <rect id="Rectangle-1168-Copy-25" sketch:type="MSShapeGroup" x="0" y="16" width="12" height="1"></rect>
                <rect id="Rectangle-1168-Copy-24" sketch:type="MSShapeGroup" x="15" y="16" width="2" height="1"></rect>
            </g>
            <g id="Group" sketch:type="MSLayerGroup" transform="translate(8.000000, 144.000000)" fill="#FFFFFF">
                <rect id="Rectangle-1168-Copy-17" sketch:type="MSShapeGroup" x="0" y="0" width="12" height="1"></rect>
                <rect id="Rectangle-1168-Copy-16" sketch:type="MSShapeGroup" x="15" y="0" width="2" height="1"></rect>
                <rect id="Rectangle-1168-Copy-19" sketch:type="MSShapeGroup" x="0" y="4" width="12" height="1"></rect>
                <rect id="Rectangle-1168-Copy-18" sketch:type="MSShapeGroup" x="15" y="4" width="2" height="1"></rect>
                <rect id="Rectangle-1168-Copy-21" sketch:type="MSShapeGroup" x="0" y="8" width="12" height="1"></rect>
                <rect id="Rectangle-1168-Copy-20" sketch:type="MSShapeGroup" x="15" y="8" width="2" height="1"></rect>
                <rect id="Rectangle-1168-Copy-23" sketch:type="MSShapeGroup" x="0" y="12" width="12" height="1"></rect>
                <rect id="Rectangle-1168-Copy-22" sketch:type="MSShapeGroup" x="15" y="12" width="2" height="1"></rect>
                <rect id="Rectangle-1168-Copy-25" sketch:type="MSShapeGroup" x="0" y="16" width="12" height="1"></rect>
                <rect id="Rectangle-1168-Copy-24" sketch:type="MSShapeGroup" x="15" y="16" width="2" height="1"></rect>
            </g>
            <g id="Group" sketch:type="MSLayerGroup" transform="translate(8.000000, 178.000000)" fill="#FFFFFF">
                <rect id="Rectangle-1168-Copy-17" sketch:type="MSShapeGroup" x="0" y="0" width="12" height="1"></rect>
                <rect id="Rectangle-1168-Copy-16" sketch:type="MSShapeGroup" x="15" y="0" width="2" height="1"></rect>
                <rect id="Rectangle-1168-Copy-19" sketch:type="MSShapeGroup" x="0" y="4" width="12" height="1"></rect>
                <rect id="Rectangle-1168-Copy-18" sketch:type="MSShapeGroup" x="15" y="4" width="2" height="1"></rect>
                <rect id="Rectangle-1168-Copy-21" sketch:type="MSShapeGroup" x="0" y="8" width="12" height="1"></rect>
                <rect id="Rectangle-1168-Copy-20" sketch:type="MSShapeGroup" x="15" y="8" width="2" height="1"></rect>
                <rect id="Rectangle-1168-Copy-23" sketch:type="MSShapeGroup" x="0" y="12" width="12" height="1"></rect>
                <rect id="Rectangle-1168-Copy-22" sketch:type="MSShapeGroup" x="15" y="12" width="2" height="1"></rect>
                <rect id="Rectangle-1168-Copy-25" sketch:type="MSShapeGroup" x="0" y="16" width="12" height="1"></rect>
                <rect id="Rectangle-1168-Copy-24" sketch:type="MSShapeGroup" x="15" y="16" width="2" height="1"></rect>
            </g>
            <path id="Path-1102" opacity="0.7" fill="#FF1A74" sketch:type="MSShapeGroup" d=""></path>
            <path d="M86.636039,16.7781746 L93,10.4142136 L91.5857864,9 L85.2218254,15.363961 L78.8578644,9 L77.4436508,10.4142136 L83.8076118,16.7781746 L77.4436508,23.1421356 L78.8578644,24.5563492 L85.2218254,18.1923882 L91.5857864,24.5563492 L93,23.1421356 L86.636039,16.7781746 Z" id="Rectangle-1230" fill="#3B393F" sketch:type="MSShapeGroup"></path>
            <path d="M86.636039,50.7781746 L93,44.4142136 L91.5857864,43 L85.2218254,49.363961 L78.8578644,43 L77.4436508,44.4142136 L83.8076118,50.7781746 L77.4436508,57.1421356 L78.8578644,58.5563492 L85.2218254,52.1923882 L91.5857864,58.5563492 L93,57.1421356 L86.636039,50.7781746 Z" id="Rectangle-1230-Copy-2" fill="#FF1A74" sketch:type="MSShapeGroup"></path>
            <path d="M86.636039,84.7781746 L93,78.4142136 L91.5857864,77 L85.2218254,83.363961 L78.8578644,77 L77.4436508,78.4142136 L83.8076118,84.7781746 L77.4436508,91.1421356 L78.8578644,92.5563492 L85.2218254,86.1923882 L91.5857864,92.5563492 L93,91.1421356 L86.636039,84.7781746 Z" id="Rectangle-1230-Copy-3" opacity="0.7" fill="#3B393F" sketch:type="MSShapeGroup"></path>
            <path d="M86.636039,118.778175 L93,112.414214 L91.5857864,111 L85.2218254,117.363961 L78.8578644,111 L77.4436508,112.414214 L83.8076118,118.778175 L77.4436508,125.142136 L78.8578644,126.556349 L85.2218254,120.192388 L91.5857864,126.556349 L93,125.142136 L86.636039,118.778175 Z" id="Rectangle-1230-Copy-4" opacity="0.7" fill="#FF1A74" sketch:type="MSShapeGroup"></path>
            <path d="M86.636039,152.778175 L93,146.414214 L91.5857864,145 L85.2218254,151.363961 L78.8578644,145 L77.4436508,146.414214 L83.8076118,152.778175 L77.4436508,159.142136 L78.8578644,160.556349 L85.2218254,154.192388 L91.5857864,160.556349 L93,159.142136 L86.636039,152.778175 Z" id="Rectangle-1230-Copy-5" fill="#FFFFFF" sketch:type="MSShapeGroup"></path>
            <path d="M86.636039,186.778175 L93,180.414214 L91.5857864,179 L85.2218254,185.363961 L78.8578644,179 L77.4436508,180.414214 L83.8076118,186.778175 L77.4436508,193.142136 L78.8578644,194.556349 L85.2218254,188.192388 L91.5857864,194.556349 L93,193.142136 L86.636039,186.778175 Z" id="Rectangle-1230-Copy-6" opacity="0.7" fill="#FFFFFF" sketch:type="MSShapeGroup"></path>
            <g id="Shape-+-?" sketch:type="MSLayerGroup" transform="translate(212.000000, 8.000000)" fill="#3B393F">
                <path d="M9,17.0526316 L9,17.0526316 C13.4473456,17.0526316 17.0526316,13.4473456 17.0526316,9 C17.0526316,4.55265438 13.4473456,0.947368421 9,0.947368421 C4.55265438,0.947368421 0.947368421,4.55265438 0.947368421,9 C0.947368421,13.4473456 4.55265438,17.0526316 9,17.0526316 L9,17.0526316 Z M9,18 L9,18 C4.02943725,18 0,13.9705627 0,9 C0,4.02943725 4.02943725,0 9,0 C13.9705627,0 18,4.02943725 18,9 C18,13.9705627 13.9705627,18 9,18 L9,18 Z" id="Shape" sketch:type="MSShapeGroup"></path>
                <path d="M8.60009766,13 L8.60009766,14 L9.60009766,14 L9.60009766,13 L8.60009766,13 Z M6.87906977,7.41818182 C6.8697674,7.03999811 6.91162744,6.69091069 7.00465116,6.37090909 C7.09767488,6.05090749 7.23720837,5.7721224 7.42325581,5.53454545 C7.60930326,5.29696851 7.84651019,5.11030371 8.13488372,4.97454545 C8.42325726,4.8387872 8.75348651,4.77090909 9.1255814,4.77090909 C9.39535019,4.77090909 9.65116158,4.81939345 9.89302326,4.91636364 C10.1348849,5.01333382 10.3465107,5.14666582 10.527907,5.31636364 C10.7093032,5.48606145 10.8534878,5.69212 10.9604651,5.93454545 C11.0674424,6.17697091 11.1209302,6.44363491 11.1209302,6.73454545 C11.1209302,7.11272916 11.0348846,7.45696815 10.8627907,7.76727273 C10.6906968,8.07757731 10.4744199,8.35878662 10.2139535,8.61090909 C9.91627758,8.89212262 9.66279174,9.14424131 9.45348837,9.36727273 C9.244185,9.59030415 9.07674481,9.82302909 8.95116279,10.0654545 C8.82558077,10.30788 8.734884,10.5793924 8.67906977,10.88 C8.62325553,11.1806076 8.59999995,11.5539372 8.60930233,12 L9.48837209,12 C9.49767447,11.5539372 9.51627893,11.2121224 9.54418605,10.9745455 C9.57209316,10.7369685 9.62790656,10.5357584 9.71162791,10.3709091 C9.79534926,10.2060598 9.92325495,10.0387887 10.0953488,9.86909091 C10.2674427,9.69939309 10.497673,9.46424393 10.7860465,9.16363636 C11.1395367,8.81454371 11.4302314,8.45091098 11.6581395,8.07272727 C11.8860477,7.69454356 12,7.23394211 12,6.69090909 C12,6.26424029 11.9255821,5.88606225 11.7767442,5.55636364 C11.6279062,5.22666502 11.4232571,4.94545571 11.1627907,4.71272727 C10.9023243,4.47999884 10.6023273,4.30303091 10.2627907,4.18181818 C9.92325412,4.06060545 9.55814149,4 9.16744186,4 C8.66511377,4 8.2186066,4.08242342 7.82790698,4.24727273 C7.43720735,4.41212204 7.10465253,4.64242276 6.83023256,4.93818182 C6.55581258,5.23394087 6.34883791,5.59272516 6.20930233,6.01454545 C6.06976674,6.43636575 6,6.90423985 6,7.41818182 L6.87906977,7.41818182 Z" id="?" sketch:type="MSShapeGroup"></path>
            </g>
            <g id="Shape-+-?" sketch:type="MSLayerGroup" transform="translate(212.000000, 42.000000)" fill="#FF1A74">
                <path d="M9,17.0526316 L9,17.0526316 C13.4473456,17.0526316 17.0526316,13.4473456 17.0526316,9 C17.0526316,4.55265438 13.4473456,0.947368421 9,0.947368421 C4.55265438,0.947368421 0.947368421,4.55265438 0.947368421,9 C0.947368421,13.4473456 4.55265438,17.0526316 9,17.0526316 L9,17.0526316 Z M9,18 L9,18 C4.02943725,18 0,13.9705627 0,9 C0,4.02943725 4.02943725,0 9,0 C13.9705627,0 18,4.02943725 18,9 C18,13.9705627 13.9705627,18 9,18 L9,18 Z" id="Shape" sketch:type="MSShapeGroup"></path>
                <path d="M8.60009766,13 L8.60009766,14 L9.60009766,14 L9.60009766,13 L8.60009766,13 Z M6.87906977,7.41818182 C6.8697674,7.03999811 6.91162744,6.69091069 7.00465116,6.37090909 C7.09767488,6.05090749 7.23720837,5.7721224 7.42325581,5.53454545 C7.60930326,5.29696851 7.84651019,5.11030371 8.13488372,4.97454545 C8.42325726,4.8387872 8.75348651,4.77090909 9.1255814,4.77090909 C9.39535019,4.77090909 9.65116158,4.81939345 9.89302326,4.91636364 C10.1348849,5.01333382 10.3465107,5.14666582 10.527907,5.31636364 C10.7093032,5.48606145 10.8534878,5.69212 10.9604651,5.93454545 C11.0674424,6.17697091 11.1209302,6.44363491 11.1209302,6.73454545 C11.1209302,7.11272916 11.0348846,7.45696815 10.8627907,7.76727273 C10.6906968,8.07757731 10.4744199,8.35878662 10.2139535,8.61090909 C9.91627758,8.89212262 9.66279174,9.14424131 9.45348837,9.36727273 C9.244185,9.59030415 9.07674481,9.82302909 8.95116279,10.0654545 C8.82558077,10.30788 8.734884,10.5793924 8.67906977,10.88 C8.62325553,11.1806076 8.59999995,11.5539372 8.60930233,12 L9.48837209,12 C9.49767447,11.5539372 9.51627893,11.2121224 9.54418605,10.9745455 C9.57209316,10.7369685 9.62790656,10.5357584 9.71162791,10.3709091 C9.79534926,10.2060598 9.92325495,10.0387887 10.0953488,9.86909091 C10.2674427,9.69939309 10.497673,9.46424393 10.7860465,9.16363636 C11.1395367,8.81454371 11.4302314,8.45091098 11.6581395,8.07272727 C11.8860477,7.69454356 12,7.23394211 12,6.69090909 C12,6.26424029 11.9255821,5.88606225 11.7767442,5.55636364 C11.6279062,5.22666502 11.4232571,4.94545571 11.1627907,4.71272727 C10.9023243,4.47999884 10.6023273,4.30303091 10.2627907,4.18181818 C9.92325412,4.06060545 9.55814149,4 9.16744186,4 C8.66511377,4 8.2186066,4.08242342 7.82790698,4.24727273 C7.43720735,4.41212204 7.10465253,4.64242276 6.83023256,4.93818182 C6.55581258,5.23394087 6.34883791,5.59272516 6.20930233,6.01454545 C6.06976674,6.43636575 6,6.90423985 6,7.41818182 L6.87906977,7.41818182 Z" id="?" sketch:type="MSShapeGroup"></path>
            </g>
            <g id="Shape-+-?-Copy-2" sketch:type="MSLayerGroup" transform="translate(212.000000, 76.000000)" fill="#3B393F">
                <path d="M9,17.0526316 L9,17.0526316 C13.4473456,17.0526316 17.0526316,13.4473456 17.0526316,9 C17.0526316,4.55265438 13.4473456,0.947368421 9,0.947368421 C4.55265438,0.947368421 0.947368421,4.55265438 0.947368421,9 C0.947368421,13.4473456 4.55265438,17.0526316 9,17.0526316 L9,17.0526316 Z M9,18 L9,18 C4.02943725,18 0,13.9705627 0,9 C0,4.02943725 4.02943725,0 9,0 C13.9705627,0 18,4.02943725 18,9 C18,13.9705627 13.9705627,18 9,18 L9,18 Z" id="Shape" sketch:type="MSShapeGroup"></path>
                <path d="M8.60009766,13 L8.60009766,14 L9.60009766,14 L9.60009766,13 L8.60009766,13 Z M6.87906977,7.41818182 C6.8697674,7.03999811 6.91162744,6.69091069 7.00465116,6.37090909 C7.09767488,6.05090749 7.23720837,5.7721224 7.42325581,5.53454545 C7.60930326,5.29696851 7.84651019,5.11030371 8.13488372,4.97454545 C8.42325726,4.8387872 8.75348651,4.77090909 9.1255814,4.77090909 C9.39535019,4.77090909 9.65116158,4.81939345 9.89302326,4.91636364 C10.1348849,5.01333382 10.3465107,5.14666582 10.527907,5.31636364 C10.7093032,5.48606145 10.8534878,5.69212 10.9604651,5.93454545 C11.0674424,6.17697091 11.1209302,6.44363491 11.1209302,6.73454545 C11.1209302,7.11272916 11.0348846,7.45696815 10.8627907,7.76727273 C10.6906968,8.07757731 10.4744199,8.35878662 10.2139535,8.61090909 C9.91627758,8.89212262 9.66279174,9.14424131 9.45348837,9.36727273 C9.244185,9.59030415 9.07674481,9.82302909 8.95116279,10.0654545 C8.82558077,10.30788 8.734884,10.5793924 8.67906977,10.88 C8.62325553,11.1806076 8.59999995,11.5539372 8.60930233,12 L9.48837209,12 C9.49767447,11.5539372 9.51627893,11.2121224 9.54418605,10.9745455 C9.57209316,10.7369685 9.62790656,10.5357584 9.71162791,10.3709091 C9.79534926,10.2060598 9.92325495,10.0387887 10.0953488,9.86909091 C10.2674427,9.69939309 10.497673,9.46424393 10.7860465,9.16363636 C11.1395367,8.81454371 11.4302314,8.45091098 11.6581395,8.07272727 C11.8860477,7.69454356 12,7.23394211 12,6.69090909 C12,6.26424029 11.9255821,5.88606225 11.7767442,5.55636364 C11.6279062,5.22666502 11.4232571,4.94545571 11.1627907,4.71272727 C10.9023243,4.47999884 10.6023273,4.30303091 10.2627907,4.18181818 C9.92325412,4.06060545 9.55814149,4 9.16744186,4 C8.66511377,4 8.2186066,4.08242342 7.82790698,4.24727273 C7.43720735,4.41212204 7.10465253,4.64242276 6.83023256,4.93818182 C6.55581258,5.23394087 6.34883791,5.59272516 6.20930233,6.01454545 C6.06976674,6.43636575 6,6.90423985 6,7.41818182 L6.87906977,7.41818182 Z" id="?" sketch:type="MSShapeGroup"></path>
            </g>
            <g id="Shape-+-?" sketch:type="MSLayerGroup" transform="translate(212.000000, 110.000000)" fill="#FF1A74">
                <path d="M9,17.0526316 L9,17.0526316 C13.4473456,17.0526316 17.0526316,13.4473456 17.0526316,9 C17.0526316,4.55265438 13.4473456,0.947368421 9,0.947368421 C4.55265438,0.947368421 0.947368421,4.55265438 0.947368421,9 C0.947368421,13.4473456 4.55265438,17.0526316 9,17.0526316 L9,17.0526316 Z M9,18 L9,18 C4.02943725,18 0,13.9705627 0,9 C0,4.02943725 4.02943725,0 9,0 C13.9705627,0 18,4.02943725 18,9 C18,13.9705627 13.9705627,18 9,18 L9,18 Z" id="Shape" sketch:type="MSShapeGroup"></path>
                <path d="M8.60009766,13 L8.60009766,14 L9.60009766,14 L9.60009766,13 L8.60009766,13 Z M6.87906977,7.41818182 C6.8697674,7.03999811 6.91162744,6.69091069 7.00465116,6.37090909 C7.09767488,6.05090749 7.23720837,5.7721224 7.42325581,5.53454545 C7.60930326,5.29696851 7.84651019,5.11030371 8.13488372,4.97454545 C8.42325726,4.8387872 8.75348651,4.77090909 9.1255814,4.77090909 C9.39535019,4.77090909 9.65116158,4.81939345 9.89302326,4.91636364 C10.1348849,5.01333382 10.3465107,5.14666582 10.527907,5.31636364 C10.7093032,5.48606145 10.8534878,5.69212 10.9604651,5.93454545 C11.0674424,6.17697091 11.1209302,6.44363491 11.1209302,6.73454545 C11.1209302,7.11272916 11.0348846,7.45696815 10.8627907,7.76727273 C10.6906968,8.07757731 10.4744199,8.35878662 10.2139535,8.61090909 C9.91627758,8.89212262 9.66279174,9.14424131 9.45348837,9.36727273 C9.244185,9.59030415 9.07674481,9.82302909 8.95116279,10.0654545 C8.82558077,10.30788 8.734884,10.5793924 8.67906977,10.88 C8.62325553,11.1806076 8.59999995,11.5539372 8.60930233,12 L9.48837209,12 C9.49767447,11.5539372 9.51627893,11.2121224 9.54418605,10.9745455 C9.57209316,10.7369685 9.62790656,10.5357584 9.71162791,10.3709091 C9.79534926,10.2060598 9.92325495,10.0387887 10.0953488,9.86909091 C10.2674427,9.69939309 10.497673,9.46424393 10.7860465,9.16363636 C11.1395367,8.81454371 11.4302314,8.45091098 11.6581395,8.07272727 C11.8860477,7.69454356 12,7.23394211 12,6.69090909 C12,6.26424029 11.9255821,5.88606225 11.7767442,5.55636364 C11.6279062,5.22666502 11.4232571,4.94545571 11.1627907,4.71272727 C10.9023243,4.47999884 10.6023273,4.30303091 10.2627907,4.18181818 C9.92325412,4.06060545 9.55814149,4 9.16744186,4 C8.66511377,4 8.2186066,4.08242342 7.82790698,4.24727273 C7.43720735,4.41212204 7.10465253,4.64242276 6.83023256,4.93818182 C6.55581258,5.23394087 6.34883791,5.59272516 6.20930233,6.01454545 C6.06976674,6.43636575 6,6.90423985 6,7.41818182 L6.87906977,7.41818182 Z" id="?" sketch:type="MSShapeGroup"></path>
            </g>
            <g id="Shape-+-?-Copy-4" sketch:type="MSLayerGroup" transform="translate(212.000000, 144.000000)" fill="#FFFFFF">
                <path d="M9,17.0526316 L9,17.0526316 C13.4473456,17.0526316 17.0526316,13.4473456 17.0526316,9 C17.0526316,4.55265438 13.4473456,0.947368421 9,0.947368421 C4.55265438,0.947368421 0.947368421,4.55265438 0.947368421,9 C0.947368421,13.4473456 4.55265438,17.0526316 9,17.0526316 L9,17.0526316 Z M9,18 L9,18 C4.02943725,18 0,13.9705627 0,9 C0,4.02943725 4.02943725,0 9,0 C13.9705627,0 18,4.02943725 18,9 C18,13.9705627 13.9705627,18 9,18 L9,18 Z" id="Shape" sketch:type="MSShapeGroup"></path>
                <path d="M8.60009766,13 L8.60009766,14 L9.60009766,14 L9.60009766,13 L8.60009766,13 Z M6.87906977,7.41818182 C6.8697674,7.03999811 6.91162744,6.69091069 7.00465116,6.37090909 C7.09767488,6.05090749 7.23720837,5.7721224 7.42325581,5.53454545 C7.60930326,5.29696851 7.84651019,5.11030371 8.13488372,4.97454545 C8.42325726,4.8387872 8.75348651,4.77090909 9.1255814,4.77090909 C9.39535019,4.77090909 9.65116158,4.81939345 9.89302326,4.91636364 C10.1348849,5.01333382 10.3465107,5.14666582 10.527907,5.31636364 C10.7093032,5.48606145 10.8534878,5.69212 10.9604651,5.93454545 C11.0674424,6.17697091 11.1209302,6.44363491 11.1209302,6.73454545 C11.1209302,7.11272916 11.0348846,7.45696815 10.8627907,7.76727273 C10.6906968,8.07757731 10.4744199,8.35878662 10.2139535,8.61090909 C9.91627758,8.89212262 9.66279174,9.14424131 9.45348837,9.36727273 C9.244185,9.59030415 9.07674481,9.82302909 8.95116279,10.0654545 C8.82558077,10.30788 8.734884,10.5793924 8.67906977,10.88 C8.62325553,11.1806076 8.59999995,11.5539372 8.60930233,12 L9.48837209,12 C9.49767447,11.5539372 9.51627893,11.2121224 9.54418605,10.9745455 C9.57209316,10.7369685 9.62790656,10.5357584 9.71162791,10.3709091 C9.79534926,10.2060598 9.92325495,10.0387887 10.0953488,9.86909091 C10.2674427,9.69939309 10.497673,9.46424393 10.7860465,9.16363636 C11.1395367,8.81454371 11.4302314,8.45091098 11.6581395,8.07272727 C11.8860477,7.69454356 12,7.23394211 12,6.69090909 C12,6.26424029 11.9255821,5.88606225 11.7767442,5.55636364 C11.6279062,5.22666502 11.4232571,4.94545571 11.1627907,4.71272727 C10.9023243,4.47999884 10.6023273,4.30303091 10.2627907,4.18181818 C9.92325412,4.06060545 9.55814149,4 9.16744186,4 C8.66511377,4 8.2186066,4.08242342 7.82790698,4.24727273 C7.43720735,4.41212204 7.10465253,4.64242276 6.83023256,4.93818182 C6.55581258,5.23394087 6.34883791,5.59272516 6.20930233,6.01454545 C6.06976674,6.43636575 6,6.90423985 6,7.41818182 L6.87906977,7.41818182 Z" id="?" sketch:type="MSShapeGroup"></path>
            </g>
            <g id="Shape-+-?-Copy-5" sketch:type="MSLayerGroup" transform="translate(212.000000, 178.000000)" fill="#FFFFFF">
                <path d="M9,17.0526316 L9,17.0526316 C13.4473456,17.0526316 17.0526316,13.4473456 17.0526316,9 C17.0526316,4.55265438 13.4473456,0.947368421 9,0.947368421 C4.55265438,0.947368421 0.947368421,4.55265438 0.947368421,9 C0.947368421,13.4473456 4.55265438,17.0526316 9,17.0526316 L9,17.0526316 Z M9,18 L9,18 C4.02943725,18 0,13.9705627 0,9 C0,4.02943725 4.02943725,0 9,0 C13.9705627,0 18,4.02943725 18,9 C18,13.9705627 13.9705627,18 9,18 L9,18 Z" id="Shape" sketch:type="MSShapeGroup"></path>
                <path d="M8.60009766,13 L8.60009766,14 L9.60009766,14 L9.60009766,13 L8.60009766,13 Z M6.87906977,7.41818182 C6.8697674,7.03999811 6.91162744,6.69091069 7.00465116,6.37090909 C7.09767488,6.05090749 7.23720837,5.7721224 7.42325581,5.53454545 C7.60930326,5.29696851 7.84651019,5.11030371 8.13488372,4.97454545 C8.42325726,4.8387872 8.75348651,4.77090909 9.1255814,4.77090909 C9.39535019,4.77090909 9.65116158,4.81939345 9.89302326,4.91636364 C10.1348849,5.01333382 10.3465107,5.14666582 10.527907,5.31636364 C10.7093032,5.48606145 10.8534878,5.69212 10.9604651,5.93454545 C11.0674424,6.17697091 11.1209302,6.44363491 11.1209302,6.73454545 C11.1209302,7.11272916 11.0348846,7.45696815 10.8627907,7.76727273 C10.6906968,8.07757731 10.4744199,8.35878662 10.2139535,8.61090909 C9.91627758,8.89212262 9.66279174,9.14424131 9.45348837,9.36727273 C9.244185,9.59030415 9.07674481,9.82302909 8.95116279,10.0654545 C8.82558077,10.30788 8.734884,10.5793924 8.67906977,10.88 C8.62325553,11.1806076 8.59999995,11.5539372 8.60930233,12 L9.48837209,12 C9.49767447,11.5539372 9.51627893,11.2121224 9.54418605,10.9745455 C9.57209316,10.7369685 9.62790656,10.5357584 9.71162791,10.3709091 C9.79534926,10.2060598 9.92325495,10.0387887 10.0953488,9.86909091 C10.2674427,9.69939309 10.497673,9.46424393 10.7860465,9.16363636 C11.1395367,8.81454371 11.4302314,8.45091098 11.6581395,8.07272727 C11.8860477,7.69454356 12,7.23394211 12,6.69090909 C12,6.26424029 11.9255821,5.88606225 11.7767442,5.55636364 C11.6279062,5.22666502 11.4232571,4.94545571 11.1627907,4.71272727 C10.9023243,4.47999884 10.6023273,4.30303091 10.2627907,4.18181818 C9.92325412,4.06060545 9.55814149,4 9.16744186,4 C8.66511377,4 8.2186066,4.08242342 7.82790698,4.24727273 C7.43720735,4.41212204 7.10465253,4.64242276 6.83023256,4.93818182 C6.55581258,5.23394087 6.34883791,5.59272516 6.20930233,6.01454545 C6.06976674,6.43636575 6,6.90423985 6,7.41818182 L6.87906977,7.41818182 Z" id="?" sketch:type="MSShapeGroup"></path>
            </g>
        </g>
    </g>
</svg>