<?xml version="1.0" encoding="utf-8"?>
<!-- Generator: Adobe Illustrator 16.0.0, SVG Export Plug-In . SVG Version: 6.00 Build 0)  -->
<!DOCTYPE svg PUBLIC "-//W3C//DTD SVG 1.1//EN" "http://www.w3.org/Graphics/SVG/1.1/DTD/svg11.dtd">
<svg version="1.1" id="Layer_1" xmlns="http://www.w3.org/2000/svg" xmlns:xlink="http://www.w3.org/1999/xlink" x="0px" y="0px"
	 width="206px" height="39px" viewBox="0 0 206 39" enable-background="new 0 0 206 39" xml:space="preserve">
<image display="none" overflow="visible" enable-background="new    " width="206" height="39" xlink:href="365DA907.png"  transform="matrix(1 0 0 1 -0.0933 0.0156)">
</image>
<path fill="#FF1A74" d="M7,0C3.1,0,0,3.2,0,7.1c0,2.5,1.2,4.7,3.3,6c0.1,0.1,0.2,0.2,0.2,0.4v3.7c0,1,0.8,1.8,1.8,1.8h3.5
	c1,0,1.8-0.8,1.8-1.8v-3.7c0-0.2,0.1-0.3,0.2-0.4c2.1-1.3,3.3-3.6,3.3-6C14,3.2,10.9,0,7,0z M5.3,17.2V16h3.5v1.2H5.3z M5.3,14.8
	v-1.2h3.5v1.2H5.3z M7,12.5c-2.9,0-5.3-2.4-5.3-5.3c0-3,2.4-5.3,5.3-5.3s5.3,2.4,5.3,5.3C12.3,10.1,9.9,12.5,7,12.5z"/>
<path fill="#B5B6B7" d="M7,20c-3.9,0-7,3.2-7,7.1c0,2.5,1.2,4.7,3.3,6c0.1,0.101,0.2,0.2,0.2,0.4v3.7c0,1,0.8,1.8,1.8,1.8h3.5
	c1,0,1.8-0.8,1.8-1.8v-3.7c0-0.2,0.1-0.3,0.2-0.4c2.1-1.3,3.3-3.6,3.3-6C14,23.2,10.9,20,7,20z M5.3,37.2V36h3.5v1.2H5.3z M5.3,34.8
	v-1.2h3.5v1.2H5.3z M7,32.5c-2.9,0-5.3-2.4-5.3-5.3c0-3,2.4-5.3,5.3-5.3s5.3,2.399,5.3,5.3C12.3,30.1,9.9,32.5,7,32.5z"/>
<g>
	<path fill="#FF1A74" d="M25.3,0h1.5l6.4,14.9h-1.9l-1.9-4.5h-6.7l-1.9,4.5H19L25.3,0z M23.4,8.8h5.3L26,2.4L23.4,8.8z"/>
	<path fill="#FF1A74" d="M35.2,6.1c0.8-0.5,2-0.9,3.2-0.9c2.7,0,3.7,1.4,3.7,3.9v5.8h-1.6v-1.2c-0.6,0.7-1.5,1.4-3,1.4
		c-1.7,0-2.9-1.1-2.9-2.9c0-1.9,1.5-3,3.6-3c0.7,0,1.7,0.1,2.4,0.6c0-1.8-0.3-3-2.2-3c-1.2,0-1.9,0.3-2.6,0.7L35.2,6.1z M40.5,12.3
		v-1.2c-0.6-0.4-1.3-0.6-2.1-0.6c-1,0-2,0.5-2,1.6c0,0.9,0.6,1.5,1.7,1.5S40,12.9,40.5,12.3z"/>
</g>
<polygon fill="#FF1A74" points="20.4,8.7 23.1,2.4 23.9,0 22.4,0 16,14.9 17.8,14.9 19.7,10.4 "/>
<g>
	<path fill="#FF1A74" d="M45.2,6.1c0.8-0.5,2-0.9,3.2-0.9c2.7,0,3.7,1.4,3.7,3.9V15h-1.6v-1.2c-0.6,0.7-1.5,1.4-3,1.4
		c-1.7,0-2.9-1.1-2.9-2.9c0-1.9,1.5-3,3.6-3c0.7,0,1.7,0.1,2.4,0.6c0-1.8-0.3-3-2.2-3c-1.2,0-1.9,0.3-2.6,0.7L45.2,6.1z M50.4,12.4
		v-1.2c-0.6-0.4-1.3-0.6-2.1-0.6c-1,0-2,0.5-2,1.6c0,0.9,0.6,1.5,1.7,1.5C49.2,13.6,50,13,50.4,12.4z"/>
	<path fill="#FF1A74" d="M60.1,0.1h1.5L68.1,15h-1.9l-1.9-4.5h-6.7l-2,4.5h-1.8L60.1,0.1z M58.2,8.8h5.3l-2.7-6.3L58.2,8.8z"/>
</g>
<polygon fill="#FF1A74" points="45,0 49,4 52.9,0 "/>
<g>
	<path fill="#FF1A74" d="M76,2.5L80,2c0.3,0,1,0.7,1,1s-0.7,1-1,1l-4-1c-0.5,1-1.1,2-2,2c-1,0-1.5-0.5-2-1.3L71,4c-0.3,0-1-0.7-1-1
		s0.7-1,1-1l1,0.4C72.2,1.5,73,1,74,1S75.7,1.7,76,2.5z M72.4,3c0,0.8,0.6,1.7,1.6,1.7s1.6-0.8,1.6-1.7c0-1-0.5-1.5-1.6-1.4
		C72.9,1.6,72.4,2.2,72.4,3z M79.3,6.5h1.1C80.7,6.5,81,6.7,81,7s-0.3,0.5-0.6,0.5h-1.1c-0.2,0.9-1,1.5-2,1.5s-1.8-0.6-2.1-1.5h-4.6
		C70.3,7.5,70,7.3,70,7s0.3-0.5,0.6-0.5h4.6C75.4,5.6,76.3,5,77.3,5S79.1,5.6,79.3,6.5z M75.5,7c0,1,0.5,1.5,1.5,1.5S78.5,8,78.5,7
		S78,5.5,77,5.5S75.5,5.9,75.5,7z M75.8,10.5h4.6c0.3,0,0.6,0.2,0.6,0.5s-0.3,0.5-0.6,0.5h-4.6c-0.3,0.8-1.1,1.5-2.1,1.5
		s-1.8-0.6-2.1-1.5h-1.1c-0.3,0-0.6-0.2-0.6-0.5s0.3-0.5,0.6-0.5h1.1C71.9,9.6,72.7,9,73.7,9S75.6,9.6,75.8,10.5z M72.5,11
		c0,1,0.4,1.5,1.5,1.5c1,0,1.5-0.5,1.5-1.5c0-1.2-0.5-1.5-1.5-1.5S72.5,10,72.5,11z"/>
	<g>
		<rect x="71" y="10" fill="#FF1A74" width="2" height="2"/>
		<rect x="75" y="10" fill="#FF1A74" width="5" height="2"/>
		<rect x="73" y="9" fill="#FF1A74" width="2" height="1"/>
		<rect x="73" y="12" fill="#FF1A74" width="2" height="1"/>
	</g>
	<g>
		<rect x="71" y="2" fill="#FF1A74" width="2" height="2"/>
		<rect x="75" y="2" fill="#FF1A74" width="5" height="2"/>
		<rect x="73" y="1" fill="#FF1A74" width="2" height="1"/>
		<rect x="73" y="4" fill="#FF1A74" width="2" height="1"/>
	</g>
	<g>
		<rect x="78" y="6" fill="#FF1A74" width="2" height="2"/>
		<rect x="71" y="6" fill="#FF1A74" width="5" height="2"/>
		<rect x="76" y="8" fill="#FF1A74" width="2" height="1"/>
		<rect x="76" y="5" fill="#FF1A74" width="2" height="1"/>
	</g>
</g>
<g>
	<path fill="#FF1A74" d="M96,0H84c-1.1,0-2,0.9-2,2v15c0,1.1,0.9,2,2,2h12c1.1,0,2-0.9,2-2V2C98,0.9,97.1,0,96,0z M96,17H84V2h12V17
		z"/>
	<rect x="87" y="5" fill="#FF1A74" width="6" height="2"/>
	<rect x="87" y="8" fill="#FF1A74" width="6" height="2"/>
	<rect x="87" y="11" fill="#FF1A74" width="6" height="2"/>
</g>
<g>
	<path fill="#FF1A74" d="M113,0h-12c-1.1,0-2,0.9-2,2v15c0,1.1,0.9,2,2,2h12c1.1,0,2-0.9,2-2V2C115,0.9,114.1,0,113,0z M113,17h-12
		V2h12V17z"/>
	<rect x="103" y="4" fill="#FF1A74" width="8" height="2"/>
	<rect x="103" y="8" fill="#FF1A74" width="8" height="2"/>
	<rect x="103" y="12" fill="#FF1A74" width="8" height="2"/>
</g>
<path fill="#FF1A74" d="M118.8,2.3l3.601,3.5l5.6-5.7l2.9,2.8l-8.4,8.6L116,5.1L118.8,2.3z"/>
<path fill="#B4B5B6" d="M118.8,29.3l3.601,3.5l5.6-5.7l2.9,2.801l-8.4,8.6l-6.5-6.3L118.8,29.3z"/>
<path fill="#B4B5B6" d="M148.8,29.3l3.601,3.5l3.6-3.7l2.9,2.801l-6.4,6.6l-6.5-6.3L148.8,29.3z"/>
<path fill="#B4B5B6" d="M142,37.7l-3.6-3.5l-3.601,3.7L131.9,35.1l6.399-6.6l6.5,6.3L142,37.7z"/>
<rect x="160.1" y="0.1" fill="#FF1A74" width="22.9" height="15.9"/>
<g>
	<path fill="#FFFFFF" d="M166.3,0.1h1.5l6.4,14.9h-1.9l-1.899-4.5h-6.7l-1.9,4.5H160L166.3,0.1z M164.4,8.8h5.3L167,2.5L164.4,8.8z"
		/>
	<path fill="#FFFFFF" d="M176.2,6.1c0.8-0.5,2-0.9,3.2-0.9c2.699,0,3.699,1.4,3.699,3.9V15h-1.6v-1.2c-0.6,0.7-1.5,1.4-3,1.4
		c-1.7,0-2.9-1.1-2.9-2.9c0-1.9,1.5-3,3.601-3c0.7,0,1.7,0.1,2.399,0.6c0-1.8-0.3-3-2.199-3c-1.2,0-1.9,0.3-2.601,0.7L176.2,6.1z
		 M181.5,12.4v-1.2c-0.6-0.4-1.3-0.6-2.1-0.6c-1,0-2,0.5-2,1.6c0,0.9,0.6,1.5,1.699,1.5C180.2,13.6,181,13,181.5,12.4z"/>
</g>
<g>
	<path fill="#FF1A74" d="M190.2,3.1h1.5L198.1,18H196.2l-1.9-4.5h-6.7L185.7,18h-1.8L190.2,3.1z M188.3,11.8h5.3L190.9,5.5
		L188.3,11.8z"/>
</g>
<path fill="#FF1A74" d="M205.5,0.4c-0.8-0.7-1.4-0.5-1.9-0.1c-0.5,0.3-2.199,2.2-2.199,2.2l-0.9-0.1l-0.9,0.9l0.4,0.6L195.9,8
	l-0.4,2l0.4,0.4l1.899-0.3l4.2-4.2l0.6,0.4l1-0.9l-0.3-0.8l2.3-2.3C205.8,2.2,206.4,1.1,205.5,0.4z M197.8,9.5l-1.5,0.3l-0.1-0.1
	l0.399-1.5l3.9-3.9l1.2,1.1L197.8,9.5z"/>
</svg>
