<?xml version="1.0" encoding="UTF-8"?>
<svg width="14px" height="14px" viewBox="0 0 14 14" version="1.1" xmlns="http://www.w3.org/2000/svg" xmlns:xlink="http://www.w3.org/1999/xlink">
    <!-- Generator: Sketch 44 (41411) - http://www.bohemiancoding.com/sketch -->
    <title>Shape</title>
    <desc>Created with Sketch.</desc>
    <defs></defs>
    <g id="Symbols" stroke="none" stroke-width="1" fill="none" fill-rule="evenodd">
        <g id="close_70" transform="translate(-5.000000, -5.000000)" fill="#3B393F">
            <path d="M18.2920226,7.11797736 C18.6830277,6.72697226 18.6870753,6.0970753 18.295,5.705 L18.295,5.705 C17.9056393,5.31563925 17.2734409,5.31655912 16.8820226,5.70797736 L12,10.59 L7.11797736,5.70797736 C6.72697226,5.31697226 6.0970753,5.3129247 5.705,5.705 L5.705,5.705 C5.31563925,6.09436075 5.31655912,6.72655912 5.70797736,7.11797736 L10.59,12 L5.70797736,16.8820226 C5.31697226,17.2730277 5.3129247,17.9029247 5.705,18.295 L5.705,18.295 C6.09436075,18.6843607 6.72655912,18.6834409 7.11797736,18.2920226 L12,13.41 L16.8820226,18.2920226 C17.2730277,18.6830277 17.9029247,18.6870753 18.295,18.295 L18.295,18.295 C18.6843607,17.9056393 18.6834409,17.2734409 18.2920226,16.8820226 L13.41,12 L18.2920226,7.11797736 Z" id="Shape"></path>
        </g>
    </g>
</svg>