<?xml version="1.0" encoding="utf-8"?>
<!-- Generator: Adobe Illustrator 18.0.0, SVG Export Plug-In . SVG Version: 6.00 Build 0)  -->
<!DOCTYPE svg PUBLIC "-//W3C//DTD SVG 1.1//EN" "http://www.w3.org/Graphics/SVG/1.1/DTD/svg11.dtd">
<svg version="1.1" id="Layer_1" xmlns="http://www.w3.org/2000/svg" xmlns:xlink="http://www.w3.org/1999/xlink" x="0px" y="0px"
	 viewBox="0 0 78 18" enable-background="new 0 0 78 18" xml:space="preserve">
<g>
	<path d="M10.3,4.2H6.8C6.7,5.7,6.6,7,6.6,8.2c-0.1,1.2-0.2,2.3-0.3,3.3c-0.1,1-0.3,1.8-0.5,2.6c-0.2,0.7-0.5,1.4-0.8,1.9
		c-0.2,0.4-0.5,0.7-0.7,0.9c-0.3,0.2-0.6,0.4-0.9,0.6c-0.3,0.1-0.6,0.2-0.9,0.3c-0.3,0.1-0.6,0.1-0.8,0.1c-0.4,0-0.7,0-0.9-0.1
		c-0.2-0.1-0.5-0.1-0.7-0.2l0.4-2.8c0.1,0,0.2,0.1,0.3,0.1c0.1,0,0.2,0,0.3,0c0.2,0,0.5-0.1,0.7-0.2c0.2-0.1,0.4-0.3,0.6-0.6
		c0.2-0.3,0.4-0.8,0.6-1.5C3,11.9,3.2,11,3.3,10c0.1-1,0.2-2.3,0.3-3.7c0.1-1.4,0.1-3.1,0.2-5h9.6v16.3h-3.2V4.2z"/>
	<polygon points="22.9,12.3 23,10.7 23,10.7 22,12.4 17.8,17.7 15.9,17.7 15.9,6 18.9,6 18.9,11.6 18.8,13.1 18.9,13.1 19.8,11.5 
		24,6 26,6 26,17.7 22.9,17.7 	"/>
	<polygon points="37.5,8.7 34.2,8.7 34.2,17.7 31.1,17.7 31.1,8.7 27.7,8.7 27.7,6 37.5,6 	"/>
	<path fill="#FF4C00" d="M39.4,1.5c0.7-0.1,1.4-0.2,2.2-0.3c0.8-0.1,1.6-0.1,2.3-0.1c0.8,0,1.6,0.1,2.4,0.2c0.8,0.1,1.6,0.4,2.2,0.8
		c0.7,0.4,1.2,0.9,1.6,1.7c0.4,0.7,0.6,1.6,0.6,2.8c0,1-0.2,1.9-0.5,2.6c-0.4,0.7-0.8,1.3-1.4,1.7c-0.6,0.5-1.3,0.8-2,1
		c-0.8,0.2-1.5,0.3-2.3,0.3h-0.4c-0.2,0-0.4,0-0.5,0c-0.2,0-0.4,0-0.5,0c-0.2,0-0.3,0-0.4,0v5.6h-3.2L39.4,1.5L39.4,1.5z M44.2,3.8
		c-0.3,0-0.6,0-0.9,0c-0.3,0-0.5,0.1-0.7,0.1v5.3c0.1,0,0.2,0,0.3,0c0.1,0,0.3,0,0.4,0c0.1,0,0.3,0,0.4,0H44c0.4,0,0.8,0,1.3-0.1
		c0.4-0.1,0.8-0.2,1.1-0.4c0.3-0.2,0.6-0.5,0.8-0.9c0.2-0.4,0.3-0.9,0.3-1.5c0-0.5-0.1-0.9-0.3-1.3c-0.2-0.3-0.4-0.6-0.7-0.8
		c-0.3-0.2-0.7-0.3-1-0.4C45,3.9,44.6,3.8,44.2,3.8"/>
	<path fill="#FF4C00" d="M61.2,16.7c-0.5,0.4-1.1,0.7-1.9,0.9c-0.8,0.3-1.7,0.4-2.6,0.4c-1.9,0-3.3-0.5-4.1-1.6
		c-0.9-1.1-1.3-2.6-1.3-4.5c0-2.1,0.5-3.6,1.5-4.6c1-1,2.4-1.5,4.1-1.5c0.6,0,1.2,0.1,1.7,0.2c0.6,0.2,1.1,0.4,1.5,0.8
		c0.4,0.4,0.8,0.8,1.1,1.4c0.3,0.6,0.4,1.4,0.4,2.3c0,0.3,0,0.7-0.1,1.1c0,0.4-0.1,0.8-0.2,1.2h-7c0,1,0.4,1.7,0.8,2.2
		c0.5,0.5,1.2,0.7,2.2,0.7c0.6,0,1.2-0.1,1.7-0.3c0.6-0.2,1.2-0.5,1.2-0.5L61.2,16.7z M56.9,8c-0.9,0-1.4,0.3-1.8,0.7
		c-0.4,0.5-0.6,1.1-0.7,1.9l4.4,0c0.1-0.8,0-1.5-0.3-1.9C58.1,8.3,57.6,8,56.9,8"/>
	<path fill="#FF4C00" d="M71.5,8.3c0,0-0.9-0.2-1.7-0.2c-2.1,0-3.4,1.2-3.4,3.8c0,2.5,1,3.7,3.2,3.7c0.7,0,2.1-0.2,2.1-0.2l0.4,2.1
		c-0.6,0.2-1.7,0.5-3,0.5c-4.2,0-5.8-3.1-5.8-6.2c0-3.2,1.8-6,6-6c0.8,0,1.7,0.1,2.6,0.3L71.5,8.3z"/>
	<path fill="#FF4C00" d="M78,7.6c0,1-0.8,1.7-1.7,1.7c-1,0-1.7-0.8-1.7-1.7c0-1,0.8-1.7,1.7-1.7C77.2,5.9,78,6.6,78,7.6"/>
	<path fill="#FF4C00" d="M78,16.1c0,1-0.8,1.7-1.7,1.7c-1,0-1.7-0.8-1.7-1.7c0-1,0.8-1.7,1.7-1.7C77.2,14.4,78,15.2,78,16.1"/>
</g>
</svg>
