<?xml version="1.0" encoding="utf-8"?>
<!-- Generator: Adobe Illustrator 16.0.0, SVG Export Plug-In . SVG Version: 6.00 Build 0)  -->
<!DOCTYPE svg PUBLIC "-//W3C//DTD SVG 1.1//EN" "http://www.w3.org/Graphics/SVG/1.1/DTD/svg11.dtd">
<svg version="1.1" id="Layer_1" xmlns="http://www.w3.org/2000/svg" xmlns:xlink="http://www.w3.org/1999/xlink" x="0px" y="0px"
	 width="120px" height="68px" viewBox="0 0 120 68" enable-background="new 0 0 120 68" xml:space="preserve">
<g>
	<path fill="#FF5000" d="M28.5,45h-2.4H24v-1.5c0-0.3-0.2-0.5-0.5-0.5h-6c-0.2,0-0.5,0.2-0.5,0.5V45h-2.9h-1.6
		c-0.3,0-0.5,0.2-0.5,0.5s0.2,0.5,0.5,0.5H14v13.5c0,0.3,0.2,0.5,0.6,0.5h11.9c0.4,0,0.5-0.2,0.5-0.6V46h1.5c0.2,0,0.4-0.2,0.4-0.5
		C29,45.3,28.8,45,28.5,45z M18,44h5v1h-5V44z M26,59H15V46h2.1H23h3V59z"/>
	<path fill="#FF5000" d="M17.5,48.4c-0.4,0-0.5,0.5-0.5,0.699V56c0,0.2,0.1,0.5,0.5,0.5c0.3,0,0.5-0.4,0.5-0.5v-7
		C18,48.8,17.9,48.4,17.5,48.4z"/>
	<path fill="#FF5000" d="M20.5,48.4C20.1,48.4,20,48.8,20,49v7c0,0.2,0.1,0.5,0.5,0.5S21,56.2,21,56v-7C21,48.8,20.9,48.4,20.5,48.4
		z"/>
	<path fill="#FF5000" d="M23,49v7c0,0.2,0.2,0.5,0.5,0.5c0.2,0,0.3,0,0.5-0.5v-7.5c0,0.3-0.1-0.1-0.5-0.1S23,48.8,23,49z"/>
</g>
<g>
	<path fill="#FFFFFF" d="M70.6,17H66.9c-0.2,0-0.5,0.3-0.5,0.5s0.3,0.5,0.5,0.5h3v7H50v-7h5.4c0.2,0,0.4-0.2,0.4-0.4
		c0-0.4-0.2-0.6-0.4-0.6h-6c-0.2,0-0.4,0.2-0.4,0.4v8.1c0,0.2,0.3,0.6,0.6,0.6h20.9c0.3,0,0.5-0.2,0.5-0.6v-8.1
		C71,17.2,70.8,17,70.6,17z"/>
	<path fill="#FFFFFF" d="M57.1,22.2c0.1,0,0.1,0,0.2,0l4-1.8c0,0,0.101,0,0.101-0.1l8.1-8.1c0.1-0.1,0.1-0.4,0-0.5l-2.6-2.6
		C66.8,9,66.5,9,66.4,9.1L58.3,17.2l-0.1,0.1l-1.5,4.4c0,0.1,0,0.3,0.1,0.4C56.9,22.2,57,22.2,57.1,22.2z M66.6,9.9l2,2L67.7,12.8
		l-2-2L66.6,9.9z M65.1,11.4l2,2L61,19.5l-2-2L65.1,11.4z M58.7,18.1l1.8,1.8l-2.8,1.3L58.7,18.1z"/>
</g>
<g>
	<path fill="#FFFFFF" d="M28.5,11h-2.4H24V9.5C24,9.2,23.8,9,23.5,9h-6C17.2,9,17,9.2,17,9.5V11h-2.9h-1.6c-0.3,0-0.5,0.2-0.5,0.5
		s0.2,0.5,0.5,0.5H14v13.5c0,0.3,0.2,0.5,0.6,0.5h11.9c0.4,0,0.5-0.2,0.5-0.6V12h1.5c0.2,0,0.4-0.2,0.4-0.5C29,11.3,28.8,11,28.5,11
		z M18,10h5v1h-5V10z M26,25H15V12h2.1H23h3V25z"/>
	<path fill="#FFFFFF" d="M17.5,14.4c-0.4,0-0.5,0.5-0.5,0.7V22c0,0.2,0.1,0.5,0.5,0.5c0.3,0,0.5-0.4,0.5-0.5v-7
		C18,14.8,17.9,14.4,17.5,14.4z"/>
	<path fill="#FFFFFF" d="M20.5,14.4c-0.4,0-0.5,0.4-0.5,0.6v7c0,0.2,0.1,0.5,0.5,0.5S21,22.2,21,22v-7C21,14.8,20.9,14.4,20.5,14.4z
		"/>
	<path fill="#FFFFFF" d="M23,15v7c0,0.2,0.2,0.5,0.5,0.5c0.2,0,0.3,0,0.5-0.5v-7.5c0,0.3-0.1-0.1-0.5-0.1S23,14.8,23,15z"/>
</g>
<g>
	<path fill="#FF5000" d="M70.6,51H66.9c-0.2,0-0.5,0.3-0.5,0.5s0.3,0.5,0.5,0.5h3v7H50v-7h5.4c0.2,0,0.4-0.2,0.4-0.4
		c0-0.399-0.2-0.6-0.4-0.6h-6c-0.2,0-0.4,0.2-0.4,0.4v8.1c0,0.2,0.3,0.6,0.6,0.6h20.9c0.3,0,0.5-0.199,0.5-0.6v-8.1
		C71,51.2,70.8,51,70.6,51z"/>
	<path fill="#FF5000" d="M57.1,56.2c0.1,0,0.1,0,0.2,0l4-1.8c0,0,0.101,0,0.101-0.101l8.1-8.1c0.1-0.101,0.1-0.4,0-0.5L66.9,43.1
		c-0.101-0.1-0.4-0.1-0.5,0L58.3,51.2l-0.1,0.1l-1.5,4.4c0,0.1,0,0.3,0.1,0.399C56.9,56.2,57,56.2,57.1,56.2z M66.6,43.9l2,2
		L67.7,46.8l-2-2L66.6,43.9z M65.1,45.4l2,2L61,53.5l-2-2L65.1,45.4z M58.7,52.1l1.8,1.801l-2.8,1.3L58.7,52.1z"/>
</g>
<path fill="#FFFFFF" d="M106,10c-1.7,0-3,1.3-3,3s1.3,3,3,3s3-1.3,3-3S107.7,10,106,10z M106,15.5c-1.4,0-2.5-1.1-2.5-2.5
	s1.1-2.5,2.5-2.5s2.5,1.1,2.5,2.5S107.4,15.5,106,15.5z"/>
<path fill="#FFFFFF" d="M106,20c-1.7,0-3,1.3-3,3s1.3,3,3,3s3-1.3,3-3S107.7,20,106,20z M106,25.5c-1.4,0-2.5-1.1-2.5-2.5
	s1.1-2.5,2.5-2.5s2.5,1.1,2.5,2.5S107.4,25.5,106,25.5z"/>
<path fill="#FFFFFF" d="M95,15c-1.7,0-3,1.3-3,3s1.3,3,3,3s3-1.3,3-3S96.7,15,95,15z M95,20.5c-1.4,0-2.5-1.1-2.5-2.5
	s1.1-2.5,2.5-2.5s2.5,1.1,2.5,2.5S96.4,20.5,95,20.5z"/>
<line fill="#FFFFFF" stroke="#FFFFFF" stroke-width="0.5" stroke-miterlimit="10" x1="97" y1="19" x2="104" y2="22"/>
<line fill="#FFFFFF" stroke="#FFFFFF" stroke-width="0.5" stroke-miterlimit="10" x1="97" y1="17" x2="104" y2="14"/>
<path fill="#FF5000" d="M106,44c-1.7,0-3,1.3-3,3s1.3,3,3,3s3-1.3,3-3S107.7,44,106,44z M106,49.5c-1.4,0-2.5-1.1-2.5-2.5
	s1.1-2.5,2.5-2.5s2.5,1.1,2.5,2.5S107.4,49.5,106,49.5z"/>
<path fill="#FF5000" d="M106,54c-1.7,0-3,1.3-3,3s1.3,3,3,3s3-1.3,3-3S107.7,54,106,54z M106,59.5c-1.4,0-2.5-1.1-2.5-2.5
	s1.1-2.5,2.5-2.5s2.5,1.1,2.5,2.5S107.4,59.5,106,59.5z"/>
<path fill="#FF5000" d="M95,49c-1.7,0-3,1.3-3,3s1.3,3,3,3s3-1.3,3-3S96.7,49,95,49z M95,54.5c-1.4,0-2.5-1.1-2.5-2.5
	s1.1-2.5,2.5-2.5s2.5,1.1,2.5,2.5S96.4,54.5,95,54.5z"/>
<line fill="none" stroke="#FF5000" stroke-miterlimit="10" x1="97" y1="53" x2="104" y2="56"/>
<line fill="none" stroke="#FF5000" stroke-miterlimit="10" x1="97" y1="51" x2="104" y2="48"/>
</svg>
