<?xml version="1.0" encoding="UTF-8" standalone="no"?>
<svg width="24px" height="23px" viewBox="0 0 24 23" version="1.1" xmlns="http://www.w3.org/2000/svg" xmlns:xlink="http://www.w3.org/1999/xlink" xmlns:sketch="http://www.bohemiancoding.com/sketch/ns">
    <!-- Generator: Sketch 3.4.1 (15681) - http://www.bohemiancoding.com/sketch -->
    <title>Artboard 4</title>
    <desc>Created with Sketch.</desc>
    <defs></defs>
    <g id="Page-1" stroke="none" stroke-width="1" fill="none" fill-rule="evenodd" sketch:type="MSPage">
        <g id="Artboard-4" sketch:type="MSArtboardGroup">
            <path d="M0,12 L0,23 L12,23 L12,12 L0,12 L0,12 Z M10,21 L2,21 L2,20 L10,20 L10,21 L10,21 Z M10,19 L2,19 L2,18 L10,18 L10,19 L10,19 Z M10,17 L2,17 L2,16 L10,16 L10,17 L10,17 Z M10,15 L2,15 L2,14 L10,14 L10,15 L10,15 Z" id="Shape" fill="#FFFFFF" sketch:type="MSShapeGroup"></path>
            <path d="M12,12 L12,23 L24,23 L24,12 L12,12 L12,12 Z M22,21 L14,21 L14,20 L22,20 L22,21 L22,21 Z M22,19 L14,19 L14,18 L22,18 L22,19 L22,19 Z M22,17 L14,17 L14,16 L22,16 L22,17 L22,17 Z M22,15 L14,15 L14,14 L22,14 L22,15 L22,15 Z" id="Shape" fill="#FF4D15" sketch:type="MSShapeGroup"></path>
            <path d="M0,10.5 L4.5,8 L9,10.5" id="Shape" stroke="#000000" sketch:type="MSShapeGroup"></path>
            <path d="M0,0 L0,11 L4.5,7.5 L9,11 L9,0 L0,0 Z" id="Shape" fill="#FFFFFF" sketch:type="MSShapeGroup"></path>
            <path d="M12,10.5 L16.5,8 L21,10.5" id="Shape" stroke="#000000" sketch:type="MSShapeGroup"></path>
            <path d="M12,0 L12,11 L16.5,7.5 L21,11 L21,0 L12,0 Z" id="Shape" fill="#FF4D15" sketch:type="MSShapeGroup"></path>
        </g>
    </g>
</svg>