<?xml version="1.0" encoding="utf-8"?>
<!-- Generator: Adobe Illustrator 16.2.0, SVG Export Plug-In . SVG Version: 6.00 Build 0)  -->
<!DOCTYPE svg PUBLIC "-//W3C//DTD SVG 1.1//EN" "http://www.w3.org/Graphics/SVG/1.1/DTD/svg11.dtd">
<svg version="1.1" id="Layer_1" xmlns="http://www.w3.org/2000/svg" xmlns:xlink="http://www.w3.org/1999/xlink" x="0px" y="0px"
	 width="255.121px" height="141.73px" viewBox="0 0 255.121 141.73" enable-background="new 0 0 255.121 141.73"
	 xml:space="preserve">
<g>
	<path fill="#FFFFFF" d="M16.953,62.965h-5.761c-0.165,2.469-0.329,4.608-0.329,6.584c-0.165,1.975-0.329,3.785-0.494,5.432
		c-0.165,1.646-0.494,2.962-0.823,4.279c-0.329,1.152-0.823,2.304-1.317,3.127c-0.329,0.658-0.823,1.152-1.152,1.481
		c-0.494,0.329-0.988,0.658-1.481,0.987c-0.494,0.165-0.988,0.329-1.481,0.494c-0.494,0.164-0.987,0.164-1.316,0.164
		c-0.659,0-1.152,0-1.481-0.164c-0.329-0.165-0.823-0.165-1.152-0.329l0.658-4.608c0.165,0,0.33,0.164,0.494,0.164s0.329,0,0.494,0
		c0.329,0,0.823-0.164,1.152-0.329c0.329-0.165,0.658-0.494,0.987-0.987c0.329-0.494,0.658-1.317,0.988-2.469
		c0-1.152,0.329-2.634,0.494-4.28c0.165-1.646,0.329-3.785,0.494-6.09c0.165-2.304,0.165-5.103,0.329-8.229h15.801V85.02h-5.267
		V62.965H16.953z"/>
	<polygon fill="#FFFFFF" points="37.692,76.297 37.856,73.663 37.856,73.663 36.21,76.462 29.298,85.184 26.17,85.184 26.17,65.927 
		31.108,65.927 31.108,75.144 30.944,77.613 31.108,77.613 32.589,74.98 39.502,65.927 42.794,65.927 42.794,85.184 37.692,85.184 	
		"/>
	<polygon fill="#FFFFFF" points="61.723,70.371 56.291,70.371 56.291,85.184 51.188,85.184 51.188,70.371 45.592,70.371 
		45.592,65.927 61.723,65.927 	"/>
	<path fill="#FF4C00" d="M64.85,58.52c1.152-0.164,2.304-0.329,3.621-0.493c1.316-0.165,2.633-0.165,3.786-0.165
		c1.316,0,2.633,0.165,3.95,0.329c1.316,0.165,2.633,0.658,3.621,1.316c1.152,0.659,1.975,1.481,2.633,2.799
		c0.658,1.152,0.987,2.633,0.987,4.608c0,1.646-0.329,3.127-0.823,4.279c-0.658,1.152-1.317,2.14-2.304,2.798
		c-0.988,0.823-2.14,1.317-3.292,1.646c-1.317,0.329-2.469,0.493-3.786,0.493h-0.658c-0.33,0-0.659,0-0.823,0
		c-0.329,0-0.658,0-0.823,0c-0.329,0-0.494,0-0.659,0v9.218h-5.267L64.85,58.52L64.85,58.52z M72.75,62.306
		c-0.494,0-0.988,0-1.481,0s-0.823,0.164-1.152,0.164v8.724c0.165,0,0.33,0,0.494,0s0.494,0,0.658,0s0.494,0,0.658,0h0.494
		c0.658,0,1.316,0,2.14-0.164c0.658-0.165,1.316-0.33,1.811-0.659c0.494-0.329,0.987-0.822,1.316-1.48
		c0.33-0.659,0.494-1.481,0.494-2.47c0-0.822-0.165-1.481-0.494-2.14c-0.329-0.493-0.658-0.987-1.152-1.316
		s-1.152-0.494-1.646-0.658C74.067,62.47,73.409,62.306,72.75,62.306"/>
	<path fill="#FF4C00" d="M100.731,83.539c-0.823,0.658-1.811,1.152-3.127,1.481c-1.317,0.493-2.798,0.658-4.279,0.658
		c-3.127,0-5.432-0.823-6.749-2.634c-1.481-1.811-2.14-4.279-2.14-7.406c0-3.457,0.823-5.926,2.469-7.571
		c1.646-1.646,3.95-2.469,6.749-2.469c0.987,0,1.975,0.164,2.798,0.329c0.988,0.329,1.811,0.658,2.469,1.316
		c0.658,0.658,1.316,1.316,1.811,2.305c0.494,0.987,0.658,2.304,0.658,3.785c0,0.494,0,1.152-0.165,1.811
		c0,0.658-0.165,1.317-0.329,1.976H89.375c0,1.646,0.658,2.798,1.316,3.621c0.823,0.822,1.975,1.151,3.621,1.151
		c0.988,0,1.975-0.164,2.798-0.493c0.987-0.329,1.975-0.823,1.975-0.823L100.731,83.539z M93.654,69.219
		c-1.481,0-2.304,0.493-2.963,1.151c-0.658,0.823-0.987,1.811-1.152,3.128h7.242c0.165-1.317,0-2.469-0.494-3.128
		C95.629,69.713,94.806,69.219,93.654,69.219"/>
	<path fill="#FF4C00" d="M117.685,69.713c0,0-1.481-0.329-2.798-0.329c-3.457,0-5.596,1.976-5.596,6.255
		c0,4.114,1.646,6.09,5.267,6.09c1.152,0,3.457-0.329,3.457-0.329l0.658,3.456c-0.987,0.329-2.798,0.823-4.938,0.823
		c-6.913,0-9.546-5.103-9.546-10.205c0-5.267,2.962-9.875,9.875-9.875c1.317,0,2.798,0.164,4.279,0.493L117.685,69.713z"/>
	<path fill="#FF4C00" d="M128.382,68.56c0,1.646-1.316,2.799-2.797,2.799c-1.646,0-2.798-1.317-2.798-2.799
		c0-1.646,1.317-2.798,2.798-2.798S128.382,66.915,128.382,68.56"/>
	<path fill="#FF4C00" d="M128.382,82.552c0,1.646-1.316,2.798-2.797,2.798c-1.646,0-2.798-1.316-2.798-2.798
		c0-1.646,1.317-2.799,2.798-2.799S128.382,81.07,128.382,82.552"/>
</g>
<g>
	<path fill="#FFFFFF" d="M138.752,65.762v5.761c0,2.14,0.823,3.786,3.621,3.786c1.317,0,2.798-0.494,3.786-1.152v-8.229h3.127
		v17.446h-3.127v-7.077l0,0c-1.317,0.658-3.293,1.152-4.938,1.152c-3.292,0-5.761-1.646-5.761-5.761v-5.926H138.752z"/>
	<path fill="#FFFFFF" d="M157.351,65.762v7.407c0,2.798,0,4.608-0.164,7.077h0.164c0.988-2.14,1.646-3.292,2.799-5.432l5.432-9.053
		h3.785V83.21h-3.127v-7.407c0-2.798,0-4.279,0.164-7.242h-0.164c-1.152,2.305-1.811,3.621-2.963,5.432
		c-1.646,2.799-3.621,6.09-5.432,9.218h-3.621V65.762H157.351z"/>
	<path fill="#FFFFFF" d="M186.32,65.762v2.469h-5.432V83.21h-3.127V68.231h-5.432v-2.469H186.32z"/>
	<path fill="#FFFFFF" d="M198.5,83.21l-0.328-2.14h-0.165c-0.987,1.316-2.798,2.633-5.432,2.633c-3.621,0-5.432-2.469-5.432-5.102
		c0-4.28,3.786-6.584,10.534-6.584v-0.329c0-1.481-0.33-4.115-3.951-4.115c-1.646,0-3.291,0.494-4.607,1.317l-0.659-2.141
		c1.481-0.987,3.621-1.48,5.761-1.48c5.432,0,6.584,3.621,6.584,7.241v6.584c0,1.481,0,2.963,0.329,4.279H198.5V83.21z
		 M198.006,74.321c-3.456,0-7.407,0.494-7.407,3.951c0,2.14,1.316,2.962,2.963,2.962c2.305,0,3.785-1.481,4.279-2.962
		c0.165-0.33,0.165-0.659,0.165-0.988V74.321z"/>
	<path fill="#FFFFFF" d="M219.568,65.762V83.21h-3.127V68.231h-6.09v4.609c0,4.938-0.494,8.229-2.799,9.711
		c-0.822,0.658-1.811,1.151-3.456,1.151l-0.329-2.469c0.658-0.164,1.316-0.329,1.811-0.658c1.646-1.152,1.811-3.621,1.811-7.571
		v-7.242H219.568z"/>
	<path fill="#FFFFFF" d="M227.962,65.762v7.571h0.822l6.584-7.571h3.951l-7.572,7.9c2.799,0.329,4.609,2.14,5.926,5.268
		c0.494,1.151,1.152,2.798,1.811,4.279h-3.292c-0.493-0.823-1.152-2.14-1.646-3.621c-1.152-2.798-2.799-4.115-5.762-4.115h-0.658
		v7.736H225V65.762H227.962z"/>
	<path fill="#FFFFFF" d="M252.158,83.21l-0.33-2.14l0,0c-0.986,1.316-2.797,2.633-5.432,2.633c-3.621,0-5.432-2.469-5.432-5.102
		c0-4.28,3.786-6.584,10.535-6.584v-0.329c0-1.481-0.33-4.115-3.951-4.115c-1.646,0-3.291,0.494-4.608,1.317l-0.658-2.141
		c1.481-0.987,3.621-1.48,5.761-1.48c5.432,0,6.584,3.621,6.584,7.241v6.584c0,1.481,0,2.963,0.329,4.279h-2.798V83.21z
		 M251.828,74.321c-3.456,0-7.406,0.494-7.406,3.951c0,2.14,1.316,2.962,2.963,2.962c2.305,0,3.785-1.481,4.279-2.962
		c0.164-0.33,0.164-0.659,0.164-0.988V74.321L251.828,74.321z"/>
</g>
</svg>
