<?xml version="1.0" encoding="utf-8"?>
<!-- Generator: Adobe Illustrator 18.0.0, SVG Export Plug-In . SVG Version: 6.00 Build 0)  -->
<!DOCTYPE svg PUBLIC "-//W3C//DTD SVG 1.1//EN" "http://www.w3.org/Graphics/SVG/1.1/DTD/svg11.dtd">
<svg version="1.1" id="Layer_1" xmlns="http://www.w3.org/2000/svg" xmlns:xlink="http://www.w3.org/1999/xlink" x="0px" y="0px"
	 viewBox="0 0 163 18" enable-background="new 0 0 163 18" xml:space="preserve">
<g>
	<path fill="#FFFFFF" d="M11.4,3.9H7.9C7.8,5.4,7.8,6.8,7.7,8c-0.1,1.2-0.2,2.3-0.3,3.3c-0.1,1-0.3,1.9-0.5,2.6
		c-0.2,0.8-0.5,1.4-0.9,2c-0.2,0.4-0.5,0.7-0.7,0.9c-0.3,0.2-0.6,0.4-0.9,0.6c-0.3,0.1-0.6,0.2-0.9,0.3c-0.3,0.1-0.6,0.1-0.8,0.1
		c-0.4,0-0.7,0-0.9-0.1c-0.2-0.1-0.5-0.1-0.7-0.2l0.4-2.8c0.1,0,0.2,0.1,0.3,0.1c0.1,0,0.2,0,0.3,0c0.3,0,0.5-0.1,0.7-0.2
		c0.2-0.1,0.5-0.3,0.6-0.6c0.2-0.3,0.4-0.9,0.6-1.5c0.2-0.7,0.3-1.5,0.5-2.6c0.1-1,0.2-2.3,0.3-3.7C4.8,4.7,4.8,3,4.9,1h9.8v16.6
		h-3.3V3.9z"/>
	<polygon fill="#FFFFFF" points="24.3,12.2 24.4,10.6 24.4,10.6 23.3,12.3 19.1,17.7 17.2,17.7 17.2,5.8 20.3,5.8 20.3,11.4 
		20.1,13.1 20.2,13.1 21.2,11.4 25.5,5.8 27.4,5.8 27.4,17.7 24.3,17.7 	"/>
	<polygon fill="#FFFFFF" points="39.1,8.5 35.8,8.5 35.8,17.7 32.6,17.7 32.6,8.5 29.2,8.5 29.2,5.8 39.1,5.8 	"/>
	<path fill="#FF4C00" d="M41.1,1.2c0.7-0.1,1.4-0.2,2.2-0.3c0.8-0.1,1.6-0.1,2.4-0.1c0.8,0,1.7,0.1,2.5,0.2c0.8,0.1,1.6,0.4,2.2,0.8
		c0.7,0.4,1.2,1,1.6,1.7c0.4,0.7,0.6,1.7,0.6,2.8c0,1-0.2,1.9-0.5,2.6c-0.4,0.7-0.8,1.3-1.4,1.8c-0.6,0.5-1.3,0.8-2.1,1
		c-0.8,0.2-1.6,0.3-2.4,0.3h-0.4c-0.2,0-0.4,0-0.5,0c-0.2,0-0.4,0-0.6,0c-0.2,0-0.3,0-0.4,0v5.7h-3.3L41.1,1.2L41.1,1.2z M46,3.6
		c-0.3,0-0.6,0-0.9,0c-0.3,0-0.5,0.1-0.7,0.1v5.4c0.1,0,0.2,0,0.3,0c0.1,0,0.3,0,0.4,0c0.1,0,0.3,0,0.4,0h0.3c0.4,0,0.9,0,1.3-0.1
		c0.4-0.1,0.8-0.2,1.1-0.4c0.3-0.2,0.6-0.5,0.8-0.9c0.2-0.4,0.3-0.9,0.3-1.5c0-0.5-0.1-1-0.3-1.3c-0.2-0.3-0.4-0.6-0.7-0.8
		c-0.3-0.2-0.7-0.3-1.1-0.4C46.8,3.6,46.4,3.6,46,3.6"/>
	<path fill="#FF4C00" d="M63.3,16.6c-0.5,0.4-1.1,0.7-1.9,1c-0.8,0.3-1.7,0.4-2.6,0.4c-1.9,0-3.3-0.6-4.2-1.7
		c-0.9-1.1-1.3-2.6-1.3-4.6c0-2.1,0.5-3.7,1.5-4.7c1-1,2.4-1.6,4.2-1.6c0.6,0,1.2,0.1,1.8,0.2c0.6,0.2,1.1,0.4,1.5,0.8
		c0.4,0.4,0.8,0.9,1.1,1.5c0.3,0.6,0.4,1.4,0.4,2.3c0,0.3,0,0.7-0.1,1.1c0,0.4-0.1,0.8-0.2,1.2h-7.2c0,1,0.4,1.8,0.8,2.3
		c0.5,0.5,1.2,0.8,2.3,0.8c0.6,0,1.2-0.1,1.7-0.3c0.7-0.2,1.3-0.5,1.3-0.5L63.3,16.6z M58.9,7.9c-1,0-1.4,0.3-1.8,0.7
		c-0.4,0.5-0.6,1.1-0.7,1.9l4.4,0c0.1-0.9,0-1.5-0.3-2C60.1,8.2,59.6,7.9,58.9,7.9"/>
	<path fill="#FF4C00" d="M73.7,8.1c0,0-0.9-0.2-1.7-0.2c-2.1,0-3.5,1.2-3.5,3.9c0,2.5,1.1,3.8,3.3,3.8c0.7,0,2.1-0.2,2.1-0.2
		l0.4,2.1c-0.6,0.2-1.7,0.5-3.1,0.5c-4.3,0-5.9-3.1-5.9-6.3c0-3.2,1.9-6.1,6.2-6.1c0.8,0,1.8,0.1,2.7,0.3L73.7,8.1z"/>
	<path fill="#FF4C00" d="M80.3,7.4c0,1-0.8,1.8-1.8,1.8c-1,0-1.8-0.8-1.8-1.8c0-1,0.8-1.8,1.8-1.8C79.6,5.7,80.3,6.5,80.3,7.4"/>
	<path fill="#FF4C00" d="M80.3,16.1c0,1-0.8,1.8-1.8,1.8c-1,0-1.8-0.8-1.8-1.8c0-1,0.8-1.8,1.8-1.8C79.6,14.3,80.3,15.1,80.3,16.1"
		/>
</g>
<g>
	<path fill="#FFFFFF" d="M88.1,6.2v3.7c0,1.4,0.5,2.4,2.3,2.4c0.9,0,1.8-0.3,2.4-0.8V6.2h2v11.1h-2v-4.5h0c-0.8,0.5-2,0.9-3,0.9
		c-2.1,0-3.7-1.1-3.7-3.6V6.2H88.1z"/>
	<path fill="#FFFFFF" d="M100,6.2v4.7c0,1.8,0,2.9-0.1,4.5l0.1,0c0.7-1.4,1.1-2.1,1.8-3.4l3.5-5.7h2.4v11.1h-1.9v-4.7
		c0-1.8,0-2.8,0.1-4.6h-0.1c-0.7,1.4-1.2,2.3-1.8,3.4c-1.1,1.7-2.3,3.9-3.5,5.8h-2.3V6.2H100z"/>
	<path fill="#FFFFFF" d="M118.3,6.2v1.6h-3.5v9.5h-2V7.9h-3.5V6.2H118.3z"/>
	<path fill="#FFFFFF" d="M126.1,17.4l-0.2-1.4h-0.1c-0.6,0.9-1.8,1.7-3.4,1.7c-2.3,0-3.4-1.6-3.4-3.2c0-2.7,2.4-4.2,6.7-4.1v-0.2
		c0-0.9-0.3-2.6-2.5-2.6c-1,0-2.1,0.3-2.9,0.8L119.8,7c0.9-0.6,2.3-1,3.7-1c3.4,0,4.2,2.3,4.2,4.6v4.2c0,1,0,1.9,0.2,2.7H126.1z
		 M125.8,11.7c-2.2,0-4.7,0.3-4.7,2.5c0,1.3,0.9,1.9,1.9,1.9c1.4,0,2.4-0.9,2.7-1.9c0.1-0.2,0.1-0.4,0.1-0.6V11.7z"/>
	<path fill="#FFFFFF" d="M139.5,6.2v11.1h-2V7.8h-3.8v2.9c0,3.1-0.3,5.2-1.7,6.2c-0.6,0.4-1.2,0.7-2.2,0.7l-0.2-1.6
		c0.4-0.1,0.8-0.2,1.1-0.5c1-0.8,1.1-2.3,1.1-4.8V6.2H139.5z"/>
	<path fill="#FFFFFF" d="M144.8,6.2v4.8h0.5l4.2-4.8h2.5l-4.8,5c1.8,0.2,2.9,1.4,3.7,3.4c0.3,0.7,0.7,1.8,1.2,2.7h-2.1
		c-0.3-0.5-0.7-1.4-1-2.3c-0.8-1.8-1.8-2.6-3.7-2.6h-0.4v4.9h-2V6.2H144.8z"/>
	<path fill="#FFFFFF" d="M160.2,17.4L160,16h-0.1c-0.6,0.9-1.8,1.7-3.4,1.7c-2.3,0-3.4-1.6-3.4-3.2c0-2.7,2.4-4.2,6.7-4.1v-0.2
		c0-0.9-0.3-2.6-2.5-2.6c-1,0-2.1,0.3-2.9,0.8L153.9,7c0.9-0.6,2.3-1,3.7-1c3.4,0,4.2,2.3,4.2,4.6v4.2c0,1,0,1.9,0.2,2.7H160.2z
		 M159.9,11.7c-2.2,0-4.7,0.3-4.7,2.5c0,1.3,0.9,1.9,1.9,1.9c1.4,0,2.4-0.9,2.7-1.9c0.1-0.2,0.1-0.4,0.1-0.6V11.7z"/>
</g>
</svg>
