<?xml version="1.0" encoding="UTF-8" standalone="no"?>
<svg width="206px" height="39px" viewBox="0 0 206 39" version="1.1" xmlns="http://www.w3.org/2000/svg" xmlns:xlink="http://www.w3.org/1999/xlink" xmlns:sketch="http://www.bohemiancoding.com/sketch/ns">
    <!-- Generator: Sketch 3.4.1 (15681) - http://www.bohemiancoding.com/sketch -->
    <title>white</title>
    <desc>Created with Sketch.</desc>
    <defs></defs>
    <g id="Page-1" stroke="none" stroke-width="1" fill="none" fill-rule="evenodd" sketch:type="MSPage">
        <g id="white" sketch:type="MSArtboardGroup">
            <path d="M7,0 C3.1,0 0,3.2 0,7.1 C0,9.6 1.2,11.8 3.3,13.1 C3.4,13.2 3.5,13.3 3.5,13.5 L3.5,17.2 C3.5,18.2 4.3,19 5.3,19 L8.8,19 C9.8,19 10.6,18.2 10.6,17.2 L10.6,13.5 C10.6,13.3 10.7,13.2 10.8,13.1 C12.9,11.8 14.1,9.5 14.1,7.1 C14,3.2 10.9,0 7,0 L7,0 Z M5.3,17.2 L5.3,16 L8.8,16 L8.8,17.2 L5.3,17.2 L5.3,17.2 Z M5.3,14.8 L5.3,13.6 L8.8,13.6 L8.8,14.8 L5.3,14.8 L5.3,14.8 Z M7,12.5 C4.1,12.5 1.7,10.1 1.7,7.2 C1.7,4.2 4.1,1.9 7,1.9 C9.9,1.9 12.3,4.3 12.3,7.2 C12.3,10.1 9.9,12.5 7,12.5 L7,12.5 Z" id="Shape" fill="#FFFFFF" sketch:type="MSShapeGroup"></path>
            <path d="M7,20 C3.1,20 0,23.2 0,27.1 C0,29.6 1.2,31.8 3.3,33.1 C3.4,33.2 3.5,33.3 3.5,33.5 L3.5,37.2 C3.5,38.2 4.3,39 5.3,39 L8.8,39 C9.8,39 10.6,38.2 10.6,37.2 L10.6,33.5 C10.6,33.3 10.7,33.2 10.8,33.1 C12.9,31.8 14.1,29.5 14.1,27.1 C14,23.2 10.9,20 7,20 L7,20 Z M5.3,37.2 L5.3,36 L8.8,36 L8.8,37.2 L5.3,37.2 L5.3,37.2 Z M5.3,34.8 L5.3,33.6 L8.8,33.6 L8.8,34.8 L5.3,34.8 L5.3,34.8 Z M7,32.5 C4.1,32.5 1.7,30.1 1.7,27.2 C1.7,24.2 4.1,21.9 7,21.9 C9.9,21.9 12.3,24.3 12.3,27.2 C12.3,30.1 9.9,32.5 7,32.5 L7,32.5 Z" id="Shape" opacity="0.5" fill="#FFFFFF" sketch:type="MSShapeGroup"></path>
            <g id="Group" sketch:type="MSLayerGroup" transform="translate(19.000000, 0.000000)" fill="#FFFFFF">
                <path d="M6.3,0 L7.8,0 L14.2,14.9 L12.3,14.9 L10.4,10.4 L3.7,10.4 L1.8,14.9 L7.10542736e-15,14.9 L6.3,0 L6.3,0 Z M4.4,8.8 L9.7,8.8 L7,2.4 L4.4,8.8 L4.4,8.8 Z" id="Shape" sketch:type="MSShapeGroup"></path>
                <path d="M16.2,6.1 C17,5.6 18.2,5.2 19.4,5.2 C22.1,5.2 23.1,6.6 23.1,9.1 L23.1,14.9 L21.5,14.9 L21.5,13.7 C20.9,14.4 20,15.1 18.5,15.1 C16.8,15.1 15.6,14 15.6,12.2 C15.6,10.3 17.1,9.2 19.2,9.2 C19.9,9.2 20.9,9.3 21.6,9.8 C21.6,8 21.3,6.8 19.4,6.8 C18.2,6.8 17.5,7.1 16.8,7.5 L16.2,6.1 L16.2,6.1 Z M21.5,12.3 L21.5,11.1 C20.9,10.7 20.2,10.5 19.4,10.5 C18.4,10.5 17.4,11 17.4,12.1 C17.4,13 18,13.6 19.1,13.6 C20.2,13.6 21,12.9 21.5,12.3 L21.5,12.3 Z" id="Shape" sketch:type="MSShapeGroup"></path>
            </g>
            <path d="M20.4,8.7 L23.1,2.4 L23.9,-8.8817842e-16 L22.4,-8.8817842e-16 L16,14.9 L17.8,14.9 L19.7,10.4 L20.4,8.7 Z" id="Shape" fill="#FFFFFF" sketch:type="MSShapeGroup"></path>
            <g id="Group" sketch:type="MSLayerGroup" transform="translate(44.000000, 0.000000)" fill="#FFFFFF">
                <path d="M1.2,6.1 C2,5.6 3.2,5.2 4.4,5.2 C7.1,5.2 8.1,6.6 8.1,9.1 L8.1,15 L6.5,15 L6.5,13.8 C5.9,14.5 5,15.2 3.5,15.2 C1.8,15.2 0.6,14.1 0.6,12.3 C0.6,10.4 2.1,9.3 4.2,9.3 C4.9,9.3 5.9,9.4 6.6,9.9 C6.6,8.1 6.3,6.9 4.4,6.9 C3.2,6.9 2.5,7.2 1.8,7.6 L1.2,6.1 L1.2,6.1 Z M6.4,12.4 L6.4,11.2 C5.8,10.8 5.1,10.6 4.3,10.6 C3.3,10.6 2.3,11.1 2.3,12.2 C2.3,13.1 2.9,13.7 4,13.7 C5.2,13.6 6,13 6.4,12.4 L6.4,12.4 Z" id="Shape" sketch:type="MSShapeGroup"></path>
                <path d="M16.1,0.1 L17.6,0.1 L24.1,15 L22.2,15 L20.3,10.5 L13.6,10.5 L11.6,15 L9.8,15 L16.1,0.1 L16.1,0.1 Z M14.2,8.8 L19.5,8.8 L16.8,2.5 L14.2,8.8 L14.2,8.8 Z" id="Shape" sketch:type="MSShapeGroup"></path>
            </g>
            <path d="M45,0 L49,4 L52.9,0 L45,0 Z" id="Shape" fill="#FFFFFF" sketch:type="MSShapeGroup"></path>
            <g id="Group" sketch:type="MSLayerGroup" transform="translate(82.000000, 0.000000)" fill="#FFFFFF">
                <path d="M14,0 L2,0 C0.9,0 0,0.9 0,2 L0,17 C0,18.1 0.9,19 2,19 L14,19 C15.1,19 16,18.1 16,17 L16,2 C16,0.9 15.1,0 14,0 L14,0 Z M14,17 L2,17 L2,2 L14,2 L14,17 L14,17 Z" id="Shape" sketch:type="MSShapeGroup"></path>
                <rect id="Rectangle-path" sketch:type="MSShapeGroup" x="5" y="5" width="6" height="2"></rect>
                <rect id="Rectangle-path" sketch:type="MSShapeGroup" x="5" y="8" width="6" height="2"></rect>
                <rect id="Rectangle-path" sketch:type="MSShapeGroup" x="5" y="11" width="6" height="2"></rect>
            </g>
            <g id="Group" sketch:type="MSLayerGroup" transform="translate(99.000000, 0.000000)" fill="#FFFFFF">
                <path d="M14,0 L2,0 C0.9,0 0,0.9 0,2 L0,17 C0,18.1 0.9,19 2,19 L14,19 C15.1,19 16,18.1 16,17 L16,2 C16,0.9 15.1,0 14,0 L14,0 Z M14,17 L2,17 L2,2 L14,2 L14,17 L14,17 Z" id="Shape" sketch:type="MSShapeGroup"></path>
                <rect id="Rectangle-path" sketch:type="MSShapeGroup" x="4" y="4" width="8" height="2"></rect>
                <rect id="Rectangle-path" sketch:type="MSShapeGroup" x="4" y="8" width="8" height="2"></rect>
                <rect id="Rectangle-path" sketch:type="MSShapeGroup" x="4" y="12" width="8" height="2"></rect>
            </g>
            <path d="M118.8,2.3 L122.4,5.8 L128,0.1 L130.9,2.9 L122.5,11.5 L116,5.1 L118.8,2.3 L118.8,2.3 Z" id="Shape" fill="#FFFFFF" sketch:type="MSShapeGroup"></path>
            <path d="M118.8,29.3 L122.4,32.8 L128,27.1 L130.9,29.9 L122.5,38.5 L116,32.2 L118.8,29.3 L118.8,29.3 Z" id="Shape" opacity="0.5" fill="#FFFFFF" sketch:type="MSShapeGroup"></path>
            <path d="M148.8,29.3 L152.4,32.8 L156,29.1 L158.9,31.9 L152.5,38.5 L146,32.2 L148.8,29.3 L148.8,29.3 Z" id="Shape" opacity="0.5" fill="#FFFFFF" sketch:type="MSShapeGroup"></path>
            <path d="M142,37.7 L138.4,34.2 L134.8,37.9 L131.9,35.1 L138.3,28.5 L144.8,34.8 L142,37.7 L142,37.7 Z" id="Shape" opacity="0.5" fill="#FFFFFF" sketch:type="MSShapeGroup"></path>
            <path d="M183,15 L183,16 L160.1,16 L160.1,15 L161.8,15 L163.7,10.5 L170.4,10.5 L172.3,15 L174.2,15 L167.8,0.1 L166.3,0.1 L160.1,14.7634921 L160.1,0.1 L183,0.1 L183,7.86571531 C182.687845,6.14393495 181.617026,5.2 179.4,5.2 C178.2,5.2 177,5.6 176.2,6.1 L176.8,7.6 C177.5,7.2 178.2,6.9 179.4,6.9 C181.3,6.9 181.6,8.1 181.6,9.9 C180.9,9.4 179.9,9.3 179.2,9.3 C177.1,9.3 175.6,10.4 175.6,12.3 C175.6,14.1 176.8,15.2 178.5,15.2 C180,15.2 180.9,14.5 181.5,13.8 L181.5,15 L183,15 Z M164.4,8.8 L169.7,8.8 L167,2.5 L164.4,8.8 Z M181.5,12.4 L181.5,11.2 C180.9,10.8 180.2,10.6 179.4,10.6 C178.4,10.6 177.4,11.1 177.4,12.2 C177.4,13.1 178,13.7 179.1,13.7 C180.2,13.6 181,13 181.5,12.4 Z" id="Rectangle-path" fill="#FFFFFF" sketch:type="MSShapeGroup"></path>
            <g id="Group" sketch:type="MSLayerGroup" transform="translate(175.000000, 5.000000)"></g>
            <path d="M190.2,3.1 L191.7,3.1 L198.1,18 L196.2,18 L194.3,13.5 L187.6,13.5 L185.7,18 L183.9,18 L190.2,3.1 L190.2,3.1 Z M188.3,11.8 L193.6,11.8 L190.9,5.5 L188.3,11.8 L188.3,11.8 Z" id="Shape" fill="#FFFFFF" sketch:type="MSShapeGroup"></path>
            <path d="M205.5,0.4 C204.7,-0.3 204.1,-0.1 203.6,0.3 C203.1,0.6 201.4,2.5 201.4,2.5 L200.5,2.4 L199.6,3.3 L200,3.9 L195.9,8 L195.5,10 L195.9,10.4 L197.8,10.1 L202,5.9 L202.6,6.3 L203.6,5.4 L203.3,4.6 L205.6,2.3 C205.8,2.2 206.4,1.1 205.5,0.4 L205.5,0.4 Z M197.8,9.5 L196.3,9.8 L196.2,9.7 L196.6,8.2 L200.5,4.3 L201.7,5.4 L197.8,9.5 L197.8,9.5 Z" id="Shape" fill="#FFFFFF" sketch:type="MSShapeGroup"></path>
            <path d="M72.2675644,12 C72.6133738,12.5978014 73.2597176,13 74,13 C74.7402824,13 75.3866262,12.5978014 75.7324356,12 L80.009222,12 C80.5490248,12 81,11.5522847 81,11 C81,10.4438648 80.5564136,10 80.009222,10 L75.7324356,10 C75.3866262,9.40219863 74.7402824,9 74,9 C73.2597176,9 72.6133738,9.40219863 72.2675644,10 L70.9989566,10 C70.4426603,10 70,10.4477153 70,11 C70,11.5561352 70.4472481,12 70.9989566,12 L72.2675644,12 L72.2675644,12 Z M75.2675644,8 C75.6133738,8.59780137 76.2597176,9 77,9 C77.7402824,9 78.3866262,8.59780137 78.7324356,8 L80.0010434,8 C80.5573397,8 81,7.55228475 81,7 C81,6.44386482 80.5527519,6 80.0010434,6 L78.7324356,6 C78.3866262,5.40219863 77.7402824,5 77,5 C76.2597176,5 75.6133738,5.40219863 75.2675644,6 L70.990778,6 C70.4509752,6 70,6.44771525 70,7 C70,7.55613518 70.4435864,8 70.990778,8 L75.2675644,8 L75.2675644,8 Z M72.2675644,4 C72.6133738,4.59780137 73.2597176,5 74,5 C74.7402824,5 75.3866262,4.59780137 75.7324356,4 L80.009222,4 C80.5490248,4 81,3.55228475 81,3 C81,2.44386482 80.5564136,2 80.009222,2 L75.7324356,2 C75.3866262,1.40219863 74.7402824,1 74,1 C73.2597176,1 72.6133738,1.40219863 72.2675644,2 L70.9989566,2 C70.4426603,2 70,2.44771525 70,3 C70,3.55613518 70.4472481,4 70.9989566,4 L72.2675644,4 L72.2675644,4 Z M74,4 C74.5522847,4 75,3.55228475 75,3 C75,2.44771525 74.5522847,2 74,2 C73.4477153,2 73,2.44771525 73,3 C73,3.55228475 73.4477153,4 74,4 L74,4 Z M77,8 C77.5522847,8 78,7.55228475 78,7 C78,6.44771525 77.5522847,6 77,6 C76.4477153,6 76,6.44771525 76,7 C76,7.55228475 76.4477153,8 77,8 L77,8 Z M74,12 C74.5522847,12 75,11.5522847 75,11 C75,10.4477153 74.5522847,10 74,10 C73.4477153,10 73,10.4477153 73,11 C73,11.5522847 73.4477153,12 74,12 L74,12 Z" id="Rectangle-20" fill="#FFFFFF" sketch:type="MSShapeGroup"></path>
        </g>
    </g>
</svg>