<?xml version="1.0" encoding="UTF-8" standalone="no"?>
<svg width="213px" height="142px" viewBox="0 0 213 142" version="1.1" xmlns="http://www.w3.org/2000/svg" xmlns:xlink="http://www.w3.org/1999/xlink" xmlns:sketch="http://www.bohemiancoding.com/sketch/ns">
    <!-- Generator: Sketch 3.4.1 (15681) - http://www.bohemiancoding.com/sketch -->
    <title>3_icons</title>
    <desc>Created with Sketch.</desc>
    <defs></defs>
    <g id="Page-1" stroke="none" stroke-width="1" fill="none" fill-rule="evenodd" sketch:type="MSPage">
        <g id="3_icons" sketch:type="MSArtboardGroup">
            <path d="M35.5,52 L35.5,52 C44.6126984,52 52,44.6126984 52,35.5 C52,26.3873016 44.6126984,19 35.5,19 C26.3873016,19 19,26.3873016 19,35.5 C19,44.6126984 26.3873016,52 35.5,52 L35.5,52 L35.5,52 L35.5,52 Z M35.5,53 C25.8350169,53 18,45.1649831 18,35.5 C18,25.8350169 25.8350169,18 35.5,18 C45.1649831,18 53,25.8350169 53,35.5 C53,45.1649831 45.1649831,53 35.5,53 L35.5,53 L35.5,53 Z M32.7272727,39.2835821 L28.4318182,35.2089552 L27,36.5671642 L32.7272727,42 L45,30.358209 L43.5681818,29 L32.7272727,39.2835821 L32.7272727,39.2835821 L32.7272727,39.2835821 Z" id="Shape" fill="#3B393F" sketch:type="MSShapeGroup"></path>
            <path d="M103,24 L110,31 L110,52 L90,52 L90,24 L103,24 L103,24 L103,24 L103,24 L103,24 Z M102,25 L91,25 L91,51 L109,51 L109,32 L102,32 L102,25 L102,25 L102,25 L102,25 L102,25 Z M103,25.4997559 L103,31 L108.500061,31 L103,25.4997559 L103,25.4997559 L103,25.4997559 L103,25.4997559 L103,25.4997559 Z M124,26 L124,47 L112,47 L112,30 L104,22 L104,19 L117,19 L124,26 L124,26 L124,26 L124,26 L124,26 Z M116,20 L105,20 L105,23 L112,30 L112,46 L123,46 L123,27 L116,27 L116,20 L116,20 L116,20 L116,20 L116,20 Z M117,20.4997559 L117,26 L122.500061,26 L117,20.4997559 L117,20.4997559 L117,20.4997559 L117,20.4997559 L117,20.4997559 Z" id="Shape" fill="#3B393F" sketch:type="MSShapeGroup"></path>
            <path d="M166,26.0013428 L164.504684,26.0003388 C164.225955,26.0001517 164,25.7680664 164,25.5 C164,25.2238576 164.214035,25 164.504684,25 L166,25 L172,25 L172,20.9998075 C172,20.4476291 172.444837,20 172.995577,20 L182.004423,20 C182.554265,20 182.999588,20.4437166 182.999072,20.9998075 L182.995361,25 L189,25 L190.495316,25 C190.774045,25 191,25.2319336 191,25.5 C191,25.7761424 190.785965,26 190.495316,26 L189,26 L189,50.9967004 C189,51.5508075 188.561082,52 187.996929,52 L167.003071,52 C166.44909,52 166,51.5487446 166,50.9967522 L166,26.0013428 L166,26.0013428 L166,26.0013428 L166,26.0013428 Z M167,26 L188,26 L188,51 L167,51 L167,26 L167,26 L167,26 L167,26 Z M173,21 L182,21 L182,25 L173,25 L173,21 L173,21 L173,21 L173,21 Z M172,32.493741 C172,32.2210554 172.231934,32 172.5,32 C172.776142,32 173,32.2256393 173,32.493741 L173,44.506259 C173,44.7789446 172.768066,45 172.5,45 C172.223858,45 172,44.7743607 172,44.506259 L172,32.493741 L172,32.493741 L172,32.493741 L172,32.493741 Z M177,32.493741 C177,32.2210554 177.231934,32 177.5,32 C177.776142,32 178,32.2256393 178,32.493741 L178,44.506259 C178,44.7789446 177.768066,45 177.5,45 C177.223858,45 177,44.7743607 177,44.506259 L177,32.493741 L177,32.493741 L177,32.493741 L177,32.493741 Z M182,32.493741 C182,32.2210554 182.231934,32 182.5,32 C182.776142,32 183,32.2256393 183,32.493741 L183,44.506259 C183,44.7789446 182.768066,45 182.5,45 C182.223858,45 182,44.7743607 182,44.506259 L182,32.493741 L182,32.493741 L182,32.493741 L182,32.493741 Z" id="Rectangle-90" fill="#3B393F" sketch:type="MSShapeGroup"></path>
            <path d="M35.5,123 L35.5,123 C44.6126984,123 52,115.612698 52,106.5 C52,97.3873016 44.6126984,90 35.5,90 C26.3873016,90 19,97.3873016 19,106.5 C19,115.612698 26.3873016,123 35.5,123 L35.5,123 L35.5,123 L35.5,123 Z M35.5,124 C25.8350169,124 18,116.164983 18,106.5 C18,96.8350169 25.8350169,89 35.5,89 C45.1649831,89 53,96.8350169 53,106.5 C53,116.164983 45.1649831,124 35.5,124 L35.5,124 L35.5,124 Z M32.7272727,110.283582 L28.4318182,106.208955 L27,107.567164 L32.7272727,113 L45,101.358209 L43.5681818,100 L32.7272727,110.283582 L32.7272727,110.283582 L32.7272727,110.283582 Z" id="Shape" fill="#FFFFFF" sketch:type="MSShapeGroup"></path>
            <path d="M103,95 L110,102 L110,123 L90,123 L90,95 L103,95 L103,95 L103,95 L103,95 L103,95 Z M102,96 L91,96 L91,122 L109,122 L109,103 L102,103 L102,96 L102,96 L102,96 L102,96 L102,96 Z M103,96.4997559 L103,102 L108.500061,102 L103,96.4997559 L103,96.4997559 L103,96.4997559 L103,96.4997559 L103,96.4997559 Z M124,97 L124,118 L112,118 L112,101 L104,93 L104,90 L117,90 L124,97 L124,97 L124,97 L124,97 L124,97 Z M116,91 L105,91 L105,94 L112,101 L112,117 L123,117 L123,98 L116,98 L116,91 L116,91 L116,91 L116,91 L116,91 Z M117,91.4997559 L117,97 L122.500061,97 L117,91.4997559 L117,91.4997559 L117,91.4997559 L117,91.4997559 L117,91.4997559 Z" id="Shape" fill="#FFFFFF" sketch:type="MSShapeGroup"></path>
            <path d="M166,97.0013428 L164.504684,97.0003388 C164.225955,97.0001517 164,96.7680664 164,96.5 C164,96.2238576 164.214035,96 164.504684,96 L166,96 L172,96 L172,91.9998075 C172,91.4476291 172.444837,91 172.995577,91 L182.004423,91 C182.554265,91 182.999588,91.4437166 182.999072,91.9998075 L182.995361,96 L189,96 L190.495316,96 C190.774045,96 191,96.2319336 191,96.5 C191,96.7761424 190.785965,97 190.495316,97 L189,97 L189,121.9967 C189,122.550807 188.561082,123 187.996929,123 L167.003071,123 C166.44909,123 166,122.548745 166,121.996752 L166,97.0013428 L166,97.0013428 L166,97.0013428 L166,97.0013428 Z M167,97 L188,97 L188,122 L167,122 L167,97 L167,97 L167,97 L167,97 Z M173,92 L182,92 L182,96 L173,96 L173,92 L173,92 L173,92 L173,92 Z M172,103.493741 C172,103.221055 172.231934,103 172.5,103 C172.776142,103 173,103.225639 173,103.493741 L173,115.506259 C173,115.778945 172.768066,116 172.5,116 C172.223858,116 172,115.774361 172,115.506259 L172,103.493741 L172,103.493741 L172,103.493741 L172,103.493741 Z M177,103.493741 C177,103.221055 177.231934,103 177.5,103 C177.776142,103 178,103.225639 178,103.493741 L178,115.506259 C178,115.778945 177.768066,116 177.5,116 C177.223858,116 177,115.774361 177,115.506259 L177,103.493741 L177,103.493741 L177,103.493741 L177,103.493741 Z M182,103.493741 C182,103.221055 182.231934,103 182.5,103 C182.776142,103 183,103.225639 183,103.493741 L183,115.506259 C183,115.778945 182.768066,116 182.5,116 C182.223858,116 182,115.774361 182,115.506259 L182,103.493741 L182,103.493741 L182,103.493741 L182,103.493741 Z" id="Rectangle-90" fill="#FFFFFF" sketch:type="MSShapeGroup"></path>
        </g>
    </g>
</svg>