<?xml version="1.0" encoding="utf-8"?>
<!-- Generator: Adobe Illustrator 17.0.0, SVG Export Plug-In . SVG Version: 6.00 Build 0)  -->
<!DOCTYPE svg PUBLIC "-//W3C//DTD SVG 1.1//EN" "http://www.w3.org/Graphics/SVG/1.1/DTD/svg11.dtd">
<svg version="1.1" id="Layer_1" xmlns:sketch="http://www.bohemiancoding.com/sketch/ns"
	 xmlns="http://www.w3.org/2000/svg" xmlns:xlink="http://www.w3.org/1999/xlink" x="0px" y="0px" width="306px" height="204px"
	 viewBox="0 0 306 204" enable-background="new 0 0 306 204" xml:space="preserve">
<title>topmenu_icons_2015</title>
<desc>Created with Sketch.</desc>
<path id="Fill-1" sketch:type="MSShapeGroup" fill="#3B393F" d="M297,8h-5v1h5v4h1V8H297z M297,25h-5v1h6v-5h-1V25z M281,21h-1v5h6
	v-1h-5V21z M281,9h5V8h-6v5h1V9z M282,24h14V10h-14V24z M283,11h12v12h-12V11z"/>
<path id="Fill-1_1_" sketch:type="MSShapeGroup" fill="#3B393F" d="M263,8h-5v1h5v4h1V8H263z M258,25v1h6v-5h-1v4H258z M247,21h-1v5
	h6v-1h-5V21z M252,9V8h-6v5h1V9H252z M249,20h12v-6h-12V20z M250,15h10v4h-10V15z"/>
<path id="Imported-Layers" sketch:type="MSShapeGroup" fill="#3B393F" d="M117.66,24.882l-0.34-0.136
	c-1.739-0.662-4.578-1.006-6.488-1.006c-0.576,0-1.135,0.035-2.151,0.097L108,23.877V10h1v12.814
	c0.783-0.048,1.307-0.076,1.833-0.076c2.001,0,4.992,0.367,6.834,1.068l0.25,0.089h3.235l0.258-0.093
	c1.92-0.73,4.851-1.064,6.758-1.064c0.526,0,1.05,0.028,1.832,0.076V10h1v13.878l-0.684-0.042c-1.014-0.062-1.573-0.097-2.148-0.097
	c-1.876,0-4.68,0.344-6.411,1.002l-0.431,0.155L117.66,24.882z M119.584,22.864l-0.242-0.134c-1.931-1.068-4.548-1.707-7-1.707
	c-0.55,0-1.096,0.036-1.8,0.094L110,21.163V8.136l0.458-0.038C111.22,8.035,111.78,8,112,8c2.802,0,5.481,0.603,7.583,1.701
	C121.704,8.587,124.262,8,127,8c0.22,0,0.78,0.035,1.542,0.098L129,8.136v13.026l-0.541-0.044c-0.705-0.058-1.251-0.094-1.8-0.094
	c-2.417,0-4.844,0.606-6.833,1.707L119.584,22.864L119.584,22.864z M112.341,20.024c2.313,0,4.771,0.536,6.743,1.455v-10.91
	c-1.955-1.013-4.457-1.568-7.084-1.568c-0.161,0-0.515,0.021-1,0.058V20.08C111.486,20.044,111.91,20.024,112.341,20.024
	L112.341,20.024z M120.084,10.567v10.908c1.981-0.939,4.284-1.451,6.575-1.451c0.431,0,0.855,0.021,1.341,0.055V9.058
	C127.515,9.021,127.161,9,127,9C124.439,9,122.055,9.541,120.084,10.567L120.084,10.567z"/>
<path id="Shape" sketch:type="MSShapeGroup" fill="#3B393F" d="M191.025,21.232l0.707-0.707l4.243,4.243l-0.707,0.707
	L191.025,21.232L191.025,21.232z M186,23L186,23c3.866,0,7-3.134,7-7s-3.134-7-7-7s-7,3.134-7,7S182.134,23,186,23L186,23L186,23z
	 M186,24L186,24c-4.418,0-8-3.582-8-8s3.582-8,8-8s8,3.582,8,8S190.418,24,186,24L186,24L186,24z M185.648,18.883h1.069V20h-1.069
	V18.883z M184.493,12.714c0.437-0.471,1.037-0.706,1.799-0.706c0.705,0,1.27,0.201,1.695,0.604s0.636,0.918,0.636,1.544
	c0,0.38-0.078,0.687-0.234,0.924s-0.47,0.584-0.943,1.042c-0.344,0.333-0.567,0.615-0.669,0.846s-0.153,0.572-0.153,1.023h-0.956
	c0-0.512,0.061-0.925,0.183-1.238s0.389-0.672,0.8-1.077l0.43-0.424c0.129-0.122,0.233-0.249,0.312-0.381
	c0.143-0.233,0.215-0.474,0.215-0.725c0-0.351-0.105-0.655-0.314-0.913s-0.556-0.387-1.039-0.387c-0.598,0-1.012,0.222-1.241,0.666
	c-0.129,0.247-0.202,0.603-0.22,1.069h-0.956C183.838,13.807,184.056,13.185,184.493,12.714L184.493,12.714z"/>
<path id="Shape_1_" sketch:type="MSShapeGroup" fill="#3B393F" d="M58.581,13.921l-1.072-1.856l-2.534,0.721l-2.297-1.324
	l-0.636-2.465l-2.183-0.009l-0.736,2.483l-2.267,1.306l-2.517-0.653l-1.075,1.84l1.859,1.742v2.656l-1.78,1.792l1.067,1.867
	l2.523-0.718l2.277,1.312L49.95,25l2.207-0.014l0.725-2.369l2.262-1.304l2.524,0.65l1.074-1.775l-1.957-1.798v-2.655L58.581,13.921z
	 M57.785,16.141v1.809L60,19.985l-1.846,3.121l-2.862-0.724l-1.569,0.905L52.892,26H49.2l-0.831-2.714L46.8,22.382l-2.862,0.814
	l-1.846-3.211l2.031-2.035v-1.809L42,14.151l1.846-3.166l2.862,0.724l1.569-0.905L49.108,8H52.8l0.738,2.804l1.569,0.905
	l2.862-0.814l1.846,3.166L57.785,16.141z M51.012,21c-2.188,0-4.016-1.818-4.016-4s1.828-4,4.016-4s4.016,1.818,4.016,4
	S53.201,21,51.012,21z M51.012,20c1.637,0,3.016-1.371,3.016-3s-1.379-3-3.016-3s-3.016,1.371-3.016,3S49.375,20,51.012,20z"/>
<path id="Fill-1-Copy" sketch:type="MSShapeGroup" fill="#FF4C00" d="M297,42h-5v1h5v4h1v-5H297z M297,59h-5v1h6v-5h-1V59z M281,55
	h-1v5h6v-1h-5V55z M281,43h5v-1h-6v5h1V43z M282,58h14V44h-14V58z M283,45h12v12h-12V45z"/>
<path id="Fill-1-Copy-2" sketch:type="MSShapeGroup" fill="#FF4C00" d="M263,42h-5v1h5v4h1v-5H263z M258,59v1h6v-5h-1v4H258z
	 M247,55h-1v5h6v-1h-5V55z M252,43v-1h-6v5h1v-4H252z M249,54h12v-6h-12V54z M250,49h10v4h-10V49z"/>
<path id="Imported-Layers-Copy" sketch:type="MSShapeGroup" fill="#FF4C00" d="M117.66,58.882l-0.34-0.137
	c-1.739-0.662-4.578-1.006-6.488-1.006c-0.576,0-1.135,0.035-2.151,0.097L108,57.877V44h1v12.814
	c0.783-0.048,1.307-0.076,1.833-0.076c2.001,0,4.992,0.367,6.834,1.068l0.25,0.089h3.235l0.258-0.093
	c1.92-0.73,4.851-1.064,6.758-1.064c0.526,0,1.05,0.028,1.832,0.076V44h1v13.878l-0.684-0.042c-1.014-0.062-1.573-0.097-2.148-0.097
	c-1.876,0-4.68,0.344-6.411,1.002l-0.431,0.155L117.66,58.882z M119.584,56.864l-0.242-0.134c-1.931-1.068-4.548-1.707-7-1.707
	c-0.55,0-1.096,0.036-1.8,0.094L110,55.163V42.136l0.458-0.038C111.22,42.035,111.78,42,112,42c2.802,0,5.481,0.603,7.583,1.701
	C121.704,42.587,124.262,42,127,42c0.22,0,0.78,0.035,1.542,0.098L129,42.136v13.026l-0.541-0.044
	c-0.705-0.058-1.251-0.094-1.8-0.094c-2.417,0-4.844,0.606-6.833,1.707L119.584,56.864L119.584,56.864z M112.341,54.024
	c2.313,0,4.771,0.536,6.743,1.455v-10.91c-1.955-1.013-4.457-1.568-7.084-1.568c-0.161,0-0.515,0.021-1,0.058V54.08
	C111.486,54.044,111.91,54.024,112.341,54.024L112.341,54.024z M120.084,44.567v10.908c1.981-0.939,4.284-1.451,6.575-1.451
	c0.431,0,0.855,0.021,1.341,0.055V43.058c-0.485-0.037-0.839-0.058-1-0.058C124.439,43,122.055,43.541,120.084,44.567
	L120.084,44.567z"/>
<path id="Shape-Copy" sketch:type="MSShapeGroup" fill="#FF4C00" d="M191.025,55.232l0.707-0.707l4.243,4.243l-0.707,0.707
	L191.025,55.232L191.025,55.232z M186,57L186,57c3.866,0,7-3.134,7-7s-3.134-7-7-7s-7,3.134-7,7S182.134,57,186,57L186,57L186,57z
	 M186,58L186,58c-4.418,0-8-3.582-8-8s3.582-8,8-8s8,3.582,8,8S190.418,58,186,58L186,58L186,58z M185.648,52.883h1.069V54h-1.069
	V52.883z M184.493,46.714c0.437-0.471,1.037-0.706,1.799-0.706c0.705,0,1.27,0.201,1.695,0.604s0.636,0.918,0.636,1.544
	c0,0.38-0.078,0.688-0.234,0.924s-0.47,0.584-0.943,1.042c-0.344,0.333-0.567,0.615-0.669,0.846s-0.153,0.572-0.153,1.023h-0.956
	c0-0.512,0.061-0.925,0.183-1.238s0.389-0.672,0.8-1.077l0.43-0.424c0.129-0.122,0.233-0.249,0.312-0.381
	c0.143-0.233,0.215-0.474,0.215-0.725c0-0.351-0.105-0.655-0.314-0.913s-0.556-0.387-1.039-0.387c-0.598,0-1.012,0.222-1.241,0.666
	c-0.129,0.247-0.202,0.603-0.22,1.069h-0.956C183.838,47.807,184.056,47.185,184.493,46.714L184.493,46.714z"/>
<path id="Shape-Copy-2" sketch:type="MSShapeGroup" fill="#FF4C00" d="M58.581,47.921l-1.072-1.856l-2.534,0.721l-2.297-1.324
	l-0.636-2.465l-2.183-0.009l-0.736,2.483l-2.267,1.306l-2.517-0.653l-1.075,1.84l1.859,1.742v2.656l-1.78,1.792l1.067,1.867
	l2.523-0.718l2.277,1.312L49.95,59l2.207-0.014l0.725-2.369l2.262-1.304l2.524,0.65l1.074-1.775l-1.957-1.798v-2.655L58.581,47.921z
	 M57.785,50.141v1.809L60,53.985l-1.846,3.121l-2.862-0.724l-1.569,0.905L52.892,60H49.2l-0.831-2.714L46.8,56.382l-2.862,0.814
	l-1.846-3.211l2.031-2.035v-1.809L42,48.151l1.846-3.166l2.862,0.724l1.569-0.905L49.108,42H52.8l0.738,2.804l1.569,0.905
	l2.862-0.814l1.846,3.166L57.785,50.141z M51.012,55c-2.188,0-4.016-1.818-4.016-4s1.828-4,4.016-4s4.016,1.818,4.016,4
	S53.201,55,51.012,55z M51.012,54c1.637,0,3.016-1.371,3.016-3s-1.379-3-3.016-3s-3.016,1.371-3.016,3S49.375,54,51.012,54z"/>
<path id="Fill-1-Copy-5" sketch:type="MSShapeGroup" opacity="0.7" fill="#3B393F" enable-background="new    " d="M297,76h-5v1h5v4
	h1v-5H297z M297,93h-5v1h6v-5h-1V93z M281,89h-1v5h6v-1h-5V89z M281,77h5v-1h-6v5h1V77z M282,92h14V78h-14V92z M283,79h12v12h-12V79
	z"/>
<path id="Fill-1-Copy-6" sketch:type="MSShapeGroup" opacity="0.7" fill="#3B393F" enable-background="new    " d="M263,76h-5v1h5v4
	h1v-5H263z M258,93v1h6v-5h-1v4H258z M247,89h-1v5h6v-1h-5V89z M252,77v-1h-6v5h1v-4H252z M249,88h12v-6h-12V88z M250,83h10v4h-10
	V83z"/>
<path id="Imported-Layers-Copy-2" sketch:type="MSShapeGroup" opacity="0.7" fill="#3B393F" enable-background="new    " d="
	M117.66,92.882l-0.34-0.136c-1.739-0.662-4.578-1.006-6.488-1.006c-0.576,0-1.135,0.035-2.151,0.097L108,91.877V78h1v12.814
	c0.783-0.048,1.307-0.076,1.833-0.076c2.001,0,4.992,0.367,6.834,1.068l0.25,0.089h3.235l0.258-0.093
	c1.92-0.73,4.851-1.064,6.758-1.064c0.526,0,1.05,0.028,1.832,0.076V78h1v13.878l-0.684-0.042c-1.014-0.062-1.573-0.097-2.148-0.097
	c-1.876,0-4.68,0.344-6.411,1.002l-0.431,0.155L117.66,92.882z M119.584,90.864l-0.242-0.134c-1.931-1.068-4.548-1.707-7-1.707
	c-0.55,0-1.096,0.036-1.8,0.094L110,89.163V76.136l0.458-0.038C111.22,76.035,111.78,76,112,76c2.802,0,5.481,0.603,7.583,1.701
	C121.704,76.587,124.262,76,127,76c0.22,0,0.78,0.035,1.542,0.098L129,76.136v13.026l-0.541-0.044
	c-0.705-0.058-1.251-0.094-1.8-0.094c-2.417,0-4.844,0.606-6.833,1.707L119.584,90.864L119.584,90.864z M112.341,88.024
	c2.313,0,4.771,0.536,6.743,1.455v-10.91c-1.955-1.013-4.457-1.568-7.084-1.568c-0.161,0-0.515,0.021-1,0.058V88.08
	C111.486,88.044,111.91,88.024,112.341,88.024L112.341,88.024z M120.084,78.567v10.908c1.981-0.939,4.284-1.451,6.575-1.451
	c0.431,0,0.855,0.021,1.341,0.055V77.058c-0.485-0.037-0.839-0.058-1-0.058C124.439,77,122.055,77.541,120.084,78.567
	L120.084,78.567z"/>
<path id="Shape-Copy-4" sketch:type="MSShapeGroup" opacity="0.7" fill="#3B393F" enable-background="new    " d="M191.025,89.232
	l0.707-0.707l4.243,4.243l-0.707,0.707L191.025,89.232L191.025,89.232z M186,91L186,91c3.866,0,7-3.134,7-7s-3.134-7-7-7
	s-7,3.134-7,7S182.134,91,186,91L186,91L186,91z M186,92L186,92c-4.418,0-8-3.582-8-8s3.582-8,8-8s8,3.582,8,8S190.418,92,186,92
	L186,92L186,92z M185.648,86.883h1.069V88h-1.069V86.883z M184.493,80.714c0.437-0.471,1.037-0.706,1.799-0.706
	c0.705,0,1.27,0.201,1.695,0.604s0.636,0.918,0.636,1.544c0,0.38-0.078,0.688-0.234,0.924s-0.47,0.584-0.943,1.042
	c-0.344,0.333-0.567,0.615-0.669,0.846s-0.153,0.572-0.153,1.023h-0.956c0-0.512,0.061-0.925,0.183-1.238s0.389-0.672,0.8-1.077
	l0.43-0.424c0.129-0.122,0.233-0.249,0.312-0.381c0.143-0.233,0.215-0.474,0.215-0.725c0-0.351-0.105-0.655-0.314-0.913
	s-0.556-0.387-1.039-0.387c-0.598,0-1.012,0.222-1.241,0.666c-0.129,0.247-0.202,0.603-0.22,1.069h-0.956
	C183.838,81.807,184.056,81.185,184.493,80.714L184.493,80.714z"/>
<path id="Shape-Copy-5" sketch:type="MSShapeGroup" opacity="0.7" fill="#3B393F" enable-background="new    " d="M58.581,81.921
	l-1.072-1.856l-2.534,0.721l-2.297-1.324l-0.636-2.465l-2.183-0.009l-0.736,2.483l-2.267,1.306l-2.517-0.653l-1.075,1.84
	l1.859,1.742v2.656l-1.78,1.792l1.067,1.867l2.523-0.718l2.277,1.312L49.95,93l2.207-0.014l0.725-2.369l2.262-1.304l2.524,0.65
	l1.074-1.775l-1.957-1.798v-2.655L58.581,81.921z M57.785,84.141v1.809L60,87.985l-1.846,3.121l-2.862-0.724l-1.569,0.905L52.892,94
	H49.2l-0.831-2.714L46.8,90.382l-2.862,0.814l-1.846-3.211l2.031-2.035v-1.809L42,82.151l1.846-3.166l2.862,0.724l1.569-0.905
	L49.108,76H52.8l0.738,2.804l1.569,0.905l2.862-0.814l1.846,3.166L57.785,84.141z M51.012,89c-2.188,0-4.016-1.818-4.016-4
	s1.828-4,4.016-4s4.016,1.818,4.016,4S53.201,89,51.012,89z M51.012,88c1.637,0,3.016-1.371,3.016-3s-1.379-3-3.016-3
	s-3.016,1.371-3.016,3S49.375,88,51.012,88z"/>
<path id="Fill-1-Copy-9" sketch:type="MSShapeGroup" opacity="0.7" fill="#FF4C00" enable-background="new    " d="M297,110h-5v1h5
	v4h1v-5H297z M297,127h-5v1h6v-5h-1V127z M281,123h-1v5h6v-1h-5V123z M281,111h5v-1h-6v5h1V111z M282,126h14v-14h-14V126z M283,113
	h12v12h-12V113z"/>
<path id="Fill-1-Copy-10" sketch:type="MSShapeGroup" opacity="0.7" fill="#FF4C00" enable-background="new    " d="M263,110h-5v1h5
	v4h1v-5H263z M258,127v1h6v-5h-1v4H258z M247,123h-1v5h6v-1h-5V123z M252,111v-1h-6v5h1v-4H252z M249,122h12v-6h-12V122z M250,117
	h10v4h-10V117z"/>
<path id="Imported-Layers-Copy-3" sketch:type="MSShapeGroup" opacity="0.7" fill="#FF4C00" enable-background="new    " d="
	M117.66,126.882l-0.34-0.136c-1.739-0.662-4.578-1.006-6.488-1.006c-0.576,0-1.135,0.035-2.151,0.097l-0.681,0.04V112h1v12.814
	c0.783-0.048,1.307-0.076,1.833-0.076c2.001,0,4.992,0.367,6.834,1.068l0.25,0.089h3.235l0.258-0.093
	c1.92-0.73,4.851-1.064,6.758-1.064c0.526,0,1.05,0.028,1.832,0.076V112h1v13.878l-0.684-0.042
	c-1.014-0.062-1.573-0.097-2.148-0.097c-1.876,0-4.68,0.344-6.411,1.002l-0.431,0.155L117.66,126.882z M119.584,124.864
	l-0.242-0.134c-1.931-1.068-4.548-1.707-7-1.707c-0.55,0-1.096,0.036-1.8,0.094L110,123.163v-13.027l0.458-0.038
	C111.22,110.035,111.78,110,112,110c2.802,0,5.481,0.603,7.583,1.701c2.121-1.114,4.679-1.701,7.417-1.701
	c0.22,0,0.78,0.035,1.542,0.098l0.458,0.038v13.026l-0.541-0.044c-0.705-0.058-1.251-0.094-1.8-0.094
	c-2.417,0-4.844,0.606-6.833,1.707L119.584,124.864L119.584,124.864z M112.341,122.024c2.313,0,4.771,0.536,6.743,1.455v-10.91
	c-1.955-1.013-4.457-1.568-7.084-1.568c-0.161,0-0.515,0.021-1,0.058v11.021C111.486,122.044,111.91,122.024,112.341,122.024
	L112.341,122.024z M120.084,112.567v10.908c1.981-0.939,4.284-1.451,6.575-1.451c0.431,0,0.855,0.021,1.341,0.055v-11.021
	c-0.485-0.037-0.839-0.058-1-0.058C124.439,111,122.055,111.541,120.084,112.567L120.084,112.567z"/>
<path id="Shape-Copy-7" sketch:type="MSShapeGroup" opacity="0.7" fill="#FF4C00" enable-background="new    " d="M191.025,123.232
	l0.707-0.707l4.243,4.243l-0.707,0.707L191.025,123.232L191.025,123.232z M186,125L186,125c3.866,0,7-3.134,7-7s-3.134-7-7-7
	s-7,3.134-7,7S182.134,125,186,125L186,125L186,125z M186,126L186,126c-4.418,0-8-3.582-8-8s3.582-8,8-8s8,3.582,8,8
	S190.418,126,186,126L186,126L186,126z M185.648,120.883h1.069V122h-1.069V120.883z M184.493,114.714
	c0.437-0.471,1.037-0.706,1.799-0.706c0.705,0,1.27,0.201,1.695,0.604s0.636,0.918,0.636,1.544c0,0.38-0.078,0.688-0.234,0.924
	s-0.47,0.584-0.943,1.042c-0.344,0.333-0.567,0.615-0.669,0.846s-0.153,0.572-0.153,1.023h-0.956c0-0.512,0.061-0.925,0.183-1.238
	s0.389-0.672,0.8-1.077l0.43-0.424c0.129-0.122,0.233-0.249,0.312-0.381c0.143-0.233,0.215-0.474,0.215-0.725
	c0-0.351-0.105-0.655-0.314-0.913s-0.556-0.387-1.039-0.387c-0.598,0-1.012,0.222-1.241,0.666c-0.129,0.247-0.202,0.603-0.22,1.069
	h-0.956C183.838,115.807,184.056,115.185,184.493,114.714L184.493,114.714z"/>
<path id="Shape-Copy-8" sketch:type="MSShapeGroup" opacity="0.7" fill="#FF4C00" enable-background="new    " d="M58.581,115.921
	l-1.072-1.856l-2.534,0.721l-2.297-1.324l-0.636-2.465l-2.183-0.009l-0.736,2.483l-2.267,1.306l-2.517-0.653l-1.075,1.84
	l1.859,1.742v2.656l-1.78,1.792l1.067,1.867l2.523-0.718l2.277,1.312L49.95,127l2.207-0.014l0.725-2.369l2.262-1.304l2.524,0.65
	l1.074-1.775l-1.957-1.798v-2.655L58.581,115.921z M57.785,118.141v1.809L60,121.985l-1.846,3.121l-2.862-0.724l-1.569,0.905
	L52.892,128H49.2l-0.831-2.714l-1.569-0.905l-2.862,0.814l-1.846-3.211l2.031-2.035v-1.809L42,116.151l1.846-3.166l2.862,0.724
	l1.569-0.905L49.108,110H52.8l0.738,2.804l1.569,0.905l2.862-0.814l1.846,3.166L57.785,118.141z M51.012,123
	c-2.188,0-4.016-1.818-4.016-4s1.828-4,4.016-4s4.016,1.818,4.016,4S53.201,123,51.012,123z M51.012,122
	c1.637,0,3.016-1.371,3.016-3s-1.379-3-3.016-3s-3.016,1.371-3.016,3S49.375,122,51.012,122z"/>
<path id="Fill-1-Copy-13" sketch:type="MSShapeGroup" fill="#FFFFFF" d="M297,144h-5v1h5v4h1v-5H297z M297,161h-5v1h6v-5h-1V161z
	 M281,157h-1v5h6v-1h-5V157z M281,145h5v-1h-6v5h1V145z M282,160h14v-14h-14V160z M283,147h12v12h-12V147z"/>
<path id="Fill-1-Copy-14" sketch:type="MSShapeGroup" fill="#FFFFFF" d="M263,144h-5v1h5v4h1v-5H263z M258,161v1h6v-5h-1v4H258z
	 M247,157h-1v5h6v-1h-5V157z M252,145v-1h-6v5h1v-4H252z M249,156h12v-6h-12V156z M250,151h10v4h-10V151z"/>
<path id="Imported-Layers-Copy-4" sketch:type="MSShapeGroup" fill="#FFFFFF" d="M117.66,160.882l-0.34-0.137
	c-1.739-0.662-4.578-1.006-6.488-1.006c-0.576,0-1.135,0.035-2.151,0.097L108,159.877V146h1v12.814
	c0.783-0.048,1.307-0.076,1.833-0.076c2.001,0,4.992,0.367,6.834,1.068l0.25,0.089h3.235l0.258-0.093
	c1.92-0.73,4.851-1.064,6.758-1.064c0.526,0,1.05,0.028,1.832,0.076V146h1v13.878l-0.684-0.042
	c-1.014-0.062-1.573-0.097-2.148-0.097c-1.876,0-4.68,0.344-6.411,1.002l-0.431,0.155L117.66,160.882z M119.584,158.864
	l-0.242-0.134c-1.931-1.068-4.548-1.707-7-1.707c-0.55,0-1.096,0.036-1.8,0.094L110,157.163v-13.027l0.458-0.038
	C111.22,144.035,111.78,144,112,144c2.802,0,5.481,0.603,7.583,1.701c2.121-1.114,4.679-1.701,7.417-1.701
	c0.22,0,0.78,0.035,1.542,0.098l0.458,0.038v13.026l-0.541-0.044c-0.705-0.058-1.251-0.094-1.8-0.094
	c-2.417,0-4.844,0.606-6.833,1.707L119.584,158.864L119.584,158.864z M112.341,156.024c2.313,0,4.771,0.536,6.743,1.455v-10.91
	c-1.955-1.013-4.457-1.568-7.084-1.568c-0.161,0-0.515,0.021-1,0.058v11.021C111.486,156.044,111.91,156.024,112.341,156.024
	L112.341,156.024z M120.084,146.567v10.908c1.981-0.939,4.284-1.451,6.575-1.451c0.431,0,0.855,0.021,1.341,0.055v-11.021
	c-0.485-0.037-0.839-0.058-1-0.058C124.439,145,122.055,145.541,120.084,146.567L120.084,146.567z"/>
<path id="Shape-Copy-10" sketch:type="MSShapeGroup" fill="#FFFFFF" d="M191.025,157.232l0.707-0.707l4.243,4.243l-0.707,0.707
	L191.025,157.232L191.025,157.232z M186,159L186,159c3.866,0,7-3.134,7-7s-3.134-7-7-7s-7,3.134-7,7S182.134,159,186,159L186,159
	L186,159z M186,160L186,160c-4.418,0-8-3.582-8-8s3.582-8,8-8s8,3.582,8,8S190.418,160,186,160L186,160L186,160z M185.648,154.883
	h1.069V156h-1.069V154.883z M184.493,148.714c0.437-0.471,1.037-0.706,1.799-0.706c0.705,0,1.27,0.201,1.695,0.604
	s0.636,0.918,0.636,1.544c0,0.38-0.078,0.688-0.234,0.924s-0.47,0.584-0.943,1.042c-0.344,0.333-0.567,0.615-0.669,0.846
	s-0.153,0.572-0.153,1.023h-0.956c0-0.512,0.061-0.925,0.183-1.238s0.389-0.672,0.8-1.077l0.43-0.424
	c0.129-0.122,0.233-0.249,0.312-0.381c0.143-0.233,0.215-0.474,0.215-0.725c0-0.351-0.105-0.655-0.314-0.913
	s-0.556-0.387-1.039-0.387c-0.598,0-1.012,0.222-1.241,0.666c-0.129,0.247-0.202,0.603-0.22,1.069h-0.956
	C183.838,149.807,184.056,149.185,184.493,148.714L184.493,148.714z"/>
<path id="Shape-Copy-11" sketch:type="MSShapeGroup" fill="#FFFFFF" d="M58.581,149.921l-1.072-1.856l-2.534,0.721l-2.297-1.324
	l-0.636-2.465l-2.183-0.009l-0.736,2.483l-2.267,1.306l-2.517-0.653l-1.075,1.84l1.859,1.742v2.656l-1.78,1.792l1.067,1.867
	l2.523-0.718l2.277,1.312L49.95,161l2.207-0.014l0.725-2.369l2.262-1.304l2.524,0.65l1.074-1.775l-1.957-1.798v-2.655
	L58.581,149.921z M57.785,152.141v1.809L60,155.985l-1.846,3.121l-2.862-0.724l-1.569,0.905L52.892,162H49.2l-0.831-2.714
	l-1.569-0.905l-2.862,0.814l-1.846-3.211l2.031-2.035v-1.809L42,150.151l1.846-3.166l2.862,0.724l1.569-0.905L49.108,144H52.8
	l0.738,2.804l1.569,0.905l2.862-0.814l1.846,3.166L57.785,152.141z M51.012,157c-2.188,0-4.016-1.818-4.016-4s1.828-4,4.016-4
	s4.016,1.818,4.016,4S53.201,157,51.012,157z M51.012,156c1.637,0,3.016-1.371,3.016-3s-1.379-3-3.016-3s-3.016,1.371-3.016,3
	S49.375,156,51.012,156z"/>
<path id="Fill-1-Copy-16" sketch:type="MSShapeGroup" opacity="0.7" fill="#FFFFFF" enable-background="new    " d="M297,178h-5v1h5
	v4h1v-5H297z M297,195h-5v1h6v-5h-1V195z M281,191h-1v5h6v-1h-5V191z M281,179h5v-1h-6v5h1V179z M282,194h14v-14h-14V194z M283,181
	h12v12h-12V181z"/>
<path id="Fill-1-Copy-17" sketch:type="MSShapeGroup" opacity="0.7" fill="#FFFFFF" enable-background="new    " d="M263,178h-5v1h5
	v4h1v-5H263z M258,195v1h6v-5h-1v4H258z M247,191h-1v5h6v-1h-5V191z M252,179v-1h-6v5h1v-4H252z M249,190h12v-6h-12V190z M250,185
	h10v4h-10V185z"/>
<path id="Imported-Layers-Copy-5" sketch:type="MSShapeGroup" opacity="0.7" fill="#FFFFFF" enable-background="new    " d="
	M117.66,194.882l-0.34-0.137c-1.739-0.662-4.578-1.006-6.488-1.006c-0.576,0-1.135,0.035-2.151,0.097L108,193.877V180h1v12.814
	c0.783-0.048,1.307-0.076,1.833-0.076c2.001,0,4.992,0.367,6.834,1.068l0.25,0.089h3.235l0.258-0.093
	c1.92-0.73,4.851-1.064,6.758-1.064c0.526,0,1.05,0.028,1.832,0.076V180h1v13.878l-0.684-0.042
	c-1.014-0.062-1.573-0.097-2.148-0.097c-1.876,0-4.68,0.344-6.411,1.002l-0.431,0.155L117.66,194.882z M119.584,192.864
	l-0.242-0.134c-1.931-1.068-4.548-1.707-7-1.707c-0.55,0-1.096,0.036-1.8,0.094L110,191.163v-13.027l0.458-0.038
	C111.22,178.035,111.78,178,112,178c2.802,0,5.481,0.603,7.583,1.701c2.121-1.114,4.679-1.701,7.417-1.701
	c0.22,0,0.78,0.035,1.542,0.098l0.458,0.038v13.026l-0.541-0.044c-0.705-0.058-1.251-0.094-1.8-0.094
	c-2.417,0-4.844,0.606-6.833,1.707L119.584,192.864L119.584,192.864z M112.341,190.024c2.313,0,4.771,0.536,6.743,1.455v-10.91
	c-1.955-1.013-4.457-1.568-7.084-1.568c-0.161,0-0.515,0.021-1,0.058v11.021C111.486,190.044,111.91,190.024,112.341,190.024
	L112.341,190.024z M120.084,180.567v10.908c1.981-0.939,4.284-1.451,6.575-1.451c0.431,0,0.855,0.021,1.341,0.055v-11.021
	c-0.485-0.037-0.839-0.058-1-0.058C124.439,179,122.055,179.541,120.084,180.567L120.084,180.567z"/>
<path id="Shape-Copy-13" sketch:type="MSShapeGroup" opacity="0.7" fill="#FFFFFF" enable-background="new    " d="M191.025,191.232
	l0.707-0.707l4.243,4.243l-0.707,0.707L191.025,191.232L191.025,191.232z M186,193L186,193c3.866,0,7-3.134,7-7s-3.134-7-7-7
	s-7,3.134-7,7S182.134,193,186,193L186,193L186,193z M186,194L186,194c-4.418,0-8-3.582-8-8s3.582-8,8-8s8,3.582,8,8
	S190.418,194,186,194L186,194L186,194z M185.648,188.883h1.069V190h-1.069V188.883z M184.493,182.714
	c0.437-0.471,1.037-0.706,1.799-0.706c0.705,0,1.27,0.201,1.695,0.604s0.636,0.918,0.636,1.544c0,0.38-0.078,0.688-0.234,0.924
	s-0.47,0.584-0.943,1.042c-0.344,0.333-0.567,0.615-0.669,0.846s-0.153,0.572-0.153,1.023h-0.956c0-0.512,0.061-0.925,0.183-1.238
	s0.389-0.672,0.8-1.077l0.43-0.424c0.129-0.122,0.233-0.249,0.312-0.381c0.143-0.233,0.215-0.474,0.215-0.725
	c0-0.351-0.105-0.655-0.314-0.913s-0.556-0.387-1.039-0.387c-0.598,0-1.012,0.222-1.241,0.666c-0.129,0.247-0.202,0.603-0.22,1.069
	h-0.956C183.838,183.807,184.056,183.185,184.493,182.714L184.493,182.714z"/>
<path id="Shape-Copy-14" sketch:type="MSShapeGroup" opacity="0.7" fill="#FFFFFF" enable-background="new    " d="M58.581,183.921
	l-1.072-1.856l-2.534,0.721l-2.297-1.324l-0.636-2.465l-2.183-0.009l-0.736,2.483l-2.267,1.306l-2.517-0.653l-1.075,1.84
	l1.859,1.742v2.656l-1.78,1.792l1.067,1.867l2.523-0.718l2.277,1.312L49.95,195l2.207-0.014l0.725-2.369l2.262-1.304l2.524,0.65
	l1.074-1.775l-1.957-1.798v-2.655L58.581,183.921z M57.785,186.141v1.809L60,189.985l-1.846,3.121l-2.862-0.724l-1.569,0.905
	L52.892,196H49.2l-0.831-2.714l-1.569-0.905l-2.862,0.814l-1.846-3.211l2.031-2.035v-1.809L42,184.151l1.846-3.166l2.862,0.724
	l1.569-0.905L49.108,178H52.8l0.738,2.804l1.569,0.905l2.862-0.814l1.846,3.166L57.785,186.141z M51.012,191
	c-2.188,0-4.016-1.818-4.016-4s1.828-4,4.016-4s4.016,1.818,4.016,4S53.201,191,51.012,191z M51.012,190
	c1.637,0,3.016-1.371,3.016-3s-1.379-3-3.016-3s-3.016,1.371-3.016,3S49.375,190,51.012,190z"/>
<g id="Shape-_x2B_-_x3F_" transform="translate(212.000000, 8.000000)" sketch:type="MSLayerGroup">
	<path id="Shape_2_" sketch:type="MSShapeGroup" fill="#3B393F" d="M9,17.053L9,17.053c4.447,0,8.053-3.605,8.053-8.053
		S13.447,0.947,9,0.947S0.947,4.553,0.947,9S4.553,17.053,9,17.053L9,17.053z M9,18L9,18c-4.971,0-9-4.029-9-9s4.029-9,9-9
		s9,4.029,9,9S13.971,18,9,18L9,18z"/>
	<path id="_x3F_" sketch:type="MSShapeGroup" fill="#3B393F" d="M8.6,13v1h1v-1H8.6z M6.879,7.418
		C6.87,7.04,6.912,6.691,7.005,6.371s0.233-0.599,0.419-0.836s0.423-0.424,0.712-0.56c0.288-0.136,0.619-0.204,0.991-0.204
		c0.27,0,0.526,0.048,0.767,0.145c0.242,0.097,0.453,0.23,0.635,0.4c0.181,0.17,0.326,0.376,0.433,0.618
		c0.107,0.242,0.16,0.509,0.16,0.8c0,0.378-0.086,0.722-0.258,1.033c-0.172,0.31-0.388,0.592-0.649,0.844
		c-0.298,0.281-0.551,0.533-0.76,0.756C9.244,9.59,9.077,9.823,8.951,10.065c-0.126,0.242-0.216,0.514-0.272,0.815
		C8.623,11.181,8.6,11.554,8.609,12h0.879c0.009-0.446,0.028-0.788,0.056-1.025c0.028-0.238,0.084-0.439,0.167-0.604
		s0.212-0.332,0.384-0.502s0.402-0.405,0.691-0.705c0.353-0.349,0.644-0.713,0.872-1.091C11.886,7.695,12,7.234,12,6.691
		c0-0.427-0.074-0.805-0.223-1.135s-0.353-0.611-0.614-0.844c-0.26-0.233-0.56-0.41-0.9-0.531C9.923,4.061,9.558,4,9.167,4
		c-0.502,0-0.949,0.082-1.34,0.247C7.437,4.412,7.105,4.642,6.83,4.938C6.556,5.234,6.349,5.593,6.209,6.015
		C6.07,6.436,6,6.904,6,7.418H6.879z"/>
</g>
<g id="Shape-_x2B_-_x3F__1_" transform="translate(212.000000, 42.000000)" sketch:type="MSLayerGroup">
	<path id="Shape_3_" sketch:type="MSShapeGroup" fill="#FF4C00" d="M9,17.053L9,17.053c4.447,0,8.053-3.605,8.053-8.053
		S13.447,0.947,9,0.947S0.947,4.553,0.947,9S4.553,17.053,9,17.053L9,17.053z M9,18L9,18c-4.971,0-9-4.029-9-9s4.029-9,9-9
		s9,4.029,9,9S13.971,18,9,18L9,18z"/>
	<path id="_x3F__1_" sketch:type="MSShapeGroup" fill="#FF4C00" d="M8.6,13v1h1v-1H8.6z M6.879,7.418
		C6.87,7.04,6.912,6.691,7.005,6.371s0.233-0.599,0.419-0.836s0.423-0.424,0.712-0.56c0.288-0.136,0.619-0.204,0.991-0.204
		c0.27,0,0.526,0.048,0.767,0.145c0.242,0.097,0.453,0.23,0.635,0.4c0.181,0.17,0.326,0.376,0.433,0.618
		c0.107,0.242,0.16,0.509,0.16,0.8c0,0.378-0.086,0.722-0.258,1.033c-0.172,0.31-0.388,0.592-0.649,0.844
		c-0.298,0.281-0.551,0.533-0.76,0.756C9.244,9.59,9.077,9.823,8.951,10.065c-0.126,0.242-0.216,0.514-0.272,0.815
		C8.623,11.181,8.6,11.554,8.609,12h0.879c0.009-0.446,0.028-0.788,0.056-1.025c0.028-0.238,0.084-0.439,0.167-0.604
		s0.212-0.332,0.384-0.502s0.402-0.405,0.691-0.705c0.353-0.349,0.644-0.713,0.872-1.091C11.886,7.695,12,7.234,12,6.691
		c0-0.427-0.074-0.805-0.223-1.135s-0.353-0.611-0.614-0.844c-0.26-0.233-0.56-0.41-0.9-0.531C9.923,4.061,9.558,4,9.167,4
		c-0.502,0-0.949,0.082-1.34,0.247C7.437,4.412,7.105,4.642,6.83,4.938C6.556,5.234,6.349,5.593,6.209,6.015
		C6.07,6.436,6,6.904,6,7.418H6.879z"/>
</g>
<g id="Shape-_x2B_-_x3F_-Copy-2" transform="translate(212.000000, 76.000000)" sketch:type="MSLayerGroup" opacity="0.7">
	<path id="Shape_4_" sketch:type="MSShapeGroup" fill="#3B393F" d="M9,17.053L9,17.053c4.447,0,8.053-3.605,8.053-8.053
		S13.447,0.947,9,0.947S0.947,4.553,0.947,9S4.553,17.053,9,17.053L9,17.053z M9,18L9,18c-4.971,0-9-4.029-9-9s4.029-9,9-9
		s9,4.029,9,9S13.971,18,9,18L9,18z"/>
	<path id="_x3F__2_" sketch:type="MSShapeGroup" fill="#3B393F" d="M8.6,13v1h1v-1H8.6z M6.879,7.418
		C6.87,7.04,6.912,6.691,7.005,6.371s0.233-0.599,0.419-0.836s0.423-0.424,0.712-0.56c0.288-0.136,0.619-0.204,0.991-0.204
		c0.27,0,0.526,0.048,0.767,0.145c0.242,0.097,0.453,0.23,0.635,0.4c0.181,0.17,0.326,0.376,0.433,0.618
		c0.107,0.242,0.16,0.509,0.16,0.8c0,0.378-0.086,0.722-0.258,1.033c-0.172,0.31-0.388,0.592-0.649,0.844
		c-0.298,0.281-0.551,0.533-0.76,0.756C9.244,9.59,9.077,9.823,8.951,10.065c-0.126,0.242-0.216,0.514-0.272,0.815
		C8.623,11.181,8.6,11.554,8.609,12h0.879c0.009-0.446,0.028-0.788,0.056-1.025c0.028-0.238,0.084-0.439,0.167-0.604
		s0.212-0.332,0.384-0.502s0.402-0.405,0.691-0.705c0.353-0.349,0.644-0.713,0.872-1.091C11.886,7.695,12,7.234,12,6.691
		c0-0.427-0.074-0.805-0.223-1.135s-0.353-0.611-0.614-0.844c-0.26-0.233-0.56-0.41-0.9-0.531C9.923,4.061,9.558,4,9.167,4
		c-0.502,0-0.949,0.082-1.34,0.247C7.437,4.412,7.105,4.642,6.83,4.938C6.556,5.234,6.349,5.593,6.209,6.015
		C6.07,6.436,6,6.904,6,7.418H6.879z"/>
</g>
<g id="Shape-_x2B_-_x3F__2_" transform="translate(212.000000, 110.000000)" sketch:type="MSLayerGroup" opacity="0.7">
	<path id="Shape_5_" sketch:type="MSShapeGroup" fill="#FF4C00" d="M9,17.053L9,17.053c4.447,0,8.053-3.605,8.053-8.053
		S13.447,0.947,9,0.947S0.947,4.553,0.947,9S4.553,17.053,9,17.053L9,17.053z M9,18L9,18c-4.971,0-9-4.029-9-9s4.029-9,9-9
		s9,4.029,9,9S13.971,18,9,18L9,18z"/>
	<path id="_x3F__3_" sketch:type="MSShapeGroup" fill="#FF4C00" d="M8.6,13v1h1v-1H8.6z M6.879,7.418
		C6.87,7.04,6.912,6.691,7.005,6.371s0.233-0.599,0.419-0.836s0.423-0.424,0.712-0.56c0.288-0.136,0.619-0.204,0.991-0.204
		c0.27,0,0.526,0.048,0.767,0.145c0.242,0.097,0.453,0.23,0.635,0.4c0.181,0.17,0.326,0.376,0.433,0.618
		c0.107,0.242,0.16,0.509,0.16,0.8c0,0.378-0.086,0.722-0.258,1.033c-0.172,0.31-0.388,0.592-0.649,0.844
		c-0.298,0.281-0.551,0.533-0.76,0.756C9.244,9.59,9.077,9.823,8.951,10.065c-0.126,0.242-0.216,0.514-0.272,0.815
		C8.623,11.181,8.6,11.554,8.609,12h0.879c0.009-0.446,0.028-0.788,0.056-1.025c0.028-0.238,0.084-0.439,0.167-0.604
		s0.212-0.332,0.384-0.502s0.402-0.405,0.691-0.705c0.353-0.349,0.644-0.713,0.872-1.091C11.886,7.695,12,7.234,12,6.691
		c0-0.427-0.074-0.805-0.223-1.135s-0.353-0.611-0.614-0.844c-0.26-0.233-0.56-0.41-0.9-0.531C9.923,4.061,9.558,4,9.167,4
		c-0.502,0-0.949,0.082-1.34,0.247C7.437,4.412,7.105,4.642,6.83,4.938C6.556,5.234,6.349,5.593,6.209,6.015
		C6.07,6.436,6,6.904,6,7.418H6.879z"/>
</g>
<g id="Shape-_x2B_-_x3F__3_" transform="translate(212.000000, 144.000000)" sketch:type="MSLayerGroup">
	<path id="Shape_6_" sketch:type="MSShapeGroup" fill="#FFFFFF" d="M9,17.053L9,17.053c4.447,0,8.053-3.605,8.053-8.053
		S13.447,0.947,9,0.947S0.947,4.553,0.947,9S4.553,17.053,9,17.053L9,17.053z M9,18L9,18c-4.971,0-9-4.029-9-9s4.029-9,9-9
		s9,4.029,9,9S13.971,18,9,18L9,18z"/>
	<path id="_x3F__4_" sketch:type="MSShapeGroup" fill="#FFFFFF" d="M8.6,13v1h1v-1H8.6z M6.879,7.418
		C6.87,7.04,6.912,6.691,7.005,6.371s0.233-0.599,0.419-0.836s0.423-0.424,0.712-0.56c0.288-0.136,0.619-0.204,0.991-0.204
		c0.27,0,0.526,0.048,0.767,0.145c0.242,0.097,0.453,0.23,0.635,0.4c0.181,0.17,0.326,0.376,0.433,0.618
		c0.107,0.242,0.16,0.509,0.16,0.8c0,0.378-0.086,0.722-0.258,1.033c-0.172,0.31-0.388,0.592-0.649,0.844
		c-0.298,0.281-0.551,0.533-0.76,0.756C9.244,9.59,9.077,9.823,8.951,10.065c-0.126,0.242-0.216,0.514-0.272,0.815
		C8.623,11.181,8.6,11.554,8.609,12h0.879c0.009-0.446,0.028-0.788,0.056-1.025c0.028-0.238,0.084-0.439,0.167-0.604
		s0.212-0.332,0.384-0.502s0.402-0.405,0.691-0.705c0.353-0.349,0.644-0.713,0.872-1.091C11.886,7.695,12,7.234,12,6.691
		c0-0.427-0.074-0.805-0.223-1.135s-0.353-0.611-0.614-0.844c-0.26-0.233-0.56-0.41-0.9-0.531C9.923,4.061,9.558,4,9.167,4
		c-0.502,0-0.949,0.082-1.34,0.247C7.437,4.412,7.105,4.642,6.83,4.938C6.556,5.234,6.349,5.593,6.209,6.015
		C6.07,6.436,6,6.904,6,7.418H6.879z"/>
</g>
<g id="Shape-_x2B_-_x3F__4_" transform="translate(212.000000, 178.000000)" sketch:type="MSLayerGroup" opacity="0.7">
	<path id="Shape_7_" sketch:type="MSShapeGroup" fill="#FFFFFF" d="M9,17.053L9,17.053c4.447,0,8.053-3.605,8.053-8.053
		S13.447,0.947,9,0.947S0.947,4.553,0.947,9S4.553,17.053,9,17.053L9,17.053z M9,18L9,18c-4.971,0-9-4.029-9-9s4.029-9,9-9
		s9,4.029,9,9S13.971,18,9,18L9,18z"/>
	<path id="_x3F__5_" sketch:type="MSShapeGroup" fill="#FFFFFF" d="M8.6,13v1h1v-1H8.6z M6.879,7.418
		C6.87,7.04,6.912,6.691,7.005,6.371s0.233-0.599,0.419-0.836s0.423-0.424,0.712-0.56c0.288-0.136,0.619-0.204,0.991-0.204
		c0.27,0,0.526,0.048,0.767,0.145c0.242,0.097,0.453,0.23,0.635,0.4c0.181,0.17,0.326,0.376,0.433,0.618
		c0.107,0.242,0.16,0.509,0.16,0.8c0,0.378-0.086,0.722-0.258,1.033c-0.172,0.31-0.388,0.592-0.649,0.844
		c-0.298,0.281-0.551,0.533-0.76,0.756C9.244,9.59,9.077,9.823,8.951,10.065c-0.126,0.242-0.216,0.514-0.272,0.815
		C8.623,11.181,8.6,11.554,8.609,12h0.879c0.009-0.446,0.028-0.788,0.056-1.025c0.028-0.238,0.084-0.439,0.167-0.604
		s0.212-0.332,0.384-0.502s0.402-0.405,0.691-0.705c0.353-0.349,0.644-0.713,0.872-1.091C11.886,7.695,12,7.234,12,6.691
		c0-0.427-0.074-0.805-0.223-1.135s-0.353-0.611-0.614-0.844c-0.26-0.233-0.56-0.41-0.9-0.531C9.923,4.061,9.558,4,9.167,4
		c-0.502,0-0.949,0.082-1.34,0.247C7.437,4.412,7.105,4.642,6.83,4.938C6.556,5.234,6.349,5.593,6.209,6.015
		C6.07,6.436,6,6.904,6,7.418H6.879z"/>
</g>
<path id="Shape_8_" sketch:type="MSShapeGroup" fill="#3B393F" d="M158,7.995C158,8.002,148.002,8,148.002,8L148,23.33l5-5.867
	l5,5.737V7.995z M153,19l-6,7V7.995C147,7.445,147.456,7,148.002,7h9.995C158.551,7,159,7.451,159,7.995V26L153,19z"/>
<path id="Shape-Copy-3" sketch:type="MSShapeGroup" fill="#FF4C00" d="M158,41.995c0,0.007-9.998,0.005-9.998,0.005L148,57.33
	l5-5.867l5,5.737V41.995z M153,53l-6,7V41.995c0-0.549,0.456-0.995,1.002-0.995h9.995c0.554,0,1.002,0.451,1.002,0.995V60L153,53z"
	/>
<path id="Shape-Copy-6" sketch:type="MSShapeGroup" fill="#3B393F" fill-opacity="0.7" d="M158,75.995
	c0,0.007-9.998,0.005-9.998,0.005L148,91.33l5-5.867l5,5.737V75.995z M153,87l-6,7V75.995c0-0.549,0.456-0.995,1.002-0.995h9.995
	c0.554,0,1.002,0.451,1.002,0.995V94L153,87z"/>
<path id="Shape-Copy-9" sketch:type="MSShapeGroup" opacity="0.7" fill="#FF4C00" enable-background="new    " d="M158,109.995
	c0,0.007-9.998,0.005-9.998,0.005L148,125.33l5-5.867l5,5.737V109.995z M153,121l-6,7v-18.005c0-0.549,0.456-0.995,1.002-0.995
	h9.995c0.554,0,1.002,0.451,1.002,0.995V128L153,121z"/>
<path id="Shape-Copy-12" sketch:type="MSShapeGroup" fill="#FFFFFF" d="M158,143.995c0,0.007-9.998,0.005-9.998,0.005L148,159.33
	l5-5.867l5,5.737V143.995z M153,155l-6,7v-18.005c0-0.549,0.456-0.995,1.002-0.995h9.995c0.554,0,1.002,0.451,1.002,0.995V162
	L153,155z"/>
<path id="Shape-Copy-15" sketch:type="MSShapeGroup" opacity="0.7" fill="#FFFFFF" enable-background="new    " d="M158,177.995
	c0,0.007-9.998,0.005-9.998,0.005L148,193.33l5-5.867l5,5.737V177.995z M153,189l-6,7v-18.005c0-0.549,0.456-0.995,1.002-0.995
	h9.995c0.554,0,1.002,0.451,1.002,0.995V196L153,189z"/>
<g id="Group" transform="translate(8.000000, 8.000000)" sketch:type="MSLayerGroup">
	<rect id="Rectangle-1168-Copy-17" sketch:type="MSShapeGroup" fill="#3B393F" width="12" height="1">
	</rect>
	<rect id="Rectangle-1168-Copy-16" x="15" sketch:type="MSShapeGroup" fill="#3B393F" width="2" height="1">
	</rect>
	<rect id="Rectangle-1168-Copy-19" y="4" sketch:type="MSShapeGroup" fill="#3B393F" width="12" height="1">
	</rect>
	<rect id="Rectangle-1168-Copy-18" x="15" y="4" sketch:type="MSShapeGroup" fill="#3B393F" width="2" height="1">
	</rect>
	<rect id="Rectangle-1168-Copy-21" y="8" sketch:type="MSShapeGroup" fill="#3B393F" width="12" height="1">
	</rect>
	<rect id="Rectangle-1168-Copy-20" x="15" y="8" sketch:type="MSShapeGroup" fill="#3B393F" width="2" height="1">
	</rect>
	<rect id="Rectangle-1168-Copy-23" y="12" sketch:type="MSShapeGroup" fill="#3B393F" width="12" height="1">
	</rect>
	<rect id="Rectangle-1168-Copy-22" x="15" y="12" sketch:type="MSShapeGroup" fill="#3B393F" width="2" height="1">
	</rect>
	<rect id="Rectangle-1168-Copy-25" y="16" sketch:type="MSShapeGroup" fill="#3B393F" width="12" height="1">
	</rect>
	<rect id="Rectangle-1168-Copy-24" x="15" y="16" sketch:type="MSShapeGroup" fill="#3B393F" width="2" height="1">
	</rect>
</g>
<g id="Group_1_" transform="translate(8.000000, 42.000000)" sketch:type="MSLayerGroup">
	<rect id="Rectangle-1168-Copy-17_1_" sketch:type="MSShapeGroup" fill="#FF4C00" width="12" height="1">
	</rect>
	<rect id="Rectangle-1168-Copy-16_1_" x="15" sketch:type="MSShapeGroup" fill="#FF4C00" width="2" height="1">
	</rect>
	<rect id="Rectangle-1168-Copy-19_1_" y="4" sketch:type="MSShapeGroup" fill="#FF4C00" width="12" height="1">
	</rect>
	<rect id="Rectangle-1168-Copy-18_1_" x="15" y="4" sketch:type="MSShapeGroup" fill="#FF4C00" width="2" height="1">
	</rect>
	<rect id="Rectangle-1168-Copy-21_1_" y="8" sketch:type="MSShapeGroup" fill="#FF4C00" width="12" height="1">
	</rect>
	<rect id="Rectangle-1168-Copy-20_1_" x="15" y="8" sketch:type="MSShapeGroup" fill="#FF4C00" width="2" height="1">
	</rect>
	<rect id="Rectangle-1168-Copy-23_1_" y="12" sketch:type="MSShapeGroup" fill="#FF4C00" width="12" height="1">
	</rect>
	<rect id="Rectangle-1168-Copy-22_1_" x="15" y="12" sketch:type="MSShapeGroup" fill="#FF4C00" width="2" height="1">
	</rect>
	<rect id="Rectangle-1168-Copy-25_1_" y="16" sketch:type="MSShapeGroup" fill="#FF4C00" width="12" height="1">
	</rect>
	<rect id="Rectangle-1168-Copy-24_1_" x="15" y="16" sketch:type="MSShapeGroup" fill="#FF4C00" width="2" height="1">
	</rect>
</g>
<g id="Group-Copy-2" transform="translate(8.000000, 76.000000)" sketch:type="MSLayerGroup" opacity="0.7">
	<rect id="Rectangle-1168-Copy-17_2_" sketch:type="MSShapeGroup" fill="#3B393F" width="12" height="1">
	</rect>
	<rect id="Rectangle-1168-Copy-16_2_" x="15" sketch:type="MSShapeGroup" fill="#3B393F" width="2" height="1">
	</rect>
	<rect id="Rectangle-1168-Copy-19_2_" y="4" sketch:type="MSShapeGroup" fill="#3B393F" width="12" height="1">
	</rect>
	<rect id="Rectangle-1168-Copy-18_2_" x="15" y="4" sketch:type="MSShapeGroup" fill="#3B393F" width="2" height="1">
	</rect>
	<rect id="Rectangle-1168-Copy-21_2_" y="8" sketch:type="MSShapeGroup" fill="#3B393F" width="12" height="1">
	</rect>
	<rect id="Rectangle-1168-Copy-20_2_" x="15" y="8" sketch:type="MSShapeGroup" fill="#3B393F" width="2" height="1">
	</rect>
	<rect id="Rectangle-1168-Copy-23_2_" y="12" sketch:type="MSShapeGroup" fill="#3B393F" width="12" height="1">
	</rect>
	<rect id="Rectangle-1168-Copy-22_2_" x="15" y="12" sketch:type="MSShapeGroup" fill="#3B393F" width="2" height="1">
	</rect>
	<rect id="Rectangle-1168-Copy-25_2_" y="16" sketch:type="MSShapeGroup" fill="#3B393F" width="12" height="1">
	</rect>
	<rect id="Rectangle-1168-Copy-24_2_" x="15" y="16" sketch:type="MSShapeGroup" fill="#3B393F" width="2" height="1">
	</rect>
</g>
<g id="Group_2_" transform="translate(8.000000, 110.000000)" sketch:type="MSLayerGroup" opacity="0.7">
	<rect id="Rectangle-1168-Copy-17_3_" sketch:type="MSShapeGroup" fill="#FF4C00" width="12" height="1">
	</rect>
	<rect id="Rectangle-1168-Copy-16_3_" x="15" sketch:type="MSShapeGroup" fill="#FF4C00" width="2" height="1">
	</rect>
	<rect id="Rectangle-1168-Copy-19_3_" y="4" sketch:type="MSShapeGroup" fill="#FF4C00" width="12" height="1">
	</rect>
	<rect id="Rectangle-1168-Copy-18_3_" x="15" y="4" sketch:type="MSShapeGroup" fill="#FF4C00" width="2" height="1">
	</rect>
	<rect id="Rectangle-1168-Copy-21_3_" y="8" sketch:type="MSShapeGroup" fill="#FF4C00" width="12" height="1">
	</rect>
	<rect id="Rectangle-1168-Copy-20_3_" x="15" y="8" sketch:type="MSShapeGroup" fill="#FF4C00" width="2" height="1">
	</rect>
	<rect id="Rectangle-1168-Copy-23_3_" y="12" sketch:type="MSShapeGroup" fill="#FF4C00" width="12" height="1">
	</rect>
	<rect id="Rectangle-1168-Copy-22_3_" x="15" y="12" sketch:type="MSShapeGroup" fill="#FF4C00" width="2" height="1">
	</rect>
	<rect id="Rectangle-1168-Copy-25_3_" y="16" sketch:type="MSShapeGroup" fill="#FF4C00" width="12" height="1">
	</rect>
	<rect id="Rectangle-1168-Copy-24_3_" x="15" y="16" sketch:type="MSShapeGroup" fill="#FF4C00" width="2" height="1">
	</rect>
</g>
<g id="Group_3_" transform="translate(8.000000, 144.000000)" sketch:type="MSLayerGroup">
	<rect id="Rectangle-1168-Copy-17_4_" sketch:type="MSShapeGroup" fill="#FFFFFF" width="12" height="1">
	</rect>
	<rect id="Rectangle-1168-Copy-16_4_" x="15" sketch:type="MSShapeGroup" fill="#FFFFFF" width="2" height="1">
	</rect>
	<rect id="Rectangle-1168-Copy-19_4_" y="4" sketch:type="MSShapeGroup" fill="#FFFFFF" width="12" height="1">
	</rect>
	<rect id="Rectangle-1168-Copy-18_4_" x="15" y="4" sketch:type="MSShapeGroup" fill="#FFFFFF" width="2" height="1">
	</rect>
	<rect id="Rectangle-1168-Copy-21_4_" y="8" sketch:type="MSShapeGroup" fill="#FFFFFF" width="12" height="1">
	</rect>
	<rect id="Rectangle-1168-Copy-20_4_" x="15" y="8" sketch:type="MSShapeGroup" fill="#FFFFFF" width="2" height="1">
	</rect>
	<rect id="Rectangle-1168-Copy-23_4_" y="12" sketch:type="MSShapeGroup" fill="#FFFFFF" width="12" height="1">
	</rect>
	<rect id="Rectangle-1168-Copy-22_4_" x="15" y="12" sketch:type="MSShapeGroup" fill="#FFFFFF" width="2" height="1">
	</rect>
	<rect id="Rectangle-1168-Copy-25_4_" y="16" sketch:type="MSShapeGroup" fill="#FFFFFF" width="12" height="1">
	</rect>
	<rect id="Rectangle-1168-Copy-24_4_" x="15" y="16" sketch:type="MSShapeGroup" fill="#FFFFFF" width="2" height="1">
	</rect>
</g>
<g id="Group_4_" transform="translate(8.000000, 178.000000)" sketch:type="MSLayerGroup" opacity="0.7">
	<rect id="Rectangle-1168-Copy-17_5_" sketch:type="MSShapeGroup" fill="#FFFFFF" width="12" height="1">
	</rect>
	<rect id="Rectangle-1168-Copy-16_5_" x="15" sketch:type="MSShapeGroup" fill="#FFFFFF" width="2" height="1">
	</rect>
	<rect id="Rectangle-1168-Copy-19_5_" y="4" sketch:type="MSShapeGroup" fill="#FFFFFF" width="12" height="1">
	</rect>
	<rect id="Rectangle-1168-Copy-18_5_" x="15" y="4" sketch:type="MSShapeGroup" fill="#FFFFFF" width="2" height="1">
	</rect>
	<rect id="Rectangle-1168-Copy-21_5_" y="8" sketch:type="MSShapeGroup" fill="#FFFFFF" width="12" height="1">
	</rect>
	<rect id="Rectangle-1168-Copy-20_5_" x="15" y="8" sketch:type="MSShapeGroup" fill="#FFFFFF" width="2" height="1">
	</rect>
	<rect id="Rectangle-1168-Copy-23_5_" y="12" sketch:type="MSShapeGroup" fill="#FFFFFF" width="12" height="1">
	</rect>
	<rect id="Rectangle-1168-Copy-22_5_" x="15" y="12" sketch:type="MSShapeGroup" fill="#FFFFFF" width="2" height="1">
	</rect>
	<rect id="Rectangle-1168-Copy-25_5_" y="16" sketch:type="MSShapeGroup" fill="#FFFFFF" width="12" height="1">
	</rect>
	<rect id="Rectangle-1168-Copy-24_5_" x="15" y="16" sketch:type="MSShapeGroup" fill="#FFFFFF" width="2" height="1">
	</rect>
</g>
<path id="Path-1102" sketch:type="MSShapeGroup" fill="#FFFFFF" d="M0,0"/>
<path id="Rectangle-1230" sketch:type="MSShapeGroup" fill="#3B393F" d="M86.636,16.778L93,10.414L91.586,9l-6.364,6.364L78.858,9
	l-1.414,1.414l6.364,6.364l-6.364,6.364l1.414,1.414l6.364-6.364l6.364,6.364L93,23.142L86.636,16.778z"/>
<path id="Rectangle-1230-Copy-2" sketch:type="MSShapeGroup" fill="#FF4C00" d="M86.636,50.778L93,44.414L91.586,43l-6.364,6.364
	L78.858,43l-1.414,1.414l6.364,6.364l-6.364,6.364l1.414,1.414l6.364-6.364l6.364,6.364L93,57.142L86.636,50.778z"/>
<path id="Rectangle-1230-Copy-3" sketch:type="MSShapeGroup" opacity="0.7" fill="#3B393F" enable-background="new    " d="
	M86.636,84.778L93,78.414L91.586,77l-6.364,6.364L78.858,77l-1.414,1.414l6.364,6.364l-6.364,6.364l1.414,1.414l6.364-6.364
	l6.364,6.364L93,91.142L86.636,84.778z"/>
<path id="Rectangle-1230-Copy-4" sketch:type="MSShapeGroup" opacity="0.7" fill="#FF4C00" enable-background="new    " d="
	M86.636,118.778L93,112.414L91.586,111l-6.364,6.364L78.858,111l-1.414,1.414l6.364,6.364l-6.364,6.364l1.414,1.414l6.364-6.364
	l6.364,6.364L93,125.142L86.636,118.778z"/>
<path id="Rectangle-1230-Copy-5" sketch:type="MSShapeGroup" fill="#FFFFFF" d="M86.636,152.778L93,146.414L91.586,145l-6.364,6.364
	L78.858,145l-1.414,1.414l6.364,6.364l-6.364,6.364l1.414,1.414l6.364-6.364l6.364,6.364L93,159.142L86.636,152.778z"/>
<path id="Rectangle-1230-Copy-6" sketch:type="MSShapeGroup" opacity="0.7" fill="#FFFFFF" enable-background="new    " d="
	M86.636,186.778L93,180.414L91.586,179l-6.364,6.364L78.858,179l-1.414,1.414l6.364,6.364l-6.364,6.364l1.414,1.414l6.364-6.364
	l6.364,6.364L93,193.142L86.636,186.778z"/>
</svg>
